%FSLAX23Y23*%
%MOIN*%
G04 EasyPC Gerber Version 15.0.4 Build 3016 *
%ADD96R,0.02756X0.05512*%
%ADD116R,0.03937X0.07090*%
%ADD16R,0.05500X0.06000*%
%AMT95*0 Octagon Pad at angle 0*4,1,8,-0.01549,-0.03740,0.01549,-0.03740,0.03740,-0.01549,0.03740,0.01549,0.01549,0.03740,-0.01549,0.03740,-0.03740,0.01549,-0.03740,-0.01549,-0.01549,-0.03740,0*1,0,0.03150,0,0*%
%ADD95T95*%
%ADD109O,0.05906X0.11811X0.03150*%
%ADD25R,0.05512X0.02756*%
%ADD74C,0.00500*%
%ADD12C,0.00787*%
%ADD92C,0.01181*%
%ADD115R,0.06000X0.05500*%
%ADD97R,0.08000X0.05500*%
%ADD19R,0.09843X0.07874*%
%ADD101C,0.01969*%
%ADD94C,0.04343X0.03543*%
%ADD99C,0.04800X0.02400*%
%ADD100C,0.04803X0.02402*%
%ADD93C,0.23622X0.11811*%
X0Y0D02*
D02*
D12*
X136Y26D02*
X2928D01*
X2946Y28*
X2964Y32*
X2981Y39*
X2997Y49*
X3011Y61*
X3023Y75*
X3033Y91*
X3040Y108*
X3044Y126*
X3046Y144*
Y1678*
X3044Y1696*
X3040Y1715*
X3033Y1732*
X3023Y1748*
X3011Y1763*
X2996Y1775*
X2980Y1785*
X2963Y1792*
X2945Y1796*
X2926Y1798*
X136*
X117Y1796*
X99Y1792*
X81Y1784*
X65Y1774*
X50Y1762*
X38Y1747*
X28Y1731*
X20Y1713*
X16Y1695*
X14Y1676*
Y148*
X16Y129*
X20Y110*
X28Y93*
X38Y76*
X50Y62*
X65Y49*
X81Y39*
X99Y32*
X117Y28*
X136Y26*
X2639Y605D02*
X2642Y603D01*
X2647Y600*
X2654*
X2659Y603*
X2661Y605*
X2664Y610*
Y620*
X2661Y625*
X2659Y627*
X2654Y630*
X2647*
X2642Y627*
X2639Y625*
X2625Y600D02*
Y620D01*
Y613D02*
X2622Y618D01*
X2617Y620*
X2612*
X2607Y618*
X2565Y603D02*
X2568Y600D01*
X2573*
X2578*
X2583Y603*
X2585Y608*
Y615*
X2583Y618*
X2578Y620*
X2573*
X2568Y618*
X2565Y615*
Y613*
X2568Y610*
X2573Y608*
X2578*
X2583Y610*
X2585Y613*
X2546Y618D02*
X2541Y620D01*
X2534*
X2529Y618*
X2526Y613*
Y605*
X2529Y603*
X2534Y600*
X2538*
X2543Y603*
X2546Y605*
Y608*
X2543Y610*
X2538Y613*
X2534*
X2529Y610*
X2526Y608*
Y605D02*
Y600D01*
X2502Y620D02*
X2492D01*
X2497Y625D02*
Y603D01*
X2494Y600*
X2492*
X2489Y603*
X2447D02*
X2450Y600D01*
X2455*
X2460*
X2465Y603*
X2467Y608*
Y615*
X2465Y618*
X2460Y620*
X2455*
X2450Y618*
X2447Y615*
Y613*
X2450Y610*
X2455Y608*
X2460*
X2465Y610*
X2467Y613*
X2408D02*
X2410Y618D01*
X2415Y620*
X2420*
X2425Y618*
X2428Y613*
Y608*
X2425Y603*
X2420Y600*
X2415*
X2410Y603*
X2408Y608*
Y600D02*
Y630D01*
X2349Y608D02*
X2346Y603D01*
X2342Y600*
X2337*
X2332Y603*
X2329Y608*
Y613*
X2332Y618*
X2337Y620*
X2342*
X2346Y618*
X2349Y613*
Y600D02*
Y630D01*
X2310Y620D02*
X2307Y610D01*
X2302Y605*
X2297*
X2292Y610*
X2290Y620*
X2292Y610D02*
X2295Y600D01*
X2297Y596*
X2302Y593*
X2307Y596*
X2652Y553D02*
Y583D01*
X2664D02*
X2639D01*
X2625Y553D02*
Y583D01*
Y565D02*
X2622Y570D01*
X2617Y573*
X2612*
X2607Y570*
X2605Y565*
Y553*
X2565Y556D02*
X2568Y553D01*
X2573*
X2578*
X2583Y556*
X2585Y561*
Y568*
X2583Y570*
X2578Y573*
X2573*
X2568Y570*
X2565Y568*
Y565*
X2568Y563*
X2573Y561*
X2578*
X2583Y563*
X2585Y565*
X2506Y583D02*
Y553D01*
X2482*
X2467Y561D02*
X2465Y556D01*
X2460Y553*
X2455*
X2450Y556*
X2447Y561*
Y565*
X2450Y570*
X2455Y573*
X2460*
X2465Y570*
X2467Y565*
Y561*
X2428Y553D02*
Y573D01*
Y565D02*
X2425Y570D01*
X2420Y573*
X2415*
X2410Y570*
X2408Y565*
Y553*
X2369Y565D02*
X2371Y570D01*
X2376Y573*
X2381*
X2386Y570*
X2388Y565*
Y563*
X2386Y558*
X2381Y556*
X2376*
X2371Y558*
X2369Y563*
Y573D02*
Y553D01*
X2371Y548*
X2376Y546*
X2383*
X2388Y548*
X2349Y563D02*
X2329D01*
X2310Y553D02*
Y583D01*
X2292*
X2287Y580*
X2285Y575*
X2287Y570*
X2292Y568*
X2310*
X2292D02*
X2285Y553D01*
X2270Y573D02*
Y561D01*
X2268Y556*
X2263Y553*
X2258*
X2253Y556*
X2251Y561*
Y573D02*
Y553D01*
X2231D02*
Y573D01*
Y565D02*
X2228Y570D01*
X2223Y573*
X2219*
X2214Y570*
X2211Y565*
Y553*
X2152Y561D02*
X2150Y556D01*
X2145Y553*
X2135*
X2130Y556*
X2128Y561*
X2130Y565*
X2135Y568*
X2145*
X2150Y570*
X2152Y575*
X2150Y580*
X2145Y583*
X2135*
X2130Y580*
X2128Y575*
X2113Y553D02*
Y573D01*
Y570D02*
X2110Y573D01*
X2105*
X2103Y570*
Y563*
Y570D02*
X2100Y573D01*
X2096*
X2093Y570*
Y553*
X2073Y561D02*
X2071Y556D01*
X2066Y553*
X2061*
X2056Y556*
X2054Y561*
Y565*
X2056Y570*
X2061Y573*
X2066*
X2071Y570*
X2073Y565*
Y561*
X2034Y553D02*
Y583D01*
Y563D02*
X2027D01*
X2014Y573*
X2027Y563D02*
X2014Y553D01*
X1975Y556D02*
X1977Y553D01*
X1982*
X1987*
X1992Y556*
X1995Y561*
Y568*
X1992Y570*
X1987Y573*
X1982*
X1977Y570*
X1975Y568*
Y565*
X1977Y563*
X1982Y561*
X1987*
X1992Y563*
X1995Y565*
X2664Y535D02*
Y513D01*
X2661Y508*
X2657Y506*
X2647*
X2642Y508*
X2639Y513*
Y535*
X2625Y506D02*
Y526D01*
Y518D02*
X2622Y523D01*
X2617Y526*
X2612*
X2607Y523*
X2605Y518*
Y506*
X2575D02*
Y526D01*
Y533D02*
X2546Y506*
Y535D01*
Y521D02*
X2521D01*
Y506D02*
Y535D01*
X2506Y523D02*
X2502Y526D01*
X2494*
X2489Y523*
X2487Y518*
Y511*
X2489Y508*
X2494Y506*
X2499*
X2504Y508*
X2506Y511*
Y513*
X2504Y516*
X2499Y518*
X2494*
X2489Y516*
X2487Y513*
Y511D02*
Y506D01*
X2467Y513D02*
X2465Y508D01*
X2460Y506*
X2455*
X2450Y508*
X2447Y513*
Y518*
X2450Y523*
X2455Y526*
X2460*
X2465Y523*
X2467Y518*
Y506D02*
Y535D01*
X2428Y526D02*
Y513D01*
X2425Y508*
X2420Y506*
X2415*
X2410Y508*
X2408Y513*
Y526D02*
Y506D01*
X2349Y526D02*
X2339Y506D01*
X2329Y526*
X2305Y506D02*
X2295D01*
X2300D02*
Y535D01*
X2305Y531*
X2268Y506D02*
X2265Y508D01*
X2268Y511*
X2270Y508*
X2268Y506*
X2219D02*
Y535D01*
X2231Y516*
X2211*
X2152Y506D02*
Y535D01*
X2135*
X2130Y533*
X2128Y528*
X2130Y523*
X2135Y521*
X2152*
X2135D02*
X2128Y506D01*
X2093Y508D02*
X2096Y506D01*
X2100*
X2105*
X2110Y508*
X2113Y513*
Y521*
X2110Y523*
X2105Y526*
X2100*
X2096Y523*
X2093Y521*
Y518*
X2096Y516*
X2100Y513*
X2105*
X2110Y516*
X2113Y518*
X2073Y526D02*
X2064Y506D01*
X2054Y526*
X2032Y506D02*
X2029Y508D01*
X2032Y511*
X2034Y508*
X2032Y506*
X1995Y508D02*
X1990Y506D01*
X1982*
X1977Y508*
X1975Y513*
Y516*
X1977Y521*
X1982Y523*
X1995*
Y535*
X1975*
X2447Y459D02*
X2467D01*
X2450Y476*
X2447Y481*
X2450Y486*
X2455Y488*
X2462*
X2467Y486*
X2420Y473D02*
X2415D01*
X2410Y476*
X2408Y481*
X2410Y486*
X2415Y488*
X2420*
X2425Y486*
X2428Y481*
X2425Y476*
X2420Y473*
X2425Y471*
X2428Y466*
X2425Y461*
X2420Y459*
X2415*
X2410Y461*
X2408Y466*
X2410Y471*
X2415Y473*
X2388Y459D02*
X2364Y488D01*
X2346Y461D02*
X2342Y459D01*
X2337*
X2332Y461*
X2329Y466*
Y481*
X2332Y486*
X2337Y488*
X2342*
X2346Y486*
X2349Y481*
Y466*
X2346Y461*
X2332Y486*
X2302Y459D02*
X2297Y461D01*
X2292Y466*
X2290Y473*
Y481*
X2292Y486*
X2297Y488*
X2302*
X2307Y486*
X2310Y481*
X2307Y476*
X2302Y473*
X2297*
X2292Y476*
X2290Y481*
X2270Y459D02*
X2246Y488D01*
X2211Y459D02*
X2231D01*
X2214Y476*
X2211Y481*
X2214Y486*
X2219Y488*
X2226*
X2231Y486*
X2189Y461D02*
X2184Y459D01*
X2179*
X2174Y461*
X2172Y466*
Y481*
X2174Y486*
X2179Y488*
X2184*
X2189Y486*
X2191Y481*
Y466*
X2189Y461*
X2174Y486*
X2147Y459D02*
X2137D01*
X2142D02*
Y488D01*
X2147Y483*
X2093Y459D02*
X2113D01*
X2096Y476*
X2093Y481*
X2096Y486*
X2100Y488*
X2108*
X2113Y486*
D02*
D16*
X1353Y749D03*
Y839D03*
D02*
D19*
X162Y736D03*
Y1088D03*
X379Y739D03*
Y1088D03*
D02*
D25*
X121Y1299D03*
Y1384D03*
X447Y389D03*
Y474D03*
X916Y1086D03*
Y1171D03*
X1266Y1137D03*
Y1222D03*
X1408Y1165D03*
Y1250D03*
X1703Y850D03*
Y935D03*
D02*
D74*
X35Y232D02*
X47Y248D01*
X61Y262*
X78Y274*
X96Y284*
X115Y290*
X135Y294*
X155Y294*
X176Y292*
X195Y286*
X214Y277*
X231Y266*
X246Y252*
X259Y237*
X269Y219*
X276Y200*
X281Y180*
X283Y160*
X281Y141*
X277Y122*
X270Y104*
X261Y87*
X249Y71*
X235Y58*
X220Y46*
X2843*
X2827Y58*
X2813Y71*
X2802Y87*
X2792Y104*
X2785Y122*
X2781Y141*
X2780Y160*
X2781Y180*
X2786Y200*
X2793Y218*
X2803Y236*
X2816Y251*
X2831Y265*
X2847Y276*
X2865Y285*
X2885Y291*
X2905Y294*
X2925Y294*
X2945Y291*
X2964Y285*
X2982Y276*
X2998Y265*
X3013Y251*
X3026Y235*
Y1589*
X3013Y1573*
X2998Y1559*
X2982Y1548*
X2964Y1539*
X2945Y1533*
X2925Y1530*
X2905Y1530*
X2885Y1533*
X2865Y1539*
X2847Y1547*
X2831Y1559*
X2816Y1572*
X2803Y1588*
X2793Y1606*
X2786Y1624*
X2781Y1644*
X2780Y1664*
X2781Y1683*
X2785Y1702*
X2792Y1720*
X2802Y1737*
X2813Y1753*
X2827Y1766*
X2843Y1778*
X220*
X236Y1766*
X250Y1752*
X261Y1736*
X271Y1719*
X278Y1700*
X281Y1681*
X283Y1662*
X281Y1642*
X276Y1623*
X269Y1605*
X259Y1588*
X246Y1572*
X232Y1559*
X216Y1548*
X198Y1539*
X179Y1533*
X160Y1530*
X140Y1530*
X149Y1524*
X155Y1516*
X159Y1506*
X161Y1496*
X160Y1486*
X156Y1476*
X151Y1468*
X143Y1461*
Y1414*
X164*
Y1354*
X77*
Y1414*
X98*
Y1461*
X90Y1468*
X85Y1477*
X81Y1487*
X80Y1497*
X82Y1508*
X87Y1517*
X94Y1525*
X103Y1531*
X113Y1534*
X94Y1541*
X77Y1550*
X61Y1562*
X46Y1576*
X35Y1592*
Y232*
X78Y487D02*
X80Y498D01*
X84Y507*
X92Y516*
X101Y522*
X111Y525*
X122*
X133Y522*
X142Y516*
X149Y507*
X153Y498*
X155Y487*
X153Y476*
X149Y466*
X142Y458*
X133Y452*
X122Y449*
X111*
X101Y452*
X92Y458*
X84Y466*
X80Y476*
X78Y487*
X162Y1270D02*
X79D01*
Y1327*
X162*
Y1270*
X226Y1201D02*
X218Y1194D01*
X208Y1189*
X198Y1187*
X187Y1188*
X177Y1191*
X168Y1198*
X161Y1206*
X157Y1216*
X155Y1227*
X157Y1238*
X161Y1248*
X168Y1256*
X177Y1262*
X187Y1266*
X198Y1267*
X208Y1265*
X218Y1260*
X226Y1253*
X228*
Y1320*
X336*
Y1323*
X448*
Y1305*
X449*
X468Y1324*
X474Y1328*
X480Y1331*
X487Y1332*
X508*
X532Y1356*
X504Y1383*
Y1428*
X532Y1456*
X504Y1483*
Y1528*
X535Y1559*
X580*
X607Y1533*
X629*
X642Y1545*
Y1573*
X643Y1580*
X645Y1586*
X649Y1592*
X693Y1635*
X698Y1639*
X704Y1642*
X711Y1643*
X2467*
X2474Y1642*
X2480Y1639*
X2486Y1635*
X2527Y1594*
X2531Y1589*
X2534Y1583*
X2535Y1576*
X2549Y1562*
Y1557*
X2553Y1547*
X2554Y1536*
Y1477*
X2553Y1466*
X2549Y1456*
Y1451*
X2573Y1428*
X2770*
X2776Y1422*
X2782Y1421*
X2788Y1419*
X2793Y1415*
X2867Y1340*
X2872Y1334*
X2874Y1328*
X2875Y1321*
Y342*
X2874Y335*
X2872Y329*
X2867Y323*
X2666Y122*
X2660Y118*
X2654Y115*
X2647Y114*
X975*
X968Y115*
X962Y118*
X956Y122*
X889Y189*
X885Y195*
X882Y201*
X881Y208*
Y250*
X873Y257*
X867Y266*
X863Y276*
X862Y287*
Y346*
X863Y357*
X866Y366*
X872Y375*
X879Y382*
X888Y388*
Y408*
X880Y415*
X873Y423*
X869Y433*
X868Y443*
X869Y452*
X872Y461*
X738*
X706Y429*
Y357*
X705Y350*
X702Y344*
X698Y338*
X659Y299*
X653Y295*
X647Y292*
X640Y291*
X607*
X580Y264*
X535*
X504Y295*
Y340*
X532Y367*
X504Y395*
Y440*
X532Y467*
X504Y495*
Y540*
X535Y571*
X580*
X611Y540*
Y495*
X584Y467*
X611Y440*
Y395*
X584Y367*
X607Y344*
X629*
X654Y368*
Y440*
X654Y446*
X657Y453*
X661Y458*
X708Y505*
X714Y509*
X720Y512*
X727Y513*
X888*
Y534*
X1145*
Y568*
X1137Y560*
X1128Y554*
X1118Y551*
X1107Y551*
X1096Y554*
X1087Y560*
X1080Y569*
X1076Y578*
X1074Y589*
X1076Y600*
X1080Y610*
X1088Y618*
X1097Y624*
X1107Y627*
X1118*
X1129Y624*
X1138Y618*
X1145Y610*
X1150Y600*
X1151Y589*
X1151Y584*
X1201*
Y534*
X1228*
Y586*
X1237*
X1242Y592*
X1247Y597*
X1251Y600*
X1257Y603*
X1262Y603*
X1396*
X1395Y609*
X1397Y619*
X1401Y629*
X1407Y637*
X1415Y644*
X1425Y648*
X1436Y649*
X1446Y648*
X1456Y644*
X1464Y637*
X1470Y629*
X1474Y619*
X1476Y609*
X1475Y600*
X1472Y592*
X1468Y585*
Y534*
X1480*
Y584*
X1531*
Y617*
X1479*
Y716*
X1531*
Y854*
X1523Y862*
X1519Y854*
X1514Y847*
X1507Y841*
X1505Y836*
X1502Y831*
X1402Y732*
X1397Y728*
Y703*
X1323*
Y687*
X1263*
Y775*
X1309*
Y793*
Y795*
Y885*
X1341*
X1335Y893*
X1332Y902*
X1330Y912*
X1332Y923*
X1336Y932*
X1343Y940*
X1352Y946*
X1362Y950*
X1373Y950*
X1383Y948*
X1392Y942*
X1394Y949*
Y1022*
X1347*
Y1039*
X1316*
X1308Y1031*
X1299Y1025*
X1289Y1022*
X1278Y1021*
X1267Y1024*
X1258Y1030*
X1250Y1037*
X1244Y1047*
X1242Y1058*
X1191*
X1185Y1056*
X1180Y1055*
X719*
X712Y1056*
X706Y1059*
X701Y1063*
X657Y1106*
X653Y1111*
X650Y1118*
X650Y1125*
Y1148*
X640Y1143*
X630Y1141*
X620Y1142*
X610Y1146*
X602Y1152*
X596Y1160*
X592Y1169*
X590Y1180*
X591Y1187*
X593Y1194*
X597Y1201*
X226*
X227Y680D02*
X96D01*
Y791*
X227*
Y680*
Y1033D02*
X96D01*
Y1144*
X227*
Y1033*
X242Y823D02*
X244Y834D01*
X248Y844*
X255Y852*
X264Y858*
X275Y861*
X285*
X296Y858*
X305Y852*
X312Y844*
X317Y834*
X318Y823*
X317Y813*
X312Y803*
X305Y795*
X296Y789*
X285Y786*
X275*
X264Y789*
X255Y795*
X248Y803*
X244Y813*
X242Y823*
Y1001D02*
X244Y1011D01*
X248Y1021*
X255Y1029*
X264Y1035*
X275Y1038*
X285*
X296Y1035*
X305Y1029*
X312Y1021*
X317Y1011*
X318Y1001*
X317Y990*
X312Y980*
X305Y972*
X296Y966*
X285Y963*
X275*
X264Y966*
X255Y972*
X248Y980*
X244Y990*
X242Y1001*
X291Y428D02*
X292Y438D01*
X297Y448*
X304Y457*
X313Y463*
X324Y466*
X335*
X345Y463*
X354Y457*
X362Y448*
X366Y438*
X368Y428*
X366Y417*
X362Y407*
X354Y399*
X345Y393*
X335Y390*
X324*
X313Y393*
X304Y399*
X297Y407*
X293Y417*
X291Y428*
X312Y1442D02*
X304Y1437D01*
X294Y1434*
X285Y1433*
X275Y1434*
X266Y1438*
X258Y1444*
X253Y1452*
X249Y1461*
X248Y1471*
X249Y1481*
X253Y1490*
X258Y1498*
X266Y1504*
X275Y1508*
X285Y1509*
X294Y1508*
X304Y1505*
X312Y1500*
X319Y1505*
X328Y1508*
X337Y1509*
X346Y1508*
X355Y1505*
X363Y1500*
X371Y1505*
X380Y1508*
X390Y1509*
X399Y1508*
X408Y1504*
X416Y1498*
X422Y1490*
X425Y1481*
X427Y1471*
X425Y1461*
X422Y1452*
X416Y1444*
X408Y1438*
X399Y1434*
X390Y1433*
X380Y1434*
X371Y1437*
X363Y1442*
X355Y1437*
X346Y1434*
X337Y1433*
X328Y1434*
X319Y1437*
X312Y1442*
X429Y504D02*
Y559D01*
X422Y566*
X416Y574*
X412Y583*
X411Y593*
X412Y603*
X416Y613*
X423Y622*
X431Y628*
X441Y632*
X451Y633*
X462Y632*
X471Y628*
X480Y622*
X486Y613*
X490Y603*
X492Y593*
X490Y583*
X487Y574*
X481Y566*
X474Y559*
Y504*
X491*
Y444*
X404*
Y504*
X429*
X444Y683D02*
X313D01*
Y794*
X444*
Y683*
Y1033D02*
X313D01*
Y1144*
X444*
Y1033*
X489Y361D02*
X406D01*
Y417*
X489*
Y361*
X511Y786D02*
X513Y797D01*
X518Y807*
X525Y815*
X534Y821*
X544Y824*
X555*
X566Y821*
X575Y815*
X582Y807*
X587Y797*
X588Y786*
X587Y775*
X582Y765*
X575Y757*
X566Y751*
X555Y748*
X544*
X534Y751*
X525Y757*
X518Y765*
X513Y775*
X511Y786*
X764Y287D02*
Y346D01*
X765Y358*
X770Y368*
X777Y377*
X786Y384*
X796Y389*
X808Y390*
X819Y389*
X830Y384*
X839Y377*
X846Y368*
X850Y358*
X851Y346*
Y287*
X850Y276*
X846Y265*
X839Y256*
X830Y249*
X819Y245*
X808Y243*
X796Y245*
X786Y249*
X777Y256*
X770Y265*
X765Y276*
X764Y287*
X883Y881D02*
X874Y876D01*
X865Y872*
X854Y872*
X845Y874*
X835Y878*
X828Y884*
X822Y892*
X818Y902*
X817Y912*
X818Y922*
X822Y931*
X828Y940*
X835Y946*
X845Y950*
X854Y952*
X865Y951*
X874Y948*
X883Y943*
Y956*
X943*
Y868*
X883*
Y881*
X1026Y954D02*
Y870D01*
X970*
Y954*
X1026*
X1042Y870D02*
Y954D01*
X1098*
Y870*
X1042*
X1074Y731D02*
X1076Y742D01*
X1080Y752*
X1088Y760*
X1097Y766*
X1107Y769*
X1118*
X1129Y766*
X1138Y760*
X1145Y752*
X1150Y742*
X1151Y731*
X1150Y720*
X1145Y710*
X1138Y702*
X1129Y696*
X1118Y693*
X1107*
X1097Y696*
X1088Y702*
X1080Y710*
X1076Y720*
X1074Y731*
X1180Y689D02*
Y773D01*
X1236*
Y689*
X1180*
X1185Y881D02*
Y868D01*
X1125*
Y956*
X1185*
Y943*
X1194Y948*
X1203Y951*
X1214Y952*
X1223Y950*
X1233Y946*
X1240Y940*
X1246Y931*
X1250Y922*
X1251Y912*
X1250Y902*
X1246Y892*
X1240Y884*
X1233Y878*
X1223Y874*
X1214Y872*
X1203Y872*
X1194Y876*
X1185Y881*
X2652Y1536D02*
Y1477D01*
X2651Y1466*
X2646Y1455*
X2639Y1446*
X2630Y1439*
X2620Y1435*
X2608Y1433*
X2597Y1435*
X2586Y1439*
X2577Y1446*
X2570Y1455*
X2566Y1466*
X2565Y1477*
Y1536*
X2566Y1547*
X2570Y1558*
X2577Y1567*
X2586Y1574*
X2597Y1578*
X2608Y1580*
X2620Y1578*
X2630Y1574*
X2639Y1567*
X2646Y1558*
X2651Y1547*
X2652Y1536*
X224Y49D02*
X2839D01*
X228Y52D02*
X2835D01*
X232Y55D02*
X2831D01*
X235Y58D02*
X2827D01*
X239Y61D02*
X2824D01*
X242Y64D02*
X2821D01*
X245Y67D02*
X2818D01*
X248Y70D02*
X2815D01*
X250Y73D02*
X2812D01*
X253Y76D02*
X2810D01*
X255Y79D02*
X2807D01*
X257Y82D02*
X2805D01*
X260Y85D02*
X2803D01*
X261Y88D02*
X2801D01*
X263Y91D02*
X2799D01*
X265Y94D02*
X2797D01*
X267Y97D02*
X2796D01*
X268Y100D02*
X2794D01*
X270Y103D02*
X2793D01*
X271Y106D02*
X2791D01*
X272Y109D02*
X2790D01*
X274Y112D02*
X2789D01*
X275Y115D02*
X970D01*
X2653D02*
X2788D01*
X276Y118D02*
X962D01*
X2661D02*
X2787D01*
X277Y121D02*
X958D01*
X2665D02*
X2786D01*
X278Y124D02*
X955D01*
X2668D02*
X2785D01*
X278Y127D02*
X952D01*
X2671D02*
X2784D01*
X279Y130D02*
X949D01*
X2674D02*
X2783D01*
X280Y133D02*
X946D01*
X2677D02*
X2783D01*
X280Y136D02*
X943D01*
X2680D02*
X2782D01*
X281Y139D02*
X940D01*
X2683D02*
X2782D01*
X281Y142D02*
X937D01*
X2686D02*
X2781D01*
X282Y145D02*
X934D01*
X2689D02*
X2781D01*
X282Y148D02*
X931D01*
X2692D02*
X2780D01*
X282Y151D02*
X928D01*
X2695D02*
X2780D01*
X282Y154D02*
X925D01*
X2698D02*
X2780D01*
X283Y157D02*
X922D01*
X2701D02*
X2780D01*
X283Y160D02*
X919D01*
X2704D02*
X2780D01*
X283Y163D02*
X916D01*
X2707D02*
X2780D01*
X282Y166D02*
X913D01*
X2710D02*
X2780D01*
X282Y169D02*
X910D01*
X2713D02*
X2780D01*
X282Y172D02*
X907D01*
X2716D02*
X2780D01*
X282Y175D02*
X904D01*
X2719D02*
X2781D01*
X281Y178D02*
X901D01*
X2722D02*
X2781D01*
X281Y181D02*
X898D01*
X2725D02*
X2782D01*
X280Y184D02*
X895D01*
X2728D02*
X2782D01*
X280Y187D02*
X892D01*
X2731D02*
X2783D01*
X279Y190D02*
X889D01*
X2734D02*
X2783D01*
X279Y193D02*
X886D01*
X2737D02*
X2784D01*
X278Y196D02*
X884D01*
X2740D02*
X2785D01*
X277Y199D02*
X883D01*
X2743D02*
X2786D01*
X276Y202D02*
X882D01*
X2746D02*
X2787D01*
X275Y205D02*
X882D01*
X2749D02*
X2788D01*
X274Y208D02*
X881D01*
X2752D02*
X2789D01*
X273Y211D02*
X881D01*
X2755D02*
X2790D01*
X271Y214D02*
X881D01*
X2758D02*
X2791D01*
X270Y217D02*
X881D01*
X2761D02*
X2792D01*
X269Y220D02*
X881D01*
X2764D02*
X2794D01*
X267Y223D02*
X881D01*
X2767D02*
X2795D01*
X265Y226D02*
X881D01*
X2770D02*
X2797D01*
X264Y229D02*
X881D01*
X2773D02*
X2799D01*
X262Y232D02*
X881D01*
X2776D02*
X2801D01*
X35Y235D02*
X36D01*
X260D02*
X881D01*
X2779D02*
X2803D01*
X35Y238D02*
X39D01*
X258D02*
X881D01*
X2782D02*
X2805D01*
X3024D02*
X3026D01*
X35Y241D02*
X41D01*
X256D02*
X881D01*
X2785D02*
X2807D01*
X3022D02*
X3026D01*
X35Y244D02*
X43D01*
X253D02*
X802D01*
X814D02*
X881D01*
X2788D02*
X2809D01*
X3019D02*
X3026D01*
X35Y247D02*
X46D01*
X251D02*
X791D01*
X825D02*
X881D01*
X2791D02*
X2812D01*
X3017D02*
X3026D01*
X35Y250D02*
X48D01*
X248D02*
X785D01*
X830D02*
X881D01*
X2794D02*
X2814D01*
X3014D02*
X3026D01*
X35Y253D02*
X51D01*
X245D02*
X780D01*
X835D02*
X877D01*
X2797D02*
X2817D01*
X3012D02*
X3026D01*
X35Y256D02*
X54D01*
X242D02*
X777D01*
X838D02*
X874D01*
X2800D02*
X2820D01*
X3009D02*
X3026D01*
X35Y259D02*
X57D01*
X239D02*
X774D01*
X841D02*
X872D01*
X2803D02*
X2823D01*
X3005D02*
X3026D01*
X35Y262D02*
X60D01*
X236D02*
X772D01*
X843D02*
X870D01*
X2806D02*
X2827D01*
X3002D02*
X3026D01*
X35Y265D02*
X64D01*
X232D02*
X534D01*
X581D02*
X770D01*
X845D02*
X868D01*
X2809D02*
X2830D01*
X2999D02*
X3026D01*
X35Y268D02*
X68D01*
X229D02*
X531D01*
X584D02*
X768D01*
X847D02*
X866D01*
X2812D02*
X2834D01*
X2995D02*
X3026D01*
X35Y271D02*
X72D01*
X224D02*
X528D01*
X587D02*
X767D01*
X848D02*
X865D01*
X2815D02*
X2838D01*
X2990D02*
X3026D01*
X35Y274D02*
X77D01*
X220D02*
X525D01*
X590D02*
X766D01*
X849D02*
X864D01*
X2818D02*
X2843D01*
X2986D02*
X3026D01*
X35Y277D02*
X82D01*
X215D02*
X522D01*
X593D02*
X765D01*
X850D02*
X863D01*
X2821D02*
X2848D01*
X2981D02*
X3026D01*
X35Y280D02*
X87D01*
X209D02*
X519D01*
X596D02*
X764D01*
X851D02*
X862D01*
X2824D02*
X2853D01*
X2975D02*
X3026D01*
X35Y283D02*
X93D01*
X203D02*
X516D01*
X599D02*
X764D01*
X851D02*
X862D01*
X2827D02*
X2860D01*
X2969D02*
X3026D01*
X35Y286D02*
X101D01*
X196D02*
X513D01*
X602D02*
X764D01*
X851D02*
X862D01*
X2830D02*
X2867D01*
X2962D02*
X3026D01*
X35Y289D02*
X110D01*
X187D02*
X510D01*
X605D02*
X764D01*
X851D02*
X862D01*
X2833D02*
X2876D01*
X2953D02*
X3026D01*
X35Y292D02*
X122D01*
X175D02*
X507D01*
X645D02*
X764D01*
X851D02*
X862D01*
X2836D02*
X2888D01*
X2941D02*
X3026D01*
X35Y295D02*
X504D01*
X653D02*
X764D01*
X851D02*
X862D01*
X2839D02*
X3026D01*
X35Y298D02*
X504D01*
X657D02*
X764D01*
X851D02*
X862D01*
X2842D02*
X3026D01*
X35Y301D02*
X504D01*
X660D02*
X764D01*
X851D02*
X862D01*
X2845D02*
X3026D01*
X35Y304D02*
X504D01*
X663D02*
X764D01*
X851D02*
X862D01*
X2848D02*
X3026D01*
X35Y307D02*
X504D01*
X666D02*
X764D01*
X851D02*
X862D01*
X2851D02*
X3026D01*
X35Y310D02*
X504D01*
X669D02*
X764D01*
X851D02*
X862D01*
X2854D02*
X3026D01*
X35Y313D02*
X504D01*
X672D02*
X764D01*
X851D02*
X862D01*
X2857D02*
X3026D01*
X35Y316D02*
X504D01*
X675D02*
X764D01*
X851D02*
X862D01*
X2860D02*
X3026D01*
X35Y319D02*
X504D01*
X678D02*
X764D01*
X851D02*
X862D01*
X2863D02*
X3026D01*
X35Y322D02*
X504D01*
X681D02*
X764D01*
X851D02*
X862D01*
X2866D02*
X3026D01*
X35Y325D02*
X504D01*
X684D02*
X764D01*
X851D02*
X862D01*
X2869D02*
X3026D01*
X35Y328D02*
X504D01*
X687D02*
X764D01*
X851D02*
X862D01*
X2871D02*
X3026D01*
X35Y331D02*
X504D01*
X690D02*
X764D01*
X851D02*
X862D01*
X2873D02*
X3026D01*
X35Y334D02*
X504D01*
X693D02*
X764D01*
X851D02*
X862D01*
X2874D02*
X3026D01*
X35Y337D02*
X504D01*
X696D02*
X764D01*
X851D02*
X862D01*
X2875D02*
X3026D01*
X35Y340D02*
X504D01*
X699D02*
X764D01*
X851D02*
X862D01*
X2875D02*
X3026D01*
X35Y343D02*
X507D01*
X702D02*
X764D01*
X851D02*
X862D01*
X2875D02*
X3026D01*
X35Y346D02*
X510D01*
X605D02*
X632D01*
X703D02*
X764D01*
X851D02*
X862D01*
X2875D02*
X3026D01*
X35Y349D02*
X513D01*
X602D02*
X635D01*
X704D02*
X764D01*
X851D02*
X862D01*
X2875D02*
X3026D01*
X35Y352D02*
X516D01*
X599D02*
X638D01*
X705D02*
X764D01*
X851D02*
X862D01*
X2875D02*
X3026D01*
X35Y355D02*
X519D01*
X596D02*
X641D01*
X706D02*
X765D01*
X851D02*
X863D01*
X2875D02*
X3026D01*
X35Y358D02*
X522D01*
X593D02*
X644D01*
X706D02*
X765D01*
X850D02*
X863D01*
X2875D02*
X3026D01*
X35Y361D02*
X525D01*
X590D02*
X647D01*
X706D02*
X766D01*
X849D02*
X864D01*
X2875D02*
X3026D01*
X35Y364D02*
X406D01*
X489D02*
X528D01*
X587D02*
X650D01*
X706D02*
X767D01*
X848D02*
X865D01*
X2875D02*
X3026D01*
X35Y367D02*
X406D01*
X489D02*
X531D01*
X584D02*
X653D01*
X706D02*
X769D01*
X846D02*
X867D01*
X2875D02*
X3026D01*
X35Y370D02*
X406D01*
X489D02*
X529D01*
X586D02*
X654D01*
X706D02*
X771D01*
X845D02*
X868D01*
X2875D02*
X3026D01*
X35Y373D02*
X406D01*
X489D02*
X526D01*
X589D02*
X654D01*
X706D02*
X773D01*
X843D02*
X870D01*
X2875D02*
X3026D01*
X35Y376D02*
X406D01*
X489D02*
X523D01*
X592D02*
X654D01*
X706D02*
X775D01*
X840D02*
X873D01*
X2875D02*
X3026D01*
X35Y379D02*
X406D01*
X489D02*
X520D01*
X595D02*
X654D01*
X706D02*
X778D01*
X837D02*
X875D01*
X2875D02*
X3026D01*
X35Y382D02*
X406D01*
X489D02*
X517D01*
X598D02*
X654D01*
X706D02*
X782D01*
X833D02*
X879D01*
X2875D02*
X3026D01*
X35Y385D02*
X406D01*
X489D02*
X514D01*
X601D02*
X654D01*
X706D02*
X787D01*
X829D02*
X883D01*
X2875D02*
X3026D01*
X35Y388D02*
X406D01*
X489D02*
X511D01*
X604D02*
X654D01*
X706D02*
X794D01*
X822D02*
X888D01*
X2875D02*
X3026D01*
X35Y391D02*
X319D01*
X339D02*
X406D01*
X489D02*
X508D01*
X607D02*
X654D01*
X706D02*
X888D01*
X2875D02*
X3026D01*
X35Y394D02*
X312D01*
X347D02*
X406D01*
X489D02*
X505D01*
X610D02*
X654D01*
X706D02*
X888D01*
X2875D02*
X3026D01*
X35Y397D02*
X307D01*
X352D02*
X406D01*
X489D02*
X504D01*
X611D02*
X654D01*
X706D02*
X888D01*
X2875D02*
X3026D01*
X35Y400D02*
X303D01*
X355D02*
X406D01*
X489D02*
X504D01*
X611D02*
X654D01*
X706D02*
X888D01*
X2875D02*
X3026D01*
X35Y403D02*
X300D01*
X358D02*
X406D01*
X489D02*
X504D01*
X611D02*
X654D01*
X706D02*
X888D01*
X2875D02*
X3026D01*
X35Y406D02*
X298D01*
X361D02*
X406D01*
X489D02*
X504D01*
X611D02*
X654D01*
X706D02*
X888D01*
X2875D02*
X3026D01*
X35Y409D02*
X296D01*
X363D02*
X406D01*
X489D02*
X504D01*
X611D02*
X654D01*
X706D02*
X888D01*
X2875D02*
X3026D01*
X35Y412D02*
X294D01*
X364D02*
X406D01*
X489D02*
X504D01*
X611D02*
X654D01*
X706D02*
X883D01*
X2875D02*
X3026D01*
X35Y415D02*
X293D01*
X365D02*
X406D01*
X489D02*
X504D01*
X611D02*
X654D01*
X706D02*
X880D01*
X2875D02*
X3026D01*
X35Y418D02*
X292D01*
X366D02*
X504D01*
X611D02*
X654D01*
X706D02*
X877D01*
X2875D02*
X3026D01*
X35Y421D02*
X292D01*
X367D02*
X504D01*
X611D02*
X654D01*
X706D02*
X875D01*
X2875D02*
X3026D01*
X35Y424D02*
X291D01*
X367D02*
X504D01*
X611D02*
X654D01*
X706D02*
X873D01*
X2875D02*
X3026D01*
X35Y427D02*
X291D01*
X368D02*
X504D01*
X611D02*
X654D01*
X706D02*
X871D01*
X2875D02*
X3026D01*
X35Y430D02*
X291D01*
X368D02*
X504D01*
X611D02*
X654D01*
X707D02*
X870D01*
X2875D02*
X3026D01*
X35Y433D02*
X291D01*
X367D02*
X504D01*
X611D02*
X654D01*
X710D02*
X869D01*
X2875D02*
X3026D01*
X35Y436D02*
X292D01*
X367D02*
X504D01*
X611D02*
X654D01*
X713D02*
X868D01*
X2875D02*
X3026D01*
X35Y439D02*
X293D01*
X366D02*
X504D01*
X611D02*
X654D01*
X716D02*
X868D01*
X2875D02*
X3026D01*
X35Y442D02*
X294D01*
X365D02*
X506D01*
X609D02*
X654D01*
X719D02*
X868D01*
X2875D02*
X3026D01*
X35Y445D02*
X295D01*
X364D02*
X404D01*
X491D02*
X509D01*
X606D02*
X654D01*
X722D02*
X868D01*
X2875D02*
X3026D01*
X35Y448D02*
X297D01*
X362D02*
X404D01*
X491D02*
X512D01*
X603D02*
X655D01*
X725D02*
X868D01*
X2875D02*
X3026D01*
X35Y451D02*
X104D01*
X130D02*
X299D01*
X360D02*
X404D01*
X491D02*
X515D01*
X600D02*
X656D01*
X728D02*
X868D01*
X2875D02*
X3026D01*
X35Y454D02*
X97D01*
X136D02*
X301D01*
X357D02*
X404D01*
X491D02*
X518D01*
X597D02*
X658D01*
X731D02*
X869D01*
X2875D02*
X3026D01*
X35Y457D02*
X93D01*
X140D02*
X304D01*
X354D02*
X404D01*
X491D02*
X521D01*
X594D02*
X660D01*
X734D02*
X870D01*
X2875D02*
X3026D01*
X35Y460D02*
X90D01*
X144D02*
X308D01*
X350D02*
X404D01*
X491D02*
X524D01*
X591D02*
X663D01*
X737D02*
X871D01*
X2875D02*
X3026D01*
X35Y463D02*
X87D01*
X147D02*
X314D01*
X345D02*
X404D01*
X491D02*
X527D01*
X588D02*
X666D01*
X2875D02*
X3026D01*
X35Y466D02*
X85D01*
X149D02*
X324D01*
X334D02*
X404D01*
X491D02*
X530D01*
X585D02*
X669D01*
X2875D02*
X3026D01*
X35Y469D02*
X83D01*
X150D02*
X404D01*
X491D02*
X530D01*
X585D02*
X672D01*
X2875D02*
X3026D01*
X35Y472D02*
X81D01*
X152D02*
X404D01*
X491D02*
X527D01*
X588D02*
X675D01*
X2875D02*
X3026D01*
X35Y475D02*
X80D01*
X153D02*
X404D01*
X491D02*
X524D01*
X591D02*
X678D01*
X2875D02*
X3026D01*
X35Y478D02*
X79D01*
X154D02*
X404D01*
X491D02*
X521D01*
X594D02*
X681D01*
X2875D02*
X3026D01*
X35Y481D02*
X79D01*
X155D02*
X404D01*
X491D02*
X518D01*
X597D02*
X684D01*
X2875D02*
X3026D01*
X35Y484D02*
X78D01*
X155D02*
X404D01*
X491D02*
X515D01*
X600D02*
X687D01*
X2875D02*
X3026D01*
X35Y487D02*
X78D01*
X155D02*
X404D01*
X491D02*
X512D01*
X603D02*
X690D01*
X2875D02*
X3026D01*
X35Y490D02*
X78D01*
X155D02*
X404D01*
X491D02*
X509D01*
X606D02*
X693D01*
X2875D02*
X3026D01*
X35Y493D02*
X79D01*
X155D02*
X404D01*
X491D02*
X506D01*
X609D02*
X696D01*
X2875D02*
X3026D01*
X35Y496D02*
X79D01*
X154D02*
X404D01*
X491D02*
X504D01*
X611D02*
X699D01*
X2875D02*
X3026D01*
X35Y499D02*
X80D01*
X153D02*
X404D01*
X491D02*
X504D01*
X611D02*
X702D01*
X2875D02*
X3026D01*
X35Y502D02*
X81D01*
X152D02*
X404D01*
X491D02*
X504D01*
X611D02*
X705D01*
X2875D02*
X3026D01*
X35Y505D02*
X83D01*
X151D02*
X429D01*
X474D02*
X504D01*
X611D02*
X708D01*
X2875D02*
X3026D01*
X35Y508D02*
X85D01*
X149D02*
X429D01*
X474D02*
X504D01*
X611D02*
X711D01*
X2875D02*
X3026D01*
X35Y511D02*
X87D01*
X147D02*
X429D01*
X474D02*
X504D01*
X611D02*
X717D01*
X2875D02*
X3026D01*
X35Y514D02*
X89D01*
X144D02*
X429D01*
X474D02*
X504D01*
X611D02*
X888D01*
X2875D02*
X3026D01*
X35Y517D02*
X93D01*
X141D02*
X429D01*
X474D02*
X504D01*
X611D02*
X888D01*
X2875D02*
X3026D01*
X35Y520D02*
X97D01*
X136D02*
X429D01*
X474D02*
X504D01*
X611D02*
X888D01*
X2875D02*
X3026D01*
X35Y523D02*
X103D01*
X130D02*
X429D01*
X474D02*
X504D01*
X611D02*
X888D01*
X2875D02*
X3026D01*
X35Y526D02*
X429D01*
X474D02*
X504D01*
X611D02*
X888D01*
X2875D02*
X3026D01*
X35Y529D02*
X429D01*
X474D02*
X504D01*
X611D02*
X888D01*
X2875D02*
X3026D01*
X35Y532D02*
X429D01*
X474D02*
X504D01*
X611D02*
X888D01*
X2875D02*
X3026D01*
X35Y535D02*
X429D01*
X474D02*
X504D01*
X611D02*
X1145D01*
X1201D02*
X1228D01*
X1468D02*
X1480D01*
X2875D02*
X3026D01*
X35Y538D02*
X429D01*
X474D02*
X504D01*
X611D02*
X1145D01*
X1201D02*
X1228D01*
X1468D02*
X1480D01*
X2875D02*
X3026D01*
X35Y541D02*
X429D01*
X474D02*
X505D01*
X610D02*
X1145D01*
X1201D02*
X1228D01*
X1468D02*
X1480D01*
X2875D02*
X3026D01*
X35Y544D02*
X429D01*
X474D02*
X508D01*
X607D02*
X1145D01*
X1201D02*
X1228D01*
X1468D02*
X1480D01*
X2875D02*
X3026D01*
X35Y547D02*
X429D01*
X474D02*
X511D01*
X604D02*
X1145D01*
X1201D02*
X1228D01*
X1468D02*
X1480D01*
X2875D02*
X3026D01*
X35Y550D02*
X429D01*
X474D02*
X514D01*
X601D02*
X1145D01*
X1201D02*
X1228D01*
X1468D02*
X1480D01*
X2875D02*
X3026D01*
X35Y553D02*
X429D01*
X474D02*
X517D01*
X598D02*
X1101D01*
X1125D02*
X1145D01*
X1201D02*
X1228D01*
X1468D02*
X1480D01*
X2875D02*
X3026D01*
X35Y556D02*
X429D01*
X474D02*
X520D01*
X595D02*
X1094D01*
X1132D02*
X1145D01*
X1201D02*
X1228D01*
X1468D02*
X1480D01*
X2875D02*
X3026D01*
X35Y559D02*
X429D01*
X474D02*
X523D01*
X592D02*
X1089D01*
X1136D02*
X1145D01*
X1201D02*
X1228D01*
X1468D02*
X1480D01*
X2875D02*
X3026D01*
X35Y562D02*
X426D01*
X477D02*
X526D01*
X589D02*
X1086D01*
X1140D02*
X1145D01*
X1201D02*
X1228D01*
X1468D02*
X1480D01*
X2875D02*
X3026D01*
X35Y565D02*
X423D01*
X480D02*
X529D01*
X586D02*
X1083D01*
X1142D02*
X1145D01*
X1201D02*
X1228D01*
X1468D02*
X1480D01*
X2875D02*
X3026D01*
X35Y568D02*
X420D01*
X483D02*
X532D01*
X583D02*
X1081D01*
X1201D02*
X1228D01*
X1468D02*
X1480D01*
X2875D02*
X3026D01*
X35Y571D02*
X418D01*
X485D02*
X535D01*
X580D02*
X1079D01*
X1201D02*
X1228D01*
X1468D02*
X1480D01*
X2875D02*
X3026D01*
X35Y574D02*
X416D01*
X487D02*
X1078D01*
X1201D02*
X1228D01*
X1468D02*
X1480D01*
X2875D02*
X3026D01*
X35Y577D02*
X414D01*
X488D02*
X1076D01*
X1201D02*
X1228D01*
X1468D02*
X1480D01*
X2875D02*
X3026D01*
X35Y580D02*
X413D01*
X489D02*
X1076D01*
X1201D02*
X1228D01*
X1468D02*
X1480D01*
X2875D02*
X3026D01*
X35Y583D02*
X412D01*
X490D02*
X1075D01*
X1201D02*
X1228D01*
X1468D02*
X1480D01*
X2875D02*
X3026D01*
X35Y586D02*
X412D01*
X491D02*
X1075D01*
X1151D02*
X1237D01*
X1469D02*
X1531D01*
X2875D02*
X3026D01*
X35Y589D02*
X411D01*
X491D02*
X1074D01*
X1151D02*
X1239D01*
X1471D02*
X1531D01*
X2875D02*
X3026D01*
X35Y592D02*
X411D01*
X492D02*
X1074D01*
X1151D02*
X1241D01*
X1472D02*
X1531D01*
X2875D02*
X3026D01*
X35Y595D02*
X411D01*
X492D02*
X1075D01*
X1151D02*
X1244D01*
X1473D02*
X1531D01*
X2875D02*
X3026D01*
X35Y598D02*
X411D01*
X491D02*
X1075D01*
X1150D02*
X1247D01*
X1474D02*
X1531D01*
X2875D02*
X3026D01*
X35Y601D02*
X412D01*
X491D02*
X1076D01*
X1149D02*
X1252D01*
X1475D02*
X1531D01*
X2875D02*
X3026D01*
X35Y604D02*
X412D01*
X490D02*
X1077D01*
X1148D02*
X1396D01*
X1476D02*
X1531D01*
X2875D02*
X3026D01*
X35Y607D02*
X413D01*
X489D02*
X1079D01*
X1147D02*
X1395D01*
X1476D02*
X1531D01*
X2875D02*
X3026D01*
X35Y610D02*
X415D01*
X488D02*
X1080D01*
X1145D02*
X1395D01*
X1476D02*
X1531D01*
X2875D02*
X3026D01*
X35Y613D02*
X416D01*
X486D02*
X1083D01*
X1143D02*
X1395D01*
X1476D02*
X1531D01*
X2875D02*
X3026D01*
X35Y616D02*
X418D01*
X485D02*
X1085D01*
X1140D02*
X1396D01*
X1475D02*
X1531D01*
X2875D02*
X3026D01*
X35Y619D02*
X420D01*
X482D02*
X1088D01*
X1137D02*
X1397D01*
X1475D02*
X1479D01*
X2875D02*
X3026D01*
X35Y622D02*
X423D01*
X480D02*
X1093D01*
X1133D02*
X1397D01*
X1474D02*
X1479D01*
X2875D02*
X3026D01*
X35Y625D02*
X426D01*
X476D02*
X1099D01*
X1127D02*
X1399D01*
X1473D02*
X1479D01*
X2875D02*
X3026D01*
X35Y628D02*
X431D01*
X472D02*
X1400D01*
X1471D02*
X1479D01*
X2875D02*
X3026D01*
X35Y631D02*
X437D01*
X466D02*
X1402D01*
X1469D02*
X1479D01*
X2875D02*
X3026D01*
X35Y634D02*
X1404D01*
X1467D02*
X1479D01*
X2875D02*
X3026D01*
X35Y637D02*
X1407D01*
X1465D02*
X1479D01*
X2875D02*
X3026D01*
X35Y640D02*
X1410D01*
X1461D02*
X1479D01*
X2875D02*
X3026D01*
X35Y643D02*
X1414D01*
X1457D02*
X1479D01*
X2875D02*
X3026D01*
X35Y646D02*
X1419D01*
X1452D02*
X1479D01*
X2875D02*
X3026D01*
X35Y649D02*
X1430D01*
X1441D02*
X1479D01*
X2875D02*
X3026D01*
X35Y652D02*
X1479D01*
X2875D02*
X3026D01*
X35Y655D02*
X1479D01*
X2875D02*
X3026D01*
X35Y658D02*
X1479D01*
X2875D02*
X3026D01*
X35Y661D02*
X1479D01*
X2875D02*
X3026D01*
X35Y664D02*
X1479D01*
X2875D02*
X3026D01*
X35Y667D02*
X1479D01*
X2875D02*
X3026D01*
X35Y670D02*
X1479D01*
X2875D02*
X3026D01*
X35Y673D02*
X1479D01*
X2875D02*
X3026D01*
X35Y676D02*
X1479D01*
X2875D02*
X3026D01*
X35Y679D02*
X1479D01*
X2875D02*
X3026D01*
X35Y682D02*
X96D01*
X227D02*
X1479D01*
X2875D02*
X3026D01*
X35Y685D02*
X96D01*
X227D02*
X313D01*
X444D02*
X1479D01*
X2875D02*
X3026D01*
X35Y688D02*
X96D01*
X227D02*
X313D01*
X444D02*
X1263D01*
X1323D02*
X1479D01*
X2875D02*
X3026D01*
X35Y691D02*
X96D01*
X227D02*
X313D01*
X444D02*
X1180D01*
X1236D02*
X1263D01*
X1323D02*
X1479D01*
X2875D02*
X3026D01*
X35Y694D02*
X96D01*
X227D02*
X313D01*
X444D02*
X1103D01*
X1122D02*
X1180D01*
X1236D02*
X1263D01*
X1323D02*
X1479D01*
X2875D02*
X3026D01*
X35Y697D02*
X96D01*
X227D02*
X313D01*
X444D02*
X1095D01*
X1130D02*
X1180D01*
X1236D02*
X1263D01*
X1323D02*
X1479D01*
X2875D02*
X3026D01*
X35Y700D02*
X96D01*
X227D02*
X313D01*
X444D02*
X1090D01*
X1135D02*
X1180D01*
X1236D02*
X1263D01*
X1323D02*
X1479D01*
X2875D02*
X3026D01*
X35Y703D02*
X96D01*
X227D02*
X313D01*
X444D02*
X1087D01*
X1139D02*
X1180D01*
X1236D02*
X1263D01*
X1397D02*
X1479D01*
X2875D02*
X3026D01*
X35Y706D02*
X96D01*
X227D02*
X313D01*
X444D02*
X1084D01*
X1142D02*
X1180D01*
X1236D02*
X1263D01*
X1397D02*
X1479D01*
X2875D02*
X3026D01*
X35Y709D02*
X96D01*
X227D02*
X313D01*
X444D02*
X1081D01*
X1144D02*
X1180D01*
X1236D02*
X1263D01*
X1397D02*
X1479D01*
X2875D02*
X3026D01*
X35Y712D02*
X96D01*
X227D02*
X313D01*
X444D02*
X1080D01*
X1146D02*
X1180D01*
X1236D02*
X1263D01*
X1397D02*
X1479D01*
X2875D02*
X3026D01*
X35Y715D02*
X96D01*
X227D02*
X313D01*
X444D02*
X1078D01*
X1148D02*
X1180D01*
X1236D02*
X1263D01*
X1397D02*
X1479D01*
X2875D02*
X3026D01*
X35Y718D02*
X96D01*
X227D02*
X313D01*
X444D02*
X1077D01*
X1149D02*
X1180D01*
X1236D02*
X1263D01*
X1397D02*
X1531D01*
X2875D02*
X3026D01*
X35Y721D02*
X96D01*
X227D02*
X313D01*
X444D02*
X1076D01*
X1150D02*
X1180D01*
X1236D02*
X1263D01*
X1397D02*
X1531D01*
X2875D02*
X3026D01*
X35Y724D02*
X96D01*
X227D02*
X313D01*
X444D02*
X1075D01*
X1150D02*
X1180D01*
X1236D02*
X1263D01*
X1397D02*
X1531D01*
X2875D02*
X3026D01*
X35Y727D02*
X96D01*
X227D02*
X313D01*
X444D02*
X1075D01*
X1151D02*
X1180D01*
X1236D02*
X1263D01*
X1397D02*
X1531D01*
X2875D02*
X3026D01*
X35Y730D02*
X96D01*
X227D02*
X313D01*
X444D02*
X1074D01*
X1151D02*
X1180D01*
X1236D02*
X1263D01*
X1399D02*
X1531D01*
X2875D02*
X3026D01*
X35Y733D02*
X96D01*
X227D02*
X313D01*
X444D02*
X1074D01*
X1151D02*
X1180D01*
X1236D02*
X1263D01*
X1403D02*
X1531D01*
X2875D02*
X3026D01*
X35Y736D02*
X96D01*
X227D02*
X313D01*
X444D02*
X1075D01*
X1151D02*
X1180D01*
X1236D02*
X1263D01*
X1406D02*
X1531D01*
X2875D02*
X3026D01*
X35Y739D02*
X96D01*
X227D02*
X313D01*
X444D02*
X1075D01*
X1150D02*
X1180D01*
X1236D02*
X1263D01*
X1409D02*
X1531D01*
X2875D02*
X3026D01*
X35Y742D02*
X96D01*
X227D02*
X313D01*
X444D02*
X1076D01*
X1149D02*
X1180D01*
X1236D02*
X1263D01*
X1412D02*
X1531D01*
X2875D02*
X3026D01*
X35Y745D02*
X96D01*
X227D02*
X313D01*
X444D02*
X1077D01*
X1148D02*
X1180D01*
X1236D02*
X1263D01*
X1415D02*
X1531D01*
X2875D02*
X3026D01*
X35Y748D02*
X96D01*
X227D02*
X313D01*
X444D02*
X547D01*
X552D02*
X1078D01*
X1147D02*
X1180D01*
X1236D02*
X1263D01*
X1418D02*
X1531D01*
X2875D02*
X3026D01*
X35Y751D02*
X96D01*
X227D02*
X313D01*
X444D02*
X535D01*
X565D02*
X1080D01*
X1146D02*
X1180D01*
X1236D02*
X1263D01*
X1421D02*
X1531D01*
X2875D02*
X3026D01*
X35Y754D02*
X96D01*
X227D02*
X313D01*
X444D02*
X529D01*
X570D02*
X1082D01*
X1143D02*
X1180D01*
X1236D02*
X1263D01*
X1424D02*
X1531D01*
X2875D02*
X3026D01*
X35Y757D02*
X96D01*
X227D02*
X313D01*
X444D02*
X525D01*
X575D02*
X1084D01*
X1141D02*
X1180D01*
X1236D02*
X1263D01*
X1427D02*
X1531D01*
X2875D02*
X3026D01*
X35Y760D02*
X96D01*
X227D02*
X313D01*
X444D02*
X522D01*
X578D02*
X1088D01*
X1138D02*
X1180D01*
X1236D02*
X1263D01*
X1430D02*
X1531D01*
X2875D02*
X3026D01*
X35Y763D02*
X96D01*
X227D02*
X313D01*
X444D02*
X519D01*
X580D02*
X1091D01*
X1134D02*
X1180D01*
X1236D02*
X1263D01*
X1433D02*
X1531D01*
X2875D02*
X3026D01*
X35Y766D02*
X96D01*
X227D02*
X313D01*
X444D02*
X517D01*
X582D02*
X1097D01*
X1129D02*
X1180D01*
X1236D02*
X1263D01*
X1436D02*
X1531D01*
X2875D02*
X3026D01*
X35Y769D02*
X96D01*
X227D02*
X313D01*
X444D02*
X516D01*
X584D02*
X1107D01*
X1119D02*
X1180D01*
X1236D02*
X1263D01*
X1439D02*
X1531D01*
X2875D02*
X3026D01*
X35Y772D02*
X96D01*
X227D02*
X313D01*
X444D02*
X514D01*
X585D02*
X1180D01*
X1236D02*
X1263D01*
X1442D02*
X1531D01*
X2875D02*
X3026D01*
X35Y775D02*
X96D01*
X227D02*
X313D01*
X444D02*
X513D01*
X586D02*
X1309D01*
X1445D02*
X1531D01*
X2875D02*
X3026D01*
X35Y778D02*
X96D01*
X227D02*
X313D01*
X444D02*
X512D01*
X587D02*
X1309D01*
X1448D02*
X1531D01*
X2875D02*
X3026D01*
X35Y781D02*
X96D01*
X227D02*
X313D01*
X444D02*
X512D01*
X588D02*
X1309D01*
X1451D02*
X1531D01*
X2875D02*
X3026D01*
X35Y784D02*
X96D01*
X227D02*
X313D01*
X444D02*
X511D01*
X588D02*
X1309D01*
X1454D02*
X1531D01*
X2875D02*
X3026D01*
X35Y787D02*
X96D01*
X227D02*
X270D01*
X290D02*
X313D01*
X444D02*
X511D01*
X588D02*
X1309D01*
X1457D02*
X1531D01*
X2875D02*
X3026D01*
X35Y790D02*
X96D01*
X227D02*
X262D01*
X298D02*
X313D01*
X444D02*
X512D01*
X588D02*
X1309D01*
X1460D02*
X1531D01*
X2875D02*
X3026D01*
X35Y793D02*
X258D01*
X303D02*
X313D01*
X444D02*
X512D01*
X587D02*
X1309D01*
X1463D02*
X1531D01*
X2875D02*
X3026D01*
X35Y796D02*
X254D01*
X306D02*
X513D01*
X587D02*
X1309D01*
X1466D02*
X1531D01*
X2875D02*
X3026D01*
X35Y799D02*
X251D01*
X309D02*
X514D01*
X586D02*
X1309D01*
X1469D02*
X1531D01*
X2875D02*
X3026D01*
X35Y802D02*
X249D01*
X311D02*
X515D01*
X585D02*
X1309D01*
X1472D02*
X1531D01*
X2875D02*
X3026D01*
X35Y805D02*
X247D01*
X313D02*
X516D01*
X583D02*
X1309D01*
X1475D02*
X1531D01*
X2875D02*
X3026D01*
X35Y808D02*
X245D01*
X315D02*
X518D01*
X581D02*
X1309D01*
X1478D02*
X1531D01*
X2875D02*
X3026D01*
X35Y811D02*
X244D01*
X316D02*
X520D01*
X579D02*
X1309D01*
X1481D02*
X1531D01*
X2875D02*
X3026D01*
X35Y814D02*
X243D01*
X317D02*
X523D01*
X576D02*
X1309D01*
X1484D02*
X1531D01*
X2875D02*
X3026D01*
X35Y817D02*
X243D01*
X317D02*
X527D01*
X573D02*
X1309D01*
X1487D02*
X1531D01*
X2875D02*
X3026D01*
X35Y820D02*
X242D01*
X318D02*
X532D01*
X568D02*
X1309D01*
X1490D02*
X1531D01*
X2875D02*
X3026D01*
X35Y823D02*
X242D01*
X318D02*
X539D01*
X561D02*
X1309D01*
X1493D02*
X1531D01*
X2875D02*
X3026D01*
X35Y826D02*
X242D01*
X318D02*
X1309D01*
X1496D02*
X1531D01*
X2875D02*
X3026D01*
X35Y829D02*
X242D01*
X318D02*
X1309D01*
X1499D02*
X1531D01*
X2875D02*
X3026D01*
X35Y832D02*
X243D01*
X317D02*
X1309D01*
X1502D02*
X1531D01*
X2875D02*
X3026D01*
X35Y835D02*
X244D01*
X316D02*
X1309D01*
X1504D02*
X1531D01*
X2875D02*
X3026D01*
X35Y838D02*
X245D01*
X315D02*
X1309D01*
X1506D02*
X1531D01*
X2875D02*
X3026D01*
X35Y841D02*
X246D01*
X314D02*
X1309D01*
X1507D02*
X1531D01*
X2875D02*
X3026D01*
X35Y844D02*
X248D01*
X312D02*
X1309D01*
X1511D02*
X1531D01*
X2875D02*
X3026D01*
X35Y847D02*
X250D01*
X310D02*
X1309D01*
X1514D02*
X1531D01*
X2875D02*
X3026D01*
X35Y850D02*
X253D01*
X307D02*
X1309D01*
X1516D02*
X1531D01*
X2875D02*
X3026D01*
X35Y853D02*
X256D01*
X304D02*
X1309D01*
X1519D02*
X1531D01*
X2875D02*
X3026D01*
X35Y856D02*
X260D01*
X300D02*
X1309D01*
X1520D02*
X1530D01*
X2875D02*
X3026D01*
X35Y859D02*
X266D01*
X294D02*
X1309D01*
X1522D02*
X1527D01*
X2875D02*
X3026D01*
X35Y862D02*
X1309D01*
X1523D02*
X1524D01*
X2875D02*
X3026D01*
X35Y865D02*
X1309D01*
X2875D02*
X3026D01*
X35Y868D02*
X1309D01*
X2875D02*
X3026D01*
X35Y871D02*
X883D01*
X943D02*
X970D01*
X1026D02*
X1042D01*
X1098D02*
X1125D01*
X1185D02*
X1309D01*
X2875D02*
X3026D01*
X35Y874D02*
X844D01*
X870D02*
X883D01*
X943D02*
X970D01*
X1026D02*
X1042D01*
X1098D02*
X1125D01*
X1185D02*
X1198D01*
X1224D02*
X1309D01*
X2875D02*
X3026D01*
X35Y877D02*
X837D01*
X876D02*
X883D01*
X943D02*
X970D01*
X1026D02*
X1042D01*
X1098D02*
X1125D01*
X1185D02*
X1192D01*
X1231D02*
X1309D01*
X2875D02*
X3026D01*
X35Y880D02*
X833D01*
X881D02*
X883D01*
X943D02*
X970D01*
X1026D02*
X1042D01*
X1098D02*
X1125D01*
X1185D02*
X1187D01*
X1235D02*
X1309D01*
X2875D02*
X3026D01*
X35Y883D02*
X829D01*
X943D02*
X970D01*
X1026D02*
X1042D01*
X1098D02*
X1125D01*
X1239D02*
X1309D01*
X2875D02*
X3026D01*
X35Y886D02*
X826D01*
X943D02*
X970D01*
X1026D02*
X1042D01*
X1098D02*
X1125D01*
X1242D02*
X1341D01*
X2875D02*
X3026D01*
X35Y889D02*
X824D01*
X943D02*
X970D01*
X1026D02*
X1042D01*
X1098D02*
X1125D01*
X1244D02*
X1338D01*
X2875D02*
X3026D01*
X35Y892D02*
X822D01*
X943D02*
X970D01*
X1026D02*
X1042D01*
X1098D02*
X1125D01*
X1246D02*
X1336D01*
X2875D02*
X3026D01*
X35Y895D02*
X820D01*
X943D02*
X970D01*
X1026D02*
X1042D01*
X1098D02*
X1125D01*
X1248D02*
X1334D01*
X2875D02*
X3026D01*
X35Y898D02*
X819D01*
X943D02*
X970D01*
X1026D02*
X1042D01*
X1098D02*
X1125D01*
X1249D02*
X1333D01*
X2875D02*
X3026D01*
X35Y901D02*
X818D01*
X943D02*
X970D01*
X1026D02*
X1042D01*
X1098D02*
X1125D01*
X1250D02*
X1332D01*
X2875D02*
X3026D01*
X35Y904D02*
X817D01*
X943D02*
X970D01*
X1026D02*
X1042D01*
X1098D02*
X1125D01*
X1251D02*
X1331D01*
X2875D02*
X3026D01*
X35Y907D02*
X817D01*
X943D02*
X970D01*
X1026D02*
X1042D01*
X1098D02*
X1125D01*
X1251D02*
X1331D01*
X2875D02*
X3026D01*
X35Y910D02*
X817D01*
X943D02*
X970D01*
X1026D02*
X1042D01*
X1098D02*
X1125D01*
X1251D02*
X1330D01*
X2875D02*
X3026D01*
X35Y913D02*
X817D01*
X943D02*
X970D01*
X1026D02*
X1042D01*
X1098D02*
X1125D01*
X1251D02*
X1330D01*
X2875D02*
X3026D01*
X35Y916D02*
X817D01*
X943D02*
X970D01*
X1026D02*
X1042D01*
X1098D02*
X1125D01*
X1251D02*
X1331D01*
X2875D02*
X3026D01*
X35Y919D02*
X817D01*
X943D02*
X970D01*
X1026D02*
X1042D01*
X1098D02*
X1125D01*
X1251D02*
X1331D01*
X2875D02*
X3026D01*
X35Y922D02*
X818D01*
X943D02*
X970D01*
X1026D02*
X1042D01*
X1098D02*
X1125D01*
X1250D02*
X1332D01*
X2875D02*
X3026D01*
X35Y925D02*
X819D01*
X943D02*
X970D01*
X1026D02*
X1042D01*
X1098D02*
X1125D01*
X1249D02*
X1333D01*
X2875D02*
X3026D01*
X35Y928D02*
X820D01*
X943D02*
X970D01*
X1026D02*
X1042D01*
X1098D02*
X1125D01*
X1248D02*
X1334D01*
X2875D02*
X3026D01*
X35Y931D02*
X821D01*
X943D02*
X970D01*
X1026D02*
X1042D01*
X1098D02*
X1125D01*
X1247D02*
X1335D01*
X2875D02*
X3026D01*
X35Y934D02*
X823D01*
X943D02*
X970D01*
X1026D02*
X1042D01*
X1098D02*
X1125D01*
X1245D02*
X1337D01*
X2875D02*
X3026D01*
X35Y937D02*
X825D01*
X943D02*
X970D01*
X1026D02*
X1042D01*
X1098D02*
X1125D01*
X1243D02*
X1339D01*
X2875D02*
X3026D01*
X35Y940D02*
X828D01*
X943D02*
X970D01*
X1026D02*
X1042D01*
X1098D02*
X1125D01*
X1240D02*
X1342D01*
X2875D02*
X3026D01*
X35Y943D02*
X831D01*
X943D02*
X970D01*
X1026D02*
X1042D01*
X1098D02*
X1125D01*
X1237D02*
X1346D01*
X1391D02*
X1392D01*
X2875D02*
X3026D01*
X35Y946D02*
X835D01*
X879D02*
X883D01*
X943D02*
X970D01*
X1026D02*
X1042D01*
X1098D02*
X1125D01*
X1185D02*
X1189D01*
X1233D02*
X1351D01*
X1387D02*
X1393D01*
X2875D02*
X3026D01*
X35Y949D02*
X840D01*
X873D02*
X883D01*
X943D02*
X970D01*
X1026D02*
X1042D01*
X1098D02*
X1125D01*
X1185D02*
X1195D01*
X1228D02*
X1358D01*
X1379D02*
X1394D01*
X2875D02*
X3026D01*
X35Y952D02*
X850D01*
X863D02*
X883D01*
X943D02*
X970D01*
X1026D02*
X1042D01*
X1098D02*
X1125D01*
X1185D02*
X1205D01*
X1218D02*
X1394D01*
X2875D02*
X3026D01*
X35Y955D02*
X883D01*
X943D02*
X1125D01*
X1185D02*
X1394D01*
X2875D02*
X3026D01*
X35Y958D02*
X1394D01*
X2875D02*
X3026D01*
X35Y961D02*
X1394D01*
X2875D02*
X3026D01*
X35Y964D02*
X271D01*
X289D02*
X1394D01*
X2875D02*
X3026D01*
X35Y967D02*
X263D01*
X297D02*
X1394D01*
X2875D02*
X3026D01*
X35Y970D02*
X258D01*
X302D02*
X1394D01*
X2875D02*
X3026D01*
X35Y973D02*
X254D01*
X306D02*
X1394D01*
X2875D02*
X3026D01*
X35Y976D02*
X251D01*
X309D02*
X1394D01*
X2875D02*
X3026D01*
X35Y979D02*
X249D01*
X311D02*
X1394D01*
X2875D02*
X3026D01*
X35Y982D02*
X247D01*
X313D02*
X1394D01*
X2875D02*
X3026D01*
X35Y985D02*
X246D01*
X315D02*
X1394D01*
X2875D02*
X3026D01*
X35Y988D02*
X244D01*
X316D02*
X1394D01*
X2875D02*
X3026D01*
X35Y991D02*
X243D01*
X317D02*
X1394D01*
X2875D02*
X3026D01*
X35Y994D02*
X243D01*
X317D02*
X1394D01*
X2875D02*
X3026D01*
X35Y997D02*
X242D01*
X318D02*
X1394D01*
X2875D02*
X3026D01*
X35Y1000D02*
X242D01*
X318D02*
X1394D01*
X2875D02*
X3026D01*
X35Y1003D02*
X242D01*
X318D02*
X1394D01*
X2875D02*
X3026D01*
X35Y1006D02*
X242D01*
X318D02*
X1394D01*
X2875D02*
X3026D01*
X35Y1009D02*
X243D01*
X317D02*
X1394D01*
X2875D02*
X3026D01*
X35Y1012D02*
X244D01*
X316D02*
X1394D01*
X2875D02*
X3026D01*
X35Y1015D02*
X245D01*
X315D02*
X1394D01*
X2875D02*
X3026D01*
X35Y1018D02*
X246D01*
X314D02*
X1394D01*
X2875D02*
X3026D01*
X35Y1021D02*
X248D01*
X312D02*
X1394D01*
X2875D02*
X3026D01*
X35Y1024D02*
X250D01*
X310D02*
X1268D01*
X1296D02*
X1347D01*
X2875D02*
X3026D01*
X35Y1027D02*
X253D01*
X308D02*
X1262D01*
X1302D02*
X1347D01*
X2875D02*
X3026D01*
X35Y1030D02*
X256D01*
X304D02*
X1257D01*
X1307D02*
X1347D01*
X2875D02*
X3026D01*
X35Y1033D02*
X96D01*
X227D02*
X260D01*
X300D02*
X313D01*
X444D02*
X1254D01*
X1310D02*
X1347D01*
X2875D02*
X3026D01*
X35Y1036D02*
X96D01*
X227D02*
X266D01*
X294D02*
X313D01*
X444D02*
X1251D01*
X1313D02*
X1347D01*
X2875D02*
X3026D01*
X35Y1039D02*
X96D01*
X227D02*
X313D01*
X444D02*
X1249D01*
X1315D02*
X1347D01*
X2875D02*
X3026D01*
X35Y1042D02*
X96D01*
X227D02*
X313D01*
X444D02*
X1247D01*
X2875D02*
X3026D01*
X35Y1045D02*
X96D01*
X227D02*
X313D01*
X444D02*
X1245D01*
X2875D02*
X3026D01*
X35Y1048D02*
X96D01*
X227D02*
X313D01*
X444D02*
X1244D01*
X2875D02*
X3026D01*
X35Y1051D02*
X96D01*
X227D02*
X313D01*
X444D02*
X1243D01*
X2875D02*
X3026D01*
X35Y1054D02*
X96D01*
X227D02*
X313D01*
X444D02*
X1243D01*
X2875D02*
X3026D01*
X35Y1057D02*
X96D01*
X227D02*
X313D01*
X444D02*
X710D01*
X1189D02*
X1242D01*
X2875D02*
X3026D01*
X35Y1060D02*
X96D01*
X227D02*
X313D01*
X444D02*
X704D01*
X2875D02*
X3026D01*
X35Y1063D02*
X96D01*
X227D02*
X313D01*
X444D02*
X701D01*
X2875D02*
X3026D01*
X35Y1066D02*
X96D01*
X227D02*
X313D01*
X444D02*
X698D01*
X2875D02*
X3026D01*
X35Y1069D02*
X96D01*
X227D02*
X313D01*
X444D02*
X695D01*
X2875D02*
X3026D01*
X35Y1072D02*
X96D01*
X227D02*
X313D01*
X444D02*
X692D01*
X2875D02*
X3026D01*
X35Y1075D02*
X96D01*
X227D02*
X313D01*
X444D02*
X689D01*
X2875D02*
X3026D01*
X35Y1078D02*
X96D01*
X227D02*
X313D01*
X444D02*
X686D01*
X2875D02*
X3026D01*
X35Y1081D02*
X96D01*
X227D02*
X313D01*
X444D02*
X683D01*
X2875D02*
X3026D01*
X35Y1084D02*
X96D01*
X227D02*
X313D01*
X444D02*
X680D01*
X2875D02*
X3026D01*
X35Y1087D02*
X96D01*
X227D02*
X313D01*
X444D02*
X677D01*
X2875D02*
X3026D01*
X35Y1090D02*
X96D01*
X227D02*
X313D01*
X444D02*
X674D01*
X2875D02*
X3026D01*
X35Y1093D02*
X96D01*
X227D02*
X313D01*
X444D02*
X671D01*
X2875D02*
X3026D01*
X35Y1096D02*
X96D01*
X227D02*
X313D01*
X444D02*
X668D01*
X2875D02*
X3026D01*
X35Y1099D02*
X96D01*
X227D02*
X313D01*
X444D02*
X665D01*
X2875D02*
X3026D01*
X35Y1102D02*
X96D01*
X227D02*
X313D01*
X444D02*
X662D01*
X2875D02*
X3026D01*
X35Y1105D02*
X96D01*
X227D02*
X313D01*
X444D02*
X659D01*
X2875D02*
X3026D01*
X35Y1108D02*
X96D01*
X227D02*
X313D01*
X444D02*
X656D01*
X2875D02*
X3026D01*
X35Y1111D02*
X96D01*
X227D02*
X313D01*
X444D02*
X654D01*
X2875D02*
X3026D01*
X35Y1114D02*
X96D01*
X227D02*
X313D01*
X444D02*
X652D01*
X2875D02*
X3026D01*
X35Y1117D02*
X96D01*
X227D02*
X313D01*
X444D02*
X651D01*
X2875D02*
X3026D01*
X35Y1120D02*
X96D01*
X227D02*
X313D01*
X444D02*
X650D01*
X2875D02*
X3026D01*
X35Y1123D02*
X96D01*
X227D02*
X313D01*
X444D02*
X650D01*
X2875D02*
X3026D01*
X35Y1126D02*
X96D01*
X227D02*
X313D01*
X444D02*
X650D01*
X2875D02*
X3026D01*
X35Y1129D02*
X96D01*
X227D02*
X313D01*
X444D02*
X650D01*
X2875D02*
X3026D01*
X35Y1132D02*
X96D01*
X227D02*
X313D01*
X444D02*
X650D01*
X2875D02*
X3026D01*
X35Y1135D02*
X96D01*
X227D02*
X313D01*
X444D02*
X650D01*
X2875D02*
X3026D01*
X35Y1138D02*
X96D01*
X227D02*
X313D01*
X444D02*
X650D01*
X2875D02*
X3026D01*
X35Y1141D02*
X96D01*
X227D02*
X313D01*
X444D02*
X650D01*
X2875D02*
X3026D01*
X35Y1144D02*
X96D01*
X227D02*
X313D01*
X444D02*
X615D01*
X642D02*
X650D01*
X2875D02*
X3026D01*
X35Y1147D02*
X609D01*
X648D02*
X650D01*
X2875D02*
X3026D01*
X35Y1150D02*
X605D01*
X2875D02*
X3026D01*
X35Y1153D02*
X601D01*
X2875D02*
X3026D01*
X35Y1156D02*
X599D01*
X2875D02*
X3026D01*
X35Y1159D02*
X596D01*
X2875D02*
X3026D01*
X35Y1162D02*
X595D01*
X2875D02*
X3026D01*
X35Y1165D02*
X593D01*
X2875D02*
X3026D01*
X35Y1168D02*
X592D01*
X2875D02*
X3026D01*
X35Y1171D02*
X591D01*
X2875D02*
X3026D01*
X35Y1174D02*
X591D01*
X2875D02*
X3026D01*
X35Y1177D02*
X590D01*
X2875D02*
X3026D01*
X35Y1180D02*
X590D01*
X2875D02*
X3026D01*
X35Y1183D02*
X590D01*
X2875D02*
X3026D01*
X35Y1186D02*
X591D01*
X2875D02*
X3026D01*
X35Y1189D02*
X183D01*
X208D02*
X591D01*
X2875D02*
X3026D01*
X35Y1192D02*
X176D01*
X215D02*
X592D01*
X2875D02*
X3026D01*
X35Y1195D02*
X171D01*
X220D02*
X593D01*
X2875D02*
X3026D01*
X35Y1198D02*
X168D01*
X223D02*
X595D01*
X2875D02*
X3026D01*
X35Y1201D02*
X165D01*
X226D02*
X596D01*
X2875D02*
X3026D01*
X35Y1204D02*
X162D01*
X2875D02*
X3026D01*
X35Y1207D02*
X161D01*
X2875D02*
X3026D01*
X35Y1210D02*
X159D01*
X2875D02*
X3026D01*
X35Y1213D02*
X158D01*
X2875D02*
X3026D01*
X35Y1216D02*
X157D01*
X2875D02*
X3026D01*
X35Y1219D02*
X156D01*
X2875D02*
X3026D01*
X35Y1222D02*
X155D01*
X2875D02*
X3026D01*
X35Y1225D02*
X155D01*
X2875D02*
X3026D01*
X35Y1228D02*
X155D01*
X2875D02*
X3026D01*
X35Y1231D02*
X155D01*
X2875D02*
X3026D01*
X35Y1234D02*
X156D01*
X2875D02*
X3026D01*
X35Y1237D02*
X156D01*
X2875D02*
X3026D01*
X35Y1240D02*
X157D01*
X2875D02*
X3026D01*
X35Y1243D02*
X158D01*
X2875D02*
X3026D01*
X35Y1246D02*
X160D01*
X2875D02*
X3026D01*
X35Y1249D02*
X162D01*
X2875D02*
X3026D01*
X35Y1252D02*
X164D01*
X2875D02*
X3026D01*
X35Y1255D02*
X166D01*
X225D02*
X228D01*
X2875D02*
X3026D01*
X35Y1258D02*
X169D01*
X221D02*
X228D01*
X2875D02*
X3026D01*
X35Y1261D02*
X174D01*
X217D02*
X228D01*
X2875D02*
X3026D01*
X35Y1264D02*
X179D01*
X212D02*
X228D01*
X2875D02*
X3026D01*
X35Y1267D02*
X189D01*
X202D02*
X228D01*
X2875D02*
X3026D01*
X35Y1270D02*
X228D01*
X2875D02*
X3026D01*
X35Y1273D02*
X79D01*
X162D02*
X228D01*
X2875D02*
X3026D01*
X35Y1276D02*
X79D01*
X162D02*
X228D01*
X2875D02*
X3026D01*
X35Y1279D02*
X79D01*
X162D02*
X228D01*
X2875D02*
X3026D01*
X35Y1282D02*
X79D01*
X162D02*
X228D01*
X2875D02*
X3026D01*
X35Y1285D02*
X79D01*
X162D02*
X228D01*
X2875D02*
X3026D01*
X35Y1288D02*
X79D01*
X162D02*
X228D01*
X2875D02*
X3026D01*
X35Y1291D02*
X79D01*
X162D02*
X228D01*
X2875D02*
X3026D01*
X35Y1294D02*
X79D01*
X162D02*
X228D01*
X2875D02*
X3026D01*
X35Y1297D02*
X79D01*
X162D02*
X228D01*
X2875D02*
X3026D01*
X35Y1300D02*
X79D01*
X162D02*
X228D01*
X2875D02*
X3026D01*
X35Y1303D02*
X79D01*
X162D02*
X228D01*
X2875D02*
X3026D01*
X35Y1306D02*
X79D01*
X162D02*
X228D01*
X448D02*
X450D01*
X2875D02*
X3026D01*
X35Y1309D02*
X79D01*
X162D02*
X228D01*
X448D02*
X453D01*
X2875D02*
X3026D01*
X35Y1312D02*
X79D01*
X162D02*
X228D01*
X448D02*
X456D01*
X2875D02*
X3026D01*
X35Y1315D02*
X79D01*
X162D02*
X228D01*
X448D02*
X459D01*
X2875D02*
X3026D01*
X35Y1318D02*
X79D01*
X162D02*
X228D01*
X448D02*
X462D01*
X2875D02*
X3026D01*
X35Y1321D02*
X79D01*
X162D02*
X336D01*
X448D02*
X465D01*
X2875D02*
X3026D01*
X35Y1324D02*
X79D01*
X162D02*
X468D01*
X2875D02*
X3026D01*
X35Y1327D02*
X471D01*
X2875D02*
X3026D01*
X35Y1330D02*
X477D01*
X2874D02*
X3026D01*
X35Y1333D02*
X509D01*
X2873D02*
X3026D01*
X35Y1336D02*
X512D01*
X2871D02*
X3026D01*
X35Y1339D02*
X515D01*
X2869D02*
X3026D01*
X35Y1342D02*
X518D01*
X2866D02*
X3026D01*
X35Y1345D02*
X521D01*
X2863D02*
X3026D01*
X35Y1348D02*
X524D01*
X2860D02*
X3026D01*
X35Y1351D02*
X527D01*
X2857D02*
X3026D01*
X35Y1354D02*
X77D01*
X164D02*
X530D01*
X2854D02*
X3026D01*
X35Y1357D02*
X77D01*
X164D02*
X531D01*
X2851D02*
X3026D01*
X35Y1360D02*
X77D01*
X164D02*
X528D01*
X2848D02*
X3026D01*
X35Y1363D02*
X77D01*
X164D02*
X525D01*
X2845D02*
X3026D01*
X35Y1366D02*
X77D01*
X164D02*
X522D01*
X2842D02*
X3026D01*
X35Y1369D02*
X77D01*
X164D02*
X519D01*
X2839D02*
X3026D01*
X35Y1372D02*
X77D01*
X164D02*
X516D01*
X2836D02*
X3026D01*
X35Y1375D02*
X77D01*
X164D02*
X513D01*
X2833D02*
X3026D01*
X35Y1378D02*
X77D01*
X164D02*
X510D01*
X2830D02*
X3026D01*
X35Y1381D02*
X77D01*
X164D02*
X507D01*
X2827D02*
X3026D01*
X35Y1384D02*
X77D01*
X164D02*
X504D01*
X2824D02*
X3026D01*
X35Y1387D02*
X77D01*
X164D02*
X504D01*
X2821D02*
X3026D01*
X35Y1390D02*
X77D01*
X164D02*
X504D01*
X2818D02*
X3026D01*
X35Y1393D02*
X77D01*
X164D02*
X504D01*
X2815D02*
X3026D01*
X35Y1396D02*
X77D01*
X164D02*
X504D01*
X2812D02*
X3026D01*
X35Y1399D02*
X77D01*
X164D02*
X504D01*
X2809D02*
X3026D01*
X35Y1402D02*
X77D01*
X164D02*
X504D01*
X2806D02*
X3026D01*
X35Y1405D02*
X77D01*
X164D02*
X504D01*
X2803D02*
X3026D01*
X35Y1408D02*
X77D01*
X164D02*
X504D01*
X2800D02*
X3026D01*
X35Y1411D02*
X77D01*
X164D02*
X504D01*
X2797D02*
X3026D01*
X35Y1414D02*
X98D01*
X143D02*
X504D01*
X2794D02*
X3026D01*
X35Y1417D02*
X98D01*
X143D02*
X504D01*
X2790D02*
X3026D01*
X35Y1420D02*
X98D01*
X143D02*
X504D01*
X2786D02*
X3026D01*
X35Y1423D02*
X98D01*
X143D02*
X504D01*
X2775D02*
X3026D01*
X35Y1426D02*
X98D01*
X143D02*
X504D01*
X2772D02*
X3026D01*
X35Y1429D02*
X98D01*
X143D02*
X505D01*
X2572D02*
X3026D01*
X35Y1432D02*
X98D01*
X143D02*
X508D01*
X2569D02*
X3026D01*
X35Y1435D02*
X98D01*
X143D02*
X274D01*
X298D02*
X325D01*
X349D02*
X376D01*
X401D02*
X511D01*
X2566D02*
X2596D01*
X2620D02*
X3026D01*
X35Y1438D02*
X98D01*
X143D02*
X267D01*
X305D02*
X318D01*
X356D02*
X369D01*
X407D02*
X514D01*
X2563D02*
X2589D01*
X2628D02*
X3026D01*
X35Y1441D02*
X98D01*
X143D02*
X263D01*
X309D02*
X314D01*
X361D02*
X365D01*
X412D02*
X517D01*
X2560D02*
X2584D01*
X2633D02*
X3026D01*
X35Y1444D02*
X98D01*
X143D02*
X259D01*
X415D02*
X520D01*
X2557D02*
X2580D01*
X2637D02*
X3026D01*
X35Y1447D02*
X98D01*
X143D02*
X256D01*
X418D02*
X523D01*
X2554D02*
X2577D01*
X2640D02*
X3026D01*
X35Y1450D02*
X98D01*
X143D02*
X254D01*
X420D02*
X526D01*
X2551D02*
X2574D01*
X2643D02*
X3026D01*
X35Y1453D02*
X98D01*
X143D02*
X252D01*
X422D02*
X529D01*
X2549D02*
X2572D01*
X2645D02*
X3026D01*
X35Y1456D02*
X98D01*
X143D02*
X251D01*
X423D02*
X532D01*
X2549D02*
X2570D01*
X2647D02*
X3026D01*
X35Y1459D02*
X98D01*
X143D02*
X250D01*
X425D02*
X529D01*
X2550D02*
X2569D01*
X2648D02*
X3026D01*
X35Y1462D02*
X97D01*
X144D02*
X249D01*
X425D02*
X526D01*
X2552D02*
X2567D01*
X2650D02*
X3026D01*
X35Y1465D02*
X94D01*
X148D02*
X248D01*
X426D02*
X523D01*
X2553D02*
X2566D01*
X2651D02*
X3026D01*
X35Y1468D02*
X91D01*
X151D02*
X248D01*
X426D02*
X520D01*
X2553D02*
X2566D01*
X2651D02*
X3026D01*
X35Y1471D02*
X88D01*
X153D02*
X248D01*
X427D02*
X517D01*
X2554D02*
X2565D01*
X2652D02*
X3026D01*
X35Y1474D02*
X86D01*
X155D02*
X248D01*
X427D02*
X514D01*
X2554D02*
X2565D01*
X2652D02*
X3026D01*
X35Y1477D02*
X85D01*
X157D02*
X248D01*
X426D02*
X511D01*
X2554D02*
X2565D01*
X2652D02*
X3026D01*
X35Y1480D02*
X83D01*
X158D02*
X249D01*
X426D02*
X508D01*
X2554D02*
X2565D01*
X2652D02*
X3026D01*
X35Y1483D02*
X82D01*
X159D02*
X249D01*
X425D02*
X505D01*
X2554D02*
X2565D01*
X2652D02*
X3026D01*
X35Y1486D02*
X81D01*
X160D02*
X251D01*
X424D02*
X504D01*
X2554D02*
X2565D01*
X2652D02*
X3026D01*
X35Y1489D02*
X81D01*
X160D02*
X252D01*
X422D02*
X504D01*
X2554D02*
X2565D01*
X2652D02*
X3026D01*
X35Y1492D02*
X80D01*
X161D02*
X254D01*
X421D02*
X504D01*
X2554D02*
X2565D01*
X2652D02*
X3026D01*
X35Y1495D02*
X80D01*
X161D02*
X256D01*
X418D02*
X504D01*
X2554D02*
X2565D01*
X2652D02*
X3026D01*
X35Y1498D02*
X80D01*
X161D02*
X259D01*
X416D02*
X504D01*
X2554D02*
X2565D01*
X2652D02*
X3026D01*
X35Y1501D02*
X81D01*
X160D02*
X262D01*
X310D02*
X313D01*
X361D02*
X364D01*
X413D02*
X504D01*
X2554D02*
X2565D01*
X2652D02*
X3026D01*
X35Y1504D02*
X81D01*
X160D02*
X266D01*
X306D02*
X317D01*
X357D02*
X368D01*
X408D02*
X504D01*
X2554D02*
X2565D01*
X2652D02*
X3026D01*
X35Y1507D02*
X82D01*
X159D02*
X272D01*
X300D02*
X323D01*
X351D02*
X374D01*
X402D02*
X504D01*
X2554D02*
X2565D01*
X2652D02*
X3026D01*
X35Y1510D02*
X83D01*
X158D02*
X504D01*
X2554D02*
X2565D01*
X2652D02*
X3026D01*
X35Y1513D02*
X85D01*
X157D02*
X504D01*
X2554D02*
X2565D01*
X2652D02*
X3026D01*
X35Y1516D02*
X86D01*
X155D02*
X504D01*
X2554D02*
X2565D01*
X2652D02*
X3026D01*
X35Y1519D02*
X88D01*
X153D02*
X504D01*
X2554D02*
X2565D01*
X2652D02*
X3026D01*
X35Y1522D02*
X91D01*
X150D02*
X504D01*
X2554D02*
X2565D01*
X2652D02*
X3026D01*
X35Y1525D02*
X94D01*
X147D02*
X504D01*
X2554D02*
X2565D01*
X2652D02*
X3026D01*
X35Y1528D02*
X98D01*
X144D02*
X504D01*
X2554D02*
X2565D01*
X2652D02*
X3026D01*
X35Y1531D02*
X103D01*
X166D02*
X507D01*
X2554D02*
X2565D01*
X2652D02*
X2896D01*
X2932D02*
X3026D01*
X35Y1534D02*
X111D01*
X181D02*
X510D01*
X605D02*
X631D01*
X2554D02*
X2565D01*
X2652D02*
X2881D01*
X2948D02*
X3026D01*
X35Y1537D02*
X105D01*
X192D02*
X513D01*
X602D02*
X634D01*
X2554D02*
X2565D01*
X2652D02*
X2871D01*
X2958D02*
X3026D01*
X35Y1540D02*
X97D01*
X200D02*
X516D01*
X599D02*
X637D01*
X2554D02*
X2565D01*
X2652D02*
X2863D01*
X2966D02*
X3026D01*
X35Y1543D02*
X90D01*
X206D02*
X519D01*
X596D02*
X640D01*
X2554D02*
X2565D01*
X2652D02*
X2856D01*
X2972D02*
X3026D01*
X35Y1546D02*
X84D01*
X212D02*
X522D01*
X593D02*
X642D01*
X2553D02*
X2566D01*
X2651D02*
X2850D01*
X2978D02*
X3026D01*
X35Y1549D02*
X79D01*
X217D02*
X525D01*
X590D02*
X642D01*
X2552D02*
X2566D01*
X2650D02*
X2845D01*
X2984D02*
X3026D01*
X35Y1552D02*
X74D01*
X222D02*
X528D01*
X587D02*
X642D01*
X2551D02*
X2567D01*
X2649D02*
X2840D01*
X2988D02*
X3026D01*
X35Y1555D02*
X70D01*
X227D02*
X531D01*
X584D02*
X642D01*
X2550D02*
X2569D01*
X2648D02*
X2836D01*
X2993D02*
X3026D01*
X35Y1558D02*
X66D01*
X231D02*
X534D01*
X581D02*
X642D01*
X2549D02*
X2570D01*
X2646D02*
X2832D01*
X2997D02*
X3026D01*
X35Y1561D02*
X62D01*
X234D02*
X642D01*
X2549D02*
X2572D01*
X2645D02*
X2828D01*
X3000D02*
X3026D01*
X35Y1564D02*
X59D01*
X238D02*
X642D01*
X2547D02*
X2574D01*
X2642D02*
X2825D01*
X3004D02*
X3026D01*
X35Y1567D02*
X55D01*
X241D02*
X642D01*
X2544D02*
X2577D01*
X2640D02*
X2822D01*
X3007D02*
X3026D01*
X35Y1570D02*
X52D01*
X244D02*
X642D01*
X2541D02*
X2580D01*
X2636D02*
X2818D01*
X3010D02*
X3026D01*
X35Y1573D02*
X49D01*
X247D02*
X642D01*
X2538D02*
X2585D01*
X2632D02*
X2816D01*
X3013D02*
X3026D01*
X35Y1576D02*
X47D01*
X250D02*
X642D01*
X2535D02*
X2590D01*
X2627D02*
X2813D01*
X3016D02*
X3026D01*
X35Y1579D02*
X44D01*
X252D02*
X642D01*
X2534D02*
X2599D01*
X2618D02*
X2810D01*
X3018D02*
X3026D01*
X35Y1582D02*
X42D01*
X254D02*
X643D01*
X2534D02*
X2808D01*
X3021D02*
X3026D01*
X35Y1585D02*
X40D01*
X257D02*
X644D01*
X2533D02*
X2806D01*
X3023D02*
X3026D01*
X35Y1588D02*
X37D01*
X259D02*
X646D01*
X2531D02*
X2804D01*
X3025D02*
X3026D01*
X35Y1591D02*
X35D01*
X261D02*
X648D01*
X2530D02*
X2802D01*
X263Y1594D02*
X651D01*
X2527D02*
X2800D01*
X265Y1597D02*
X654D01*
X2524D02*
X2798D01*
X266Y1600D02*
X657D01*
X2521D02*
X2796D01*
X268Y1603D02*
X660D01*
X2518D02*
X2795D01*
X269Y1606D02*
X663D01*
X2515D02*
X2793D01*
X271Y1609D02*
X666D01*
X2512D02*
X2792D01*
X272Y1612D02*
X669D01*
X2509D02*
X2790D01*
X273Y1615D02*
X672D01*
X2506D02*
X2789D01*
X274Y1618D02*
X675D01*
X2503D02*
X2788D01*
X275Y1621D02*
X678D01*
X2500D02*
X2787D01*
X276Y1624D02*
X681D01*
X2497D02*
X2786D01*
X277Y1627D02*
X684D01*
X2494D02*
X2785D01*
X278Y1630D02*
X687D01*
X2491D02*
X2784D01*
X279Y1633D02*
X690D01*
X2488D02*
X2784D01*
X280Y1636D02*
X693D01*
X2485D02*
X2783D01*
X280Y1639D02*
X697D01*
X2481D02*
X2782D01*
X281Y1642D02*
X704D01*
X2475D02*
X2782D01*
X281Y1645D02*
X2781D01*
X282Y1648D02*
X2781D01*
X282Y1651D02*
X2781D01*
X282Y1654D02*
X2780D01*
X282Y1657D02*
X2780D01*
X282Y1660D02*
X2780D01*
X283Y1663D02*
X2780D01*
X283Y1666D02*
X2780D01*
X282Y1669D02*
X2780D01*
X282Y1672D02*
X2780D01*
X282Y1675D02*
X2780D01*
X282Y1678D02*
X2781D01*
X282Y1681D02*
X2781D01*
X281Y1684D02*
X2781D01*
X281Y1687D02*
X2782D01*
X280Y1690D02*
X2782D01*
X279Y1693D02*
X2783D01*
X279Y1696D02*
X2784D01*
X278Y1699D02*
X2785D01*
X277Y1702D02*
X2785D01*
X276Y1705D02*
X2786D01*
X275Y1708D02*
X2787D01*
X274Y1711D02*
X2788D01*
X273Y1714D02*
X2789D01*
X272Y1717D02*
X2791D01*
X270Y1720D02*
X2792D01*
X269Y1723D02*
X2793D01*
X268Y1726D02*
X2795D01*
X266Y1729D02*
X2797D01*
X264Y1732D02*
X2798D01*
X262Y1735D02*
X2800D01*
X260Y1738D02*
X2802D01*
X258Y1741D02*
X2804D01*
X256Y1744D02*
X2806D01*
X254Y1747D02*
X2808D01*
X252Y1750D02*
X2811D01*
X249Y1753D02*
X2813D01*
X246Y1756D02*
X2816D01*
X243Y1759D02*
X2819D01*
X240Y1762D02*
X2822D01*
X237Y1765D02*
X2825D01*
X234Y1768D02*
X2829D01*
X230Y1771D02*
X2833D01*
X226Y1774D02*
X2837D01*
X221Y1777D02*
X2841D01*
X148Y219D02*
X135Y218D01*
X123Y213*
X111Y206*
X102Y197*
X95Y186*
X91Y173*
X89Y160*
X91Y147*
X95Y134*
X102Y123*
X111Y114*
X123Y107*
X135Y102*
X148Y101*
X161Y102*
X174Y107*
X185Y114*
X194Y123*
X201Y134*
X206Y147*
X207Y160*
X206Y173*
X201Y186*
X194Y197*
X185Y206*
X174Y213*
X161Y218*
X148Y219*
Y1723D02*
X135Y1721D01*
X123Y1717*
X111Y1710*
X102Y1701*
X95Y1690*
X91Y1677*
X89Y1664*
X91Y1651*
X95Y1638*
X102Y1627*
X111Y1618*
X123Y1611*
X135Y1606*
X148Y1605*
X161Y1606*
X174Y1611*
X185Y1618*
X194Y1627*
X201Y1638*
X206Y1651*
X207Y1664*
X206Y1677*
X201Y1690*
X194Y1701*
X185Y1710*
X174Y1717*
X161Y1721*
X148Y1723*
X1446Y950D02*
X1458D01*
Y1015*
X1514*
Y945*
X1517Y942*
X1576Y883*
X1580Y878*
X1583Y871*
X1584Y865*
Y844*
X1593Y848*
X1604Y850*
X1615Y849*
X1625Y845*
X1633Y838*
X1640Y830*
X1644Y820*
X1645Y810*
X1644Y799*
X1640Y789*
X1633Y781*
X1625Y775*
X1615Y771*
Y716*
X1667*
Y646*
X1677Y647*
X1688Y645*
X1697Y640*
X1705Y633*
X1711Y624*
X1714Y614*
X1714Y603*
X1711Y593*
X1705Y584*
X1708*
Y534*
X1735*
Y542*
X1733Y547*
X1732Y552*
Y744*
X1725Y751*
X1719Y759*
X1715Y768*
X1714Y778*
X1715Y788*
X1719Y797*
X1725Y805*
X1732Y812*
Y822*
X1661*
Y878*
X1732*
Y905*
X1669*
X1663Y897*
X1654Y892*
X1644Y888*
X1634Y887*
X1624Y889*
X1615Y893*
X1607Y900*
X1601Y908*
X1597Y918*
X1596Y928*
X1596Y930*
X1541*
Y1017*
X1549*
X1545Y1027*
X1545Y1038*
X1548Y1049*
X1553Y1058*
X1560Y1066*
X1570Y1071*
X1580Y1074*
X1591Y1074*
X1590Y1081*
X1592Y1092*
X1596Y1102*
X1603Y1110*
X1613Y1116*
X1623Y1119*
X1634*
X1644Y1116*
X1654Y1110*
X1661Y1102*
X1665Y1092*
X1667Y1081*
X1665Y1071*
X1661Y1061*
X1654Y1053*
X1645Y1047*
X1635Y1043*
X1624Y1043*
X1625Y1035*
X1625Y1026*
X1653Y997*
X1688*
Y1072*
X1736*
X1738Y1074*
X1750Y1087*
X1743*
Y1253*
X1798*
X1816Y1271*
X1821Y1275*
X1827Y1277*
X1833Y1278*
Y1287*
X1592*
Y1284*
X1600Y1277*
X1606Y1267*
X1609Y1257*
X1609Y1246*
X1607Y1235*
X1601Y1225*
X1593Y1218*
X1628*
Y1134*
X1572*
Y1210*
X1563Y1211*
X1553Y1214*
X1545Y1218*
Y1132*
X1541*
X1538Y1126*
X1534Y1121*
X1522Y1109*
X1516Y1105*
X1510Y1102*
X1503Y1101*
X1490*
Y1024*
X1446*
Y950*
X1637Y1207D02*
X1639Y1218D01*
X1643Y1228*
X1651Y1236*
X1660Y1242*
X1670Y1245*
X1681*
X1692Y1242*
X1701Y1236*
X1708Y1228*
X1713Y1218*
X1714Y1207*
X1713Y1196*
X1708Y1187*
X1701Y1178*
X1692Y1172*
X1681Y1169*
X1670*
X1660Y1172*
X1651Y1178*
X1643Y1187*
X1639Y1196*
X1637Y1207*
X1708Y536D02*
X1735D01*
X1708Y539D02*
X1735D01*
X1708Y542D02*
X1735D01*
X1708Y545D02*
X1733D01*
X1708Y548D02*
X1733D01*
X1708Y551D02*
X1732D01*
X1708Y554D02*
X1732D01*
X1708Y557D02*
X1732D01*
X1708Y560D02*
X1732D01*
X1708Y563D02*
X1732D01*
X1708Y566D02*
X1732D01*
X1708Y569D02*
X1732D01*
X1708Y572D02*
X1732D01*
X1708Y575D02*
X1732D01*
X1708Y578D02*
X1732D01*
X1708Y581D02*
X1732D01*
X1705Y584D02*
X1732D01*
X1707Y587D02*
X1732D01*
X1709Y590D02*
X1732D01*
X1711Y593D02*
X1732D01*
X1712Y596D02*
X1732D01*
X1713Y599D02*
X1732D01*
X1713Y602D02*
X1732D01*
X1714Y605D02*
X1732D01*
X1714Y608D02*
X1732D01*
X1714Y611D02*
X1732D01*
X1714Y614D02*
X1732D01*
X1713Y617D02*
X1732D01*
X1712Y620D02*
X1732D01*
X1711Y623D02*
X1732D01*
X1710Y626D02*
X1732D01*
X1708Y629D02*
X1732D01*
X1706Y632D02*
X1732D01*
X1704Y635D02*
X1732D01*
X1701Y638D02*
X1732D01*
X1697Y641D02*
X1732D01*
X1691Y644D02*
X1732D01*
X1667Y647D02*
X1671D01*
X1680D02*
X1732D01*
X1667Y650D02*
X1732D01*
X1667Y653D02*
X1732D01*
X1667Y656D02*
X1732D01*
X1667Y659D02*
X1732D01*
X1667Y662D02*
X1732D01*
X1667Y665D02*
X1732D01*
X1667Y668D02*
X1732D01*
X1667Y671D02*
X1732D01*
X1667Y674D02*
X1732D01*
X1667Y677D02*
X1732D01*
X1667Y680D02*
X1732D01*
X1667Y683D02*
X1732D01*
X1667Y686D02*
X1732D01*
X1667Y689D02*
X1732D01*
X1667Y692D02*
X1732D01*
X1667Y695D02*
X1732D01*
X1667Y698D02*
X1732D01*
X1667Y701D02*
X1732D01*
X1667Y704D02*
X1732D01*
X1667Y707D02*
X1732D01*
X1667Y710D02*
X1732D01*
X1667Y713D02*
X1732D01*
X1667Y716D02*
X1732D01*
X1615Y719D02*
X1732D01*
X1615Y722D02*
X1732D01*
X1615Y725D02*
X1732D01*
X1615Y728D02*
X1732D01*
X1615Y731D02*
X1732D01*
X1615Y734D02*
X1732D01*
X1615Y737D02*
X1732D01*
X1615Y740D02*
X1732D01*
X1615Y743D02*
X1732D01*
X1615Y746D02*
X1730D01*
X1615Y749D02*
X1727D01*
X1615Y752D02*
X1724D01*
X1615Y755D02*
X1722D01*
X1615Y758D02*
X1720D01*
X1615Y761D02*
X1718D01*
X1615Y764D02*
X1717D01*
X1615Y767D02*
X1716D01*
X1615Y770D02*
X1715D01*
X1621Y773D02*
X1715D01*
X1627Y776D02*
X1714D01*
X1631Y779D02*
X1714D01*
X1634Y782D02*
X1714D01*
X1637Y785D02*
X1715D01*
X1639Y788D02*
X1715D01*
X1641Y791D02*
X1716D01*
X1642Y794D02*
X1717D01*
X1643Y797D02*
X1719D01*
X1644Y800D02*
X1721D01*
X1645Y803D02*
X1723D01*
X1645Y806D02*
X1725D01*
X1645Y809D02*
X1729D01*
X1645Y812D02*
X1732D01*
X1645Y815D02*
X1732D01*
X1644Y818D02*
X1732D01*
X1644Y821D02*
X1732D01*
X1643Y824D02*
X1661D01*
X1641Y827D02*
X1661D01*
X1640Y830D02*
X1661D01*
X1638Y833D02*
X1661D01*
X1635Y836D02*
X1661D01*
X1633Y839D02*
X1661D01*
X1629Y842D02*
X1661D01*
X1584Y845D02*
X1585D01*
X1624D02*
X1661D01*
X1584Y848D02*
X1592D01*
X1617D02*
X1661D01*
X1584Y851D02*
X1661D01*
X1584Y854D02*
X1661D01*
X1584Y857D02*
X1661D01*
X1584Y860D02*
X1661D01*
X1584Y863D02*
X1661D01*
X1584Y866D02*
X1661D01*
X1583Y869D02*
X1661D01*
X1583Y872D02*
X1661D01*
X1582Y875D02*
X1661D01*
X1580Y878D02*
X1732D01*
X1578Y881D02*
X1732D01*
X1575Y884D02*
X1732D01*
X1572Y887D02*
X1732D01*
X1569Y890D02*
X1622D01*
X1650D02*
X1732D01*
X1566Y893D02*
X1616D01*
X1657D02*
X1732D01*
X1563Y896D02*
X1612D01*
X1661D02*
X1732D01*
X1560Y899D02*
X1608D01*
X1665D02*
X1732D01*
X1557Y902D02*
X1605D01*
X1667D02*
X1732D01*
X1554Y905D02*
X1603D01*
X1551Y908D02*
X1601D01*
X1548Y911D02*
X1600D01*
X1545Y914D02*
X1599D01*
X1542Y917D02*
X1598D01*
X1539Y920D02*
X1597D01*
X1536Y923D02*
X1596D01*
X1533Y926D02*
X1596D01*
X1530Y929D02*
X1596D01*
X1527Y932D02*
X1541D01*
X1524Y935D02*
X1541D01*
X1521Y938D02*
X1541D01*
X1518Y941D02*
X1541D01*
X1515Y944D02*
X1541D01*
X1514Y947D02*
X1541D01*
X1446Y950D02*
X1458D01*
X1514D02*
X1541D01*
X1446Y953D02*
X1458D01*
X1514D02*
X1541D01*
X1446Y956D02*
X1458D01*
X1514D02*
X1541D01*
X1446Y959D02*
X1458D01*
X1514D02*
X1541D01*
X1446Y962D02*
X1458D01*
X1514D02*
X1541D01*
X1446Y965D02*
X1458D01*
X1514D02*
X1541D01*
X1446Y968D02*
X1458D01*
X1514D02*
X1541D01*
X1446Y971D02*
X1458D01*
X1514D02*
X1541D01*
X1446Y974D02*
X1458D01*
X1514D02*
X1541D01*
X1446Y977D02*
X1458D01*
X1514D02*
X1541D01*
X1446Y980D02*
X1458D01*
X1514D02*
X1541D01*
X1446Y983D02*
X1458D01*
X1514D02*
X1541D01*
X1446Y986D02*
X1458D01*
X1514D02*
X1541D01*
X1446Y989D02*
X1458D01*
X1514D02*
X1541D01*
X1446Y992D02*
X1458D01*
X1514D02*
X1541D01*
X1446Y995D02*
X1458D01*
X1514D02*
X1541D01*
X1446Y998D02*
X1458D01*
X1514D02*
X1541D01*
X1653D02*
X1688D01*
X1446Y1001D02*
X1458D01*
X1514D02*
X1541D01*
X1650D02*
X1688D01*
X1446Y1004D02*
X1458D01*
X1514D02*
X1541D01*
X1647D02*
X1688D01*
X1446Y1007D02*
X1458D01*
X1514D02*
X1541D01*
X1644D02*
X1688D01*
X1446Y1010D02*
X1458D01*
X1514D02*
X1541D01*
X1641D02*
X1688D01*
X1446Y1013D02*
X1458D01*
X1514D02*
X1541D01*
X1638D02*
X1688D01*
X1446Y1016D02*
X1541D01*
X1635D02*
X1688D01*
X1446Y1019D02*
X1548D01*
X1632D02*
X1688D01*
X1446Y1022D02*
X1547D01*
X1629D02*
X1688D01*
X1490Y1025D02*
X1546D01*
X1626D02*
X1688D01*
X1490Y1028D02*
X1545D01*
X1625D02*
X1688D01*
X1490Y1031D02*
X1545D01*
X1625D02*
X1688D01*
X1490Y1034D02*
X1545D01*
X1625D02*
X1688D01*
X1490Y1037D02*
X1545D01*
X1625D02*
X1688D01*
X1490Y1040D02*
X1545D01*
X1625D02*
X1688D01*
X1490Y1043D02*
X1546D01*
X1624D02*
X1688D01*
X1490Y1046D02*
X1547D01*
X1643D02*
X1688D01*
X1490Y1049D02*
X1548D01*
X1649D02*
X1688D01*
X1490Y1052D02*
X1549D01*
X1653D02*
X1688D01*
X1490Y1055D02*
X1551D01*
X1656D02*
X1688D01*
X1490Y1058D02*
X1553D01*
X1659D02*
X1688D01*
X1490Y1061D02*
X1555D01*
X1661D02*
X1688D01*
X1490Y1064D02*
X1558D01*
X1663D02*
X1688D01*
X1490Y1067D02*
X1562D01*
X1664D02*
X1688D01*
X1490Y1070D02*
X1567D01*
X1665D02*
X1688D01*
X1490Y1073D02*
X1575D01*
X1666D02*
X1736D01*
X1490Y1076D02*
X1591D01*
X1666D02*
X1739D01*
X1490Y1079D02*
X1590D01*
X1667D02*
X1742D01*
X1490Y1082D02*
X1590D01*
X1667D02*
X1745D01*
X1490Y1085D02*
X1590D01*
X1667D02*
X1748D01*
X1490Y1088D02*
X1591D01*
X1666D02*
X1743D01*
X1490Y1091D02*
X1591D01*
X1666D02*
X1743D01*
X1490Y1094D02*
X1592D01*
X1665D02*
X1743D01*
X1490Y1097D02*
X1593D01*
X1663D02*
X1743D01*
X1490Y1100D02*
X1595D01*
X1662D02*
X1743D01*
X1513Y1103D02*
X1597D01*
X1660D02*
X1743D01*
X1519Y1106D02*
X1599D01*
X1658D02*
X1743D01*
X1522Y1109D02*
X1602D01*
X1655D02*
X1743D01*
X1525Y1112D02*
X1605D01*
X1652D02*
X1743D01*
X1528Y1115D02*
X1610D01*
X1647D02*
X1743D01*
X1531Y1118D02*
X1617D01*
X1640D02*
X1743D01*
X1534Y1121D02*
X1743D01*
X1537Y1124D02*
X1743D01*
X1539Y1127D02*
X1743D01*
X1540Y1130D02*
X1743D01*
X1545Y1133D02*
X1743D01*
X1545Y1136D02*
X1572D01*
X1628D02*
X1743D01*
X1545Y1139D02*
X1572D01*
X1628D02*
X1743D01*
X1545Y1142D02*
X1572D01*
X1628D02*
X1743D01*
X1545Y1145D02*
X1572D01*
X1628D02*
X1743D01*
X1545Y1148D02*
X1572D01*
X1628D02*
X1743D01*
X1545Y1151D02*
X1572D01*
X1628D02*
X1743D01*
X1545Y1154D02*
X1572D01*
X1628D02*
X1743D01*
X1545Y1157D02*
X1572D01*
X1628D02*
X1743D01*
X1545Y1160D02*
X1572D01*
X1628D02*
X1743D01*
X1545Y1163D02*
X1572D01*
X1628D02*
X1743D01*
X1545Y1166D02*
X1572D01*
X1628D02*
X1743D01*
X1545Y1169D02*
X1572D01*
X1628D02*
X1743D01*
X1545Y1172D02*
X1572D01*
X1628D02*
X1661D01*
X1691D02*
X1743D01*
X1545Y1175D02*
X1572D01*
X1628D02*
X1655D01*
X1696D02*
X1743D01*
X1545Y1178D02*
X1572D01*
X1628D02*
X1651D01*
X1700D02*
X1743D01*
X1545Y1181D02*
X1572D01*
X1628D02*
X1648D01*
X1704D02*
X1743D01*
X1545Y1184D02*
X1572D01*
X1628D02*
X1645D01*
X1706D02*
X1743D01*
X1545Y1187D02*
X1572D01*
X1628D02*
X1643D01*
X1708D02*
X1743D01*
X1545Y1190D02*
X1572D01*
X1628D02*
X1642D01*
X1710D02*
X1743D01*
X1545Y1193D02*
X1572D01*
X1628D02*
X1640D01*
X1711D02*
X1743D01*
X1545Y1196D02*
X1572D01*
X1628D02*
X1639D01*
X1712D02*
X1743D01*
X1545Y1199D02*
X1572D01*
X1628D02*
X1638D01*
X1713D02*
X1743D01*
X1545Y1202D02*
X1572D01*
X1628D02*
X1638D01*
X1714D02*
X1743D01*
X1545Y1205D02*
X1572D01*
X1628D02*
X1637D01*
X1714D02*
X1743D01*
X1545Y1208D02*
X1572D01*
X1628D02*
X1637D01*
X1714D02*
X1743D01*
X1545Y1211D02*
X1562D01*
X1628D02*
X1638D01*
X1714D02*
X1743D01*
X1545Y1214D02*
X1553D01*
X1628D02*
X1638D01*
X1713D02*
X1743D01*
X1545Y1217D02*
X1547D01*
X1628D02*
X1639D01*
X1713D02*
X1743D01*
X1596Y1220D02*
X1640D01*
X1712D02*
X1743D01*
X1599Y1223D02*
X1641D01*
X1711D02*
X1743D01*
X1601Y1226D02*
X1642D01*
X1709D02*
X1743D01*
X1603Y1229D02*
X1644D01*
X1707D02*
X1743D01*
X1605Y1232D02*
X1646D01*
X1705D02*
X1743D01*
X1607Y1235D02*
X1649D01*
X1702D02*
X1743D01*
X1608Y1238D02*
X1653D01*
X1699D02*
X1743D01*
X1609Y1241D02*
X1657D01*
X1694D02*
X1743D01*
X1609Y1244D02*
X1665D01*
X1687D02*
X1743D01*
X1610Y1247D02*
X1743D01*
X1610Y1250D02*
X1743D01*
X1610Y1253D02*
X1743D01*
X1609Y1256D02*
X1801D01*
X1609Y1259D02*
X1804D01*
X1608Y1262D02*
X1807D01*
X1607Y1265D02*
X1810D01*
X1606Y1268D02*
X1813D01*
X1604Y1271D02*
X1816D01*
X1602Y1274D02*
X1820D01*
X1600Y1277D02*
X1825D01*
X1597Y1280D02*
X1833D01*
X1593Y1283D02*
X1833D01*
X1592Y1286D02*
X1833D01*
X2914Y219D02*
X2901Y218D01*
X2889Y213*
X2877Y206*
X2868Y197*
X2861Y186*
X2857Y173*
X2855Y160*
X2857Y147*
X2861Y134*
X2868Y123*
X2877Y114*
X2889Y107*
X2901Y102*
X2914Y101*
X2927Y102*
X2940Y107*
X2951Y114*
X2960Y123*
X2968Y134*
X2972Y147*
X2973Y160*
X2972Y173*
X2968Y186*
X2960Y197*
X2951Y206*
X2940Y213*
X2927Y218*
X2914Y219*
Y1723D02*
X2901Y1721D01*
X2889Y1717*
X2877Y1710*
X2868Y1701*
X2861Y1690*
X2857Y1677*
X2855Y1664*
X2857Y1651*
X2861Y1638*
X2868Y1627*
X2877Y1618*
X2889Y1611*
X2901Y1606*
X2914Y1605*
X2927Y1606*
X2940Y1611*
X2951Y1618*
X2960Y1627*
X2968Y1638*
X2972Y1651*
X2973Y1664*
X2972Y1677*
X2968Y1690*
X2960Y1701*
X2951Y1710*
X2940Y1717*
X2927Y1721*
X2914Y1723*
D02*
D92*
X99Y487D02*
X75D01*
X99Y1299D02*
X75D01*
X117Y469D02*
Y445D01*
Y505D02*
Y528D01*
X121Y1291D02*
Y1267D01*
Y1306D02*
Y1330D01*
Y1477D02*
Y1384D01*
X135Y487D02*
X158D01*
X142Y1299D02*
X166D01*
X248Y1278D02*
X224D01*
X268Y1471D02*
X244D01*
X282Y1300D02*
Y1323D01*
X286Y1453D02*
Y1429D01*
Y1489D02*
Y1513D01*
X311Y428D02*
X288D01*
X329Y410D02*
Y386D01*
Y446D02*
Y469D01*
X337Y1453D02*
Y1429D01*
Y1489D02*
Y1513D01*
X347Y428D02*
X371D01*
X388Y1453D02*
Y1429D01*
Y1489D02*
Y1513D01*
X406Y1471D02*
X430D01*
X426Y389D02*
X402D01*
X447Y381D02*
Y358D01*
Y397D02*
Y421D01*
X451Y575D02*
Y478D01*
X447Y474*
X469Y389D02*
X493D01*
X532Y786D02*
X508D01*
X550Y768D02*
Y744D01*
Y804D02*
Y828D01*
X568Y786D02*
X591D01*
X610Y1180D02*
X587D01*
X628Y1162D02*
Y1138D01*
X784Y317D02*
X760D01*
X808Y264D02*
Y240D01*
Y370D02*
Y393D01*
X831Y317D02*
X855D01*
X913Y912D02*
X875D01*
X916Y1237D02*
Y1171D01*
X990Y912D02*
X966D01*
X998Y890D02*
Y867D01*
Y934D02*
Y957D01*
X1006Y912D02*
X1029D01*
X1062D02*
X1039D01*
X1070Y890D02*
Y867D01*
Y934D02*
Y957D01*
X1078Y912D02*
X1102D01*
X1095Y589D02*
X1071D01*
X1095Y731D02*
X1071D01*
X1113Y571D02*
Y547D01*
Y607D02*
Y631D01*
Y713D02*
Y689D01*
Y749D02*
Y773D01*
X1131Y589D02*
X1154D01*
X1131Y731D02*
X1154D01*
X1155Y912D02*
X1193D01*
X1165Y542D02*
X1141D01*
X1173Y564D02*
Y587D01*
X1180Y542D02*
X1204D01*
X1200Y731D02*
X1177D01*
X1208Y709D02*
Y686D01*
Y753D02*
Y776D01*
X1216Y731D02*
X1240D01*
X1258Y542D02*
Y576D01*
X1262Y581*
X1420*
X1293Y731D02*
X1335D01*
X1353Y749*
X1300Y1062D02*
X1373D01*
X1377Y1065*
X1332Y489D02*
X1329Y487D01*
X1298*
X1351Y912D02*
X1327D01*
X1353Y749D02*
X1385D01*
X1485Y848*
Y856*
X1361Y1251D02*
Y1219D01*
X1320Y1178*
X1205*
X1366Y825D02*
X1353Y839D01*
X1369Y930D02*
Y954D01*
X1408Y1165D02*
X1404D01*
Y1128*
X1408Y1250D02*
X1362D01*
X1361Y1251*
X1420Y581D02*
Y593D01*
X1423Y596*
X1422Y542D02*
Y580D01*
X1420Y581*
X1462Y1044D02*
Y1020D01*
X1470Y1065D02*
X1494D01*
X1478Y973D02*
X1454D01*
X1486Y995D02*
Y1019D01*
X1494Y973D02*
X1517D01*
X1499Y666D02*
X1475D01*
X1500Y542D02*
X1477D01*
X1508Y564D02*
Y587D01*
X1513Y637D02*
Y613D01*
Y696D02*
Y719D01*
X1514Y1187D02*
X1515Y1186D01*
Y1176*
X1571Y973D02*
Y1020D01*
X1573Y1021*
X1592Y1176D02*
X1569D01*
X1593Y542D02*
X1605D01*
Y557*
X1591Y570*
Y786*
X1596Y794*
X1598Y1021D02*
X1644Y975D01*
X1747*
X1600Y1154D02*
Y1130D01*
X1608Y1176D02*
X1632D01*
X1610Y1081D02*
X1587D01*
X1628Y1099D02*
Y1123D01*
X1633Y696D02*
Y719D01*
X1646Y666D02*
X1670D01*
X1647Y1081D02*
X1670D01*
X1653Y935D02*
X1703D01*
X1658Y1207D02*
X1634D01*
X1676Y627D02*
Y651D01*
Y1189D02*
Y1165D01*
Y1225D02*
Y1249D01*
X1682Y850D02*
X1658D01*
X1688Y542D02*
X1711D01*
X1694Y609D02*
X1717D01*
X1694Y1207D02*
X1717D01*
X1703Y842D02*
Y818D01*
Y858D02*
Y881D01*
X1708Y1030D02*
X1684D01*
X1716Y1052D02*
Y1075D01*
X1747Y975D02*
X1754Y967D01*
Y1058*
X1774Y1077*
X1802*
X1810Y1085*
Y1231*
X1833Y1254*
X1853*
X1754Y760D02*
Y552D01*
X1765Y542*
X1754Y796D02*
Y967D01*
X1747Y975*
X1761Y1119D02*
X1740Y1097D01*
X1761Y1138D02*
X1740Y1160D01*
X1763Y1211D02*
X1740D01*
X1771Y1233D02*
Y1256D01*
X1801Y1030D02*
Y921D01*
X1802Y920*
X1747Y975*
X1853Y1254D02*
X1932D01*
X1933Y1256*
X1856Y1211D02*
Y1251D01*
X1853Y1254*
X1947Y1072D02*
Y1106D01*
X1925Y1128*
X1856*
X1957Y908D02*
X1814D01*
X1802Y920*
X2006Y1107D02*
Y1286D01*
X1983Y1310*
X1581*
X1569Y1298*
Y1268*
X2065Y1139D02*
Y1298D01*
X2026Y1337*
X1396*
X1361Y1302*
Y1251*
X2066Y1043D02*
X2105Y1081D01*
Y1310*
X2050Y1365*
X1377*
X1317Y1306*
Y1247*
X1298Y1227*
X1140*
X1111Y1198*
Y1146*
X2111Y922D02*
X2148Y959D01*
Y1317*
X2073Y1392*
X1262*
X1188Y1317*
Y1288*
X2111Y853D02*
X2152D01*
X2191Y892*
Y1321*
X2093Y1420*
X995*
X916Y1341*
Y1272*
X2585Y1506D02*
X2561D01*
X2608Y1560D02*
Y1583D01*
X2632Y1506D02*
X2656D01*
D02*
D93*
X148Y160D03*
Y1664D03*
X2914Y160D03*
Y1664D03*
D02*
D94*
X280Y823D03*
Y1001D03*
D02*
D95*
X558Y417D03*
Y1406D03*
X558Y317D03*
Y517D03*
Y1306D03*
Y1506D03*
D02*
D96*
X913Y912D03*
X998D03*
X1070D03*
X1155D03*
X1173Y542D03*
X1208Y731D03*
X1258Y542D03*
X1293Y731D03*
X1377Y1065D03*
X1462D03*
X1486Y973D03*
X1508Y542D03*
X1515Y1176D03*
X1571Y973D03*
X1593Y542D03*
X1600Y1176D03*
X1680Y542D03*
X1716Y1030D03*
X1765Y542D03*
X1771Y1128D03*
Y1211D03*
X1801Y1030D03*
X1856Y1128D03*
Y1211D03*
D02*
D97*
X282Y1278D03*
X392Y1279D03*
D02*
D99*
X121Y1495D03*
X195Y1227D03*
X286Y1471D03*
X337D03*
X388D03*
X451Y593D03*
X857Y912D03*
X908Y443D03*
X1211Y912D03*
X1754Y778D03*
D02*
D100*
X117Y487D03*
X329Y428D03*
X550Y786D03*
X628Y1180D03*
X715Y1227D03*
X916Y1254D03*
X1111Y1128D03*
X1113Y589D03*
Y731D03*
X1188Y1178D03*
Y1270D03*
X1282Y1062D03*
X1369Y912D03*
X1436Y609D03*
X1484Y874D03*
X1569Y1251D03*
X1585Y1034D03*
X1605Y810D03*
X1628Y1081D03*
X1636Y928D03*
X1676Y609D03*
Y1207D03*
X1947Y1054D03*
Y1266D03*
X1975Y908D03*
X2006Y1089D03*
X2054Y1030D03*
X2065Y1121D03*
X2093Y853D03*
Y924D03*
D02*
D101*
X392Y1279D02*
X460D01*
X487Y1306*
X532*
X676Y1227D02*
Y1125D01*
X719Y1081*
X1180*
X1227Y1128*
X1404*
X676Y1227D02*
X217D01*
X693D02*
X676D01*
X908Y291D02*
Y208D01*
X975Y140*
X2647*
X2849Y342*
Y1321*
X2774Y1396*
X2530*
X2506Y1420*
Y1481*
X926Y446D02*
X1705D01*
X1763Y503*
Y540*
X1765Y542*
X1298Y487D02*
X1538D01*
X1558Y506*
Y865*
X1499Y924*
X1420*
Y940*
X1298Y487D02*
X727D01*
X680Y440*
Y357*
X640Y317*
X583*
X1332Y542D02*
Y489D01*
X1404Y1128D02*
X1424D01*
X1420Y940D02*
Y841D01*
X1404Y825*
X1366*
X1424Y1128D02*
X1420Y1125D01*
Y940*
X1424Y1128D02*
X1503D01*
X1514Y1140*
Y1176*
X1515*
X1548Y1251D02*
X1526D01*
X1514Y1239*
Y1187*
X2408Y1481D02*
Y1360D01*
X2440Y1329*
X2751*
X2782Y1298*
Y353*
X2636Y207*
X1038*
X1006Y239*
Y291*
X2508Y1532D02*
Y1575D01*
X2467Y1617*
X711*
X668Y1573*
Y1534*
X640Y1506*
X583*
D02*
D109*
X808Y317D03*
X808Y1506D03*
X908Y317D03*
X908Y1506D03*
X1008Y317D03*
X1008Y1506D03*
X1108Y317D03*
X1108Y1506D03*
X1208Y317D03*
X1208Y1506D03*
X1308Y317D03*
X1308Y1506D03*
X1408Y317D03*
X1408Y1506D03*
X1508Y317D03*
X1508Y1506D03*
X1608Y317D03*
X1608Y1506D03*
X1708Y317D03*
X1708Y1506D03*
X1808Y317D03*
X1808Y1506D03*
X1908Y317D03*
X1908Y1506D03*
X2008Y317D03*
X2008Y1506D03*
X2108Y317D03*
X2108Y1506D03*
X2208Y317D03*
X2208Y1506D03*
X2308Y317D03*
X2308Y1506D03*
X2408Y317D03*
X2408Y1506D03*
X2508Y317D03*
X2508Y1506D03*
X2608Y317D03*
X2608Y1506D03*
D02*
D115*
X1332Y542D03*
X1422D03*
D02*
D116*
X1513Y666D03*
X1633D03*
X0Y0D02*
M02*
