%FSLAX23Y23*%
%MOIN*%
G04 EasyPC Gerber Version 15.0.4 Build 3016 *
%ADD112O,0.06506X0.12411*%
%ADD104R,0.03356X0.06112*%
%ADD118R,0.04537X0.07690*%
%ADD153R,0.06100X0.06600*%
%AMT103*0 Octagon Pad at angle 0*4,1,8,-0.01673,-0.04040,0.01673,-0.04040,0.04040,-0.01673,0.04040,0.01673,0.01673,0.04040,-0.01673,0.04040,-0.04040,0.01673,-0.04040,-0.01673,-0.01673,-0.04040,0*%
%ADD103T103*%
%ADD74C,0.00500*%
%ADD12C,0.00787*%
%ADD84R,0.06112X0.03356*%
%ADD117R,0.06600X0.06100*%
%ADD105R,0.08600X0.06100*%
%ADD76R,0.10443X0.08474*%
%ADD102C,0.04943*%
%ADD107C,0.05400*%
%ADD108C,0.05403*%
X0Y0D02*
D02*
D12*
X136Y26D02*
X2928D01*
X2946Y28*
X2964Y32*
X2981Y39*
X2997Y49*
X3011Y61*
X3023Y75*
X3033Y91*
X3040Y108*
X3044Y126*
X3046Y144*
Y1678*
X3044Y1696*
X3040Y1715*
X3033Y1732*
X3023Y1748*
X3011Y1763*
X2996Y1775*
X2980Y1785*
X2963Y1792*
X2945Y1796*
X2926Y1798*
X136*
X117Y1796*
X99Y1792*
X81Y1784*
X65Y1774*
X50Y1762*
X38Y1747*
X28Y1731*
X20Y1713*
X16Y1695*
X14Y1676*
Y148*
X16Y129*
X20Y110*
X28Y93*
X38Y76*
X50Y62*
X65Y49*
X81Y39*
X99Y32*
X117Y28*
X136Y26*
D02*
D74*
X148Y219D02*
X135Y218D01*
X123Y213*
X111Y206*
X102Y197*
X95Y186*
X91Y173*
X89Y160*
X91Y147*
X95Y134*
X102Y123*
X111Y114*
X123Y107*
X135Y102*
X148Y101*
X161Y102*
X174Y107*
X185Y114*
X194Y123*
X201Y134*
X206Y147*
X207Y160*
X206Y173*
X201Y186*
X194Y197*
X185Y206*
X174Y213*
X161Y218*
X148Y219*
Y1723D02*
X135Y1721D01*
X123Y1717*
X111Y1710*
X102Y1701*
X95Y1690*
X91Y1677*
X89Y1664*
X91Y1651*
X95Y1638*
X102Y1627*
X111Y1618*
X123Y1611*
X135Y1606*
X148Y1605*
X161Y1606*
X174Y1611*
X185Y1618*
X194Y1627*
X201Y1638*
X206Y1651*
X207Y1664*
X206Y1677*
X201Y1690*
X194Y1701*
X185Y1710*
X174Y1717*
X161Y1721*
X148Y1723*
X2914Y219D02*
X2901Y218D01*
X2889Y213*
X2877Y206*
X2868Y197*
X2861Y186*
X2857Y173*
X2855Y160*
X2857Y147*
X2861Y134*
X2868Y123*
X2877Y114*
X2889Y107*
X2901Y102*
X2914Y101*
X2927Y102*
X2940Y107*
X2951Y114*
X2960Y123*
X2968Y134*
X2972Y147*
X2973Y160*
X2972Y173*
X2968Y186*
X2960Y197*
X2951Y206*
X2940Y213*
X2927Y218*
X2914Y219*
Y1723D02*
X2901Y1721D01*
X2889Y1717*
X2877Y1710*
X2868Y1701*
X2861Y1690*
X2857Y1677*
X2855Y1664*
X2857Y1651*
X2861Y1638*
X2868Y1627*
X2877Y1618*
X2889Y1611*
X2901Y1606*
X2914Y1605*
X2927Y1606*
X2940Y1611*
X2951Y1618*
X2960Y1627*
X2968Y1638*
X2972Y1651*
X2973Y1664*
X2972Y1677*
X2968Y1690*
X2960Y1701*
X2951Y1710*
X2940Y1717*
X2927Y1721*
X2914Y1723*
D02*
D76*
X162Y736D03*
Y1088D03*
X379Y739D03*
Y1088D03*
D02*
D84*
X121Y1299D03*
Y1384D03*
X447Y389D03*
Y474D03*
X916Y1086D03*
Y1171D03*
X1266Y1137D03*
Y1222D03*
X1408Y1165D03*
Y1250D03*
X1703Y850D03*
Y935D03*
D02*
D102*
X280Y823D03*
Y1001D03*
D02*
D103*
X558Y417D03*
Y1406D03*
X558Y317D03*
Y517D03*
Y1306D03*
Y1506D03*
D02*
D104*
X913Y912D03*
X998D03*
X1070D03*
X1155D03*
X1173Y542D03*
X1208Y731D03*
X1258Y542D03*
X1293Y731D03*
X1377Y1065D03*
X1462D03*
X1486Y973D03*
X1508Y542D03*
X1515Y1176D03*
X1571Y973D03*
X1593Y542D03*
X1600Y1176D03*
X1680Y542D03*
X1716Y1030D03*
X1765Y542D03*
X1771Y1128D03*
Y1211D03*
X1801Y1030D03*
X1856Y1128D03*
Y1211D03*
D02*
D105*
X282Y1278D03*
X392Y1279D03*
D02*
D107*
X121Y1495D03*
X195Y1227D03*
X286Y1471D03*
X337D03*
X388D03*
X451Y593D03*
X857Y912D03*
X908Y443D03*
X1211Y912D03*
X1754Y778D03*
D02*
D108*
X117Y487D03*
X329Y428D03*
X550Y786D03*
X628Y1180D03*
X715Y1227D03*
X916Y1254D03*
X1111Y1128D03*
X1113Y589D03*
Y731D03*
X1188Y1178D03*
Y1270D03*
X1282Y1062D03*
X1369Y912D03*
X1436Y609D03*
X1484Y874D03*
X1569Y1251D03*
X1585Y1034D03*
X1605Y810D03*
X1628Y1081D03*
X1636Y928D03*
X1676Y609D03*
Y1207D03*
X1947Y1054D03*
Y1266D03*
X1975Y908D03*
X2006Y1089D03*
X2054Y1030D03*
X2065Y1121D03*
X2093Y853D03*
Y924D03*
D02*
D112*
X808Y317D03*
X808Y1506D03*
X908Y317D03*
X908Y1506D03*
X1008Y317D03*
X1008Y1506D03*
X1108Y317D03*
X1108Y1506D03*
X1208Y317D03*
X1208Y1506D03*
X1308Y317D03*
X1308Y1506D03*
X1408Y317D03*
X1408Y1506D03*
X1508Y317D03*
X1508Y1506D03*
X1608Y317D03*
X1608Y1506D03*
X1708Y317D03*
X1708Y1506D03*
X1808Y317D03*
X1808Y1506D03*
X1908Y317D03*
X1908Y1506D03*
X2008Y317D03*
X2008Y1506D03*
X2108Y317D03*
X2108Y1506D03*
X2208Y317D03*
X2208Y1506D03*
X2308Y317D03*
X2308Y1506D03*
X2408Y317D03*
X2408Y1506D03*
X2508Y317D03*
X2508Y1506D03*
X2608Y317D03*
X2608Y1506D03*
D02*
D117*
X1332Y542D03*
X1422D03*
D02*
D118*
X1513Y666D03*
X1633D03*
D02*
D153*
X1353Y749D03*
Y839D03*
X0Y0D02*
M02*
