%FSLAX23Y23*%
%MOIN*%
G04 EasyPC Gerber Version 15.0.4 Build 3016 *
%ADD23R,0.02700X0.05000*%
%ADD24R,0.02700X0.17500*%
%ADD96R,0.02756X0.05512*%
%ADD119R,0.06300X0.10630*%
%ADD98R,0.06300X0.06300*%
%AMT95*0 Octagon Pad at angle 0*4,1,8,-0.01549,-0.03740,0.01549,-0.03740,0.03740,-0.01549,0.03740,0.01549,0.01549,0.03740,-0.01549,0.03740,-0.03740,0.01549,-0.03740,-0.01549,-0.01549,-0.03740,0*1,0,0.03150,0,0*%
%ADD95T95*%
%AMT20*0 Finger Pad at angle 45*1,1,0.01181,-0.01253,0.01253*1,1,0.01181,0.01253,-0.01253*21,1,0.01181,0.03543,0,0,45*%
%ADD20T20*%
%AMT27*0 Bullet Pad at angle 90*21,1,0.07000,0.04374,0,0,90*%
%ADD27T27*%
%ADD21O,0.07200X0.02500*%
%ADD109O,0.05906X0.11811X0.03150*%
%ADD111R,0.03937X0.01969*%
%ADD18R,0.09843X0.01969*%
%AMT71*0 Finger Pad at angle 135*1,1,0.01181,-0.01253,-0.01253*1,1,0.01181,0.01253,0.01253*21,1,0.01181,0.03543,0,0,135*%
%ADD71T71*%
%ADD25R,0.05512X0.02756*%
%ADD74C,0.00500*%
%ADD12C,0.00787*%
%ADD13C,0.00984*%
%ADD92C,0.01181*%
%ADD91C,0.01378*%
%ADD97R,0.08000X0.05500*%
%ADD73R,0.08000X0.06300*%
%ADD19R,0.09843X0.07874*%
%ADD101C,0.01969*%
%ADD94C,0.04343X0.03543*%
%ADD22R,0.17717X0.11811*%
%ADD28C,0.07000*%
%AMT29*0 Bullet Pad at angle 270*21,1,0.07000,0.04374,0,0,270*%
%ADD29T29*%
%ADD99C,0.04800X0.02400*%
%ADD100C,0.04803X0.02402*%
%ADD93C,0.23622X0.11811*%
X0Y0D02*
D02*
D12*
X136Y26D02*
X2928D01*
X2946Y28*
X2964Y32*
X2981Y39*
X2997Y49*
X3011Y61*
X3023Y75*
X3033Y91*
X3040Y108*
X3044Y126*
X3046Y144*
Y1678*
X3044Y1696*
X3040Y1715*
X3033Y1732*
X3023Y1748*
X3011Y1763*
X2996Y1775*
X2980Y1785*
X2963Y1792*
X2945Y1796*
X2926Y1798*
X136*
X117Y1796*
X99Y1792*
X81Y1784*
X65Y1774*
X50Y1762*
X38Y1747*
X28Y1731*
X20Y1713*
X16Y1695*
X14Y1676*
Y148*
X16Y129*
X20Y110*
X28Y93*
X38Y76*
X50Y62*
X65Y49*
X81Y39*
X99Y32*
X117Y28*
X136Y26*
X211Y581D02*
Y610D01*
X228*
X233Y608*
X236Y603*
X233Y598*
X228Y596*
X211*
X228D02*
X236Y581D01*
X251D02*
Y610D01*
X275*
X270Y596D02*
X251D01*
Y581D02*
X275D01*
X290Y588D02*
X292Y583D01*
X297Y581*
X307*
X312Y583*
X315Y588*
X312Y593*
X307Y596*
X297*
X292Y598*
X290Y603*
X292Y608*
X297Y610*
X307*
X312Y608*
X315Y603*
X329Y581D02*
Y610D01*
X354*
X349Y596D02*
X329D01*
Y581D02*
X354D01*
X381D02*
Y610D01*
X369D02*
X393D01*
X636Y1442D02*
Y1472D01*
X660*
X655Y1457D02*
X636D01*
Y1442D02*
X660D01*
X675D02*
X695Y1462D01*
Y1442D02*
X675Y1462D01*
X639Y1339D02*
X644Y1337D01*
X651*
X656Y1339*
X658Y1344*
Y1346*
X656Y1351*
X651Y1354*
X639*
Y1366*
X658*
X678D02*
X690Y1337D01*
X703Y1366*
X2904Y419D02*
X2916Y449D01*
X2929Y419*
X2909Y432D02*
X2924D01*
X2956Y419D02*
Y449D01*
X2943D02*
X2968D01*
X2983Y419D02*
X3003Y439D01*
Y419D02*
X2983Y439D01*
X2904Y553D02*
X2916Y583D01*
X2929Y553*
X2909Y565D02*
X2924D01*
X2943Y553D02*
Y583D01*
X2961*
X2966Y580*
X2968Y575*
X2966Y570*
X2961Y568*
X2943*
X2961D02*
X2968Y553D01*
X2983D02*
X3003Y573D01*
Y553D02*
X2983Y573D01*
X2921Y710D02*
X2926Y707D01*
X2929Y702*
X2926Y697*
X2921Y695*
X2904*
Y724*
X2921*
X2926Y722*
X2929Y717*
X2926Y712*
X2921Y710*
X2904*
X2956Y695D02*
Y724D01*
X2943D02*
X2968D01*
X2983Y695D02*
X3003Y715D01*
Y695D02*
X2983Y715D01*
X2921Y844D02*
X2926Y841D01*
X2929Y836*
X2926Y831*
X2921Y829*
X2904*
Y858*
X2921*
X2926Y856*
X2929Y851*
X2926Y846*
X2921Y844*
X2904*
X2943Y829D02*
Y858D01*
X2961*
X2966Y856*
X2968Y851*
X2966Y846*
X2961Y844*
X2943*
X2961D02*
X2968Y829D01*
X2983D02*
X3003Y848D01*
Y829D02*
X2983Y848D01*
X2929Y975D02*
X2926Y973D01*
X2921Y971*
X2914*
X2909Y973*
X2907Y975*
X2904Y980*
Y990*
X2907Y995*
X2909Y998*
X2914Y1000*
X2921*
X2926Y998*
X2929Y995*
X2956Y971D02*
Y1000D01*
X2943D02*
X2968D01*
X2983Y971D02*
X3003Y990D01*
Y971D02*
X2983Y990D01*
X2929Y1109D02*
X2926Y1107D01*
X2921Y1104*
X2914*
X2909Y1107*
X2907Y1109*
X2904Y1114*
Y1124*
X2907Y1129*
X2909Y1131*
X2914Y1134*
X2921*
X2926Y1131*
X2929Y1129*
X2943Y1104D02*
Y1134D01*
X2961*
X2966Y1131*
X2968Y1127*
X2966Y1122*
X2961Y1119*
X2943*
X2961D02*
X2968Y1104D01*
X2983D02*
X3003Y1124D01*
Y1104D02*
X2983Y1124D01*
X2904Y1246D02*
Y1276D01*
X2919*
X2924Y1273*
X2926Y1271*
X2929Y1266*
Y1256*
X2926Y1251*
X2924Y1249*
X2919Y1246*
X2904*
X2956D02*
Y1276D01*
X2943D02*
X2968D01*
X2983Y1246D02*
X3003Y1266D01*
Y1246D02*
X2983Y1266D01*
X2904Y1380D02*
Y1409D01*
X2919*
X2924Y1407*
X2926Y1405*
X2929Y1400*
Y1390*
X2926Y1385*
X2924Y1382*
X2919Y1380*
X2904*
X2943D02*
Y1409D01*
X2961*
X2966Y1407*
X2968Y1402*
X2966Y1397*
X2961Y1395*
X2943*
X2961D02*
X2968Y1380D01*
X2983D02*
X3003Y1400D01*
Y1380D02*
X2983Y1400D01*
D02*
D13*
X384Y1636D02*
Y1680D01*
X410*
X418Y1676*
X421Y1669*
X418Y1661*
X410Y1658*
X384*
X443Y1665D02*
Y1639D01*
X447Y1636*
X455*
X458Y1639*
Y1650*
Y1639D02*
X462Y1636D01*
X469*
X473Y1639*
Y1665*
X502Y1636D02*
Y1665D01*
Y1654D02*
X506Y1661D01*
X514Y1665*
X521*
X528Y1661*
X562Y1647D02*
X565Y1639D01*
X573Y1636*
X587*
X595Y1639*
X598Y1647*
X595Y1654*
X587Y1658*
X573*
X565Y1661*
X562Y1669*
X565Y1676*
X573Y1680*
X587*
X595Y1676*
X598Y1669*
X650Y1639D02*
X646Y1636D01*
X639*
X632*
X624Y1639*
X621Y1647*
Y1658*
X624Y1661*
X632Y1665*
X639*
X646Y1661*
X650Y1658*
Y1654*
X646Y1650*
X639Y1647*
X632*
X624Y1650*
X621Y1654*
X698Y1636D02*
X694D01*
Y1680*
X396Y231D02*
X415Y187D01*
X433Y231*
X466Y187D02*
X481D01*
X474D02*
Y231D01*
X466D02*
X481D01*
X514Y202D02*
Y216D01*
X518Y224*
X522Y227*
X529Y231*
X536*
X544Y227*
X548Y224*
X551Y216*
Y202*
X548Y194*
X544Y190*
X536Y187*
X529*
X522Y190*
X518Y194*
X514Y202*
X573Y198D02*
X577Y190D01*
X584Y187*
X599*
X607Y190*
X610Y198*
X607Y205*
X599Y209*
X584*
X577Y213*
X573Y220*
X577Y227*
X584Y231*
X599*
X607Y227*
X610Y220*
X662Y190D02*
X658Y187D01*
X651*
X643*
X636Y190*
X632Y198*
Y209*
X636Y213*
X643Y216*
X651*
X658Y213*
X662Y209*
Y205*
X658Y202*
X651Y198*
X643*
X636Y202*
X632Y205*
X710Y187D02*
X706D01*
Y231*
X804Y217D02*
Y206D01*
X800*
X793Y209*
X789Y213*
X785Y221*
Y228*
X789Y235*
X793Y239*
X800Y243*
X815*
X822Y239*
X826Y235*
X830Y228*
Y221*
X826Y213*
X822Y209*
X815Y206*
X785Y184D02*
X830D01*
X785Y147*
X830*
X785Y125D02*
X830D01*
Y102*
X826Y95*
X822Y91*
X815Y88*
X800*
X793Y91*
X789Y95*
X785Y102*
Y125*
X798Y1584D02*
X827Y1629D01*
X798*
X888Y243D02*
X932D01*
Y217*
X928Y209*
X921Y206*
X913Y209*
X910Y217*
Y243*
X932Y184D02*
X888Y180D01*
X910Y165*
X888Y150*
X932Y147*
X888Y125D02*
X932D01*
Y99*
X928Y91*
X921Y88*
X913Y91*
X910Y99*
Y125*
Y99D02*
X888Y88D01*
X896Y1596D02*
X900Y1603D01*
X907Y1607*
X915*
X922Y1603*
X926Y1596*
X922Y1588*
X915Y1584*
X907*
X900Y1588*
X896Y1596*
Y1607*
X900Y1618*
X907Y1625*
X915Y1629*
X1034Y243D02*
X990Y224D01*
X1034Y206*
X990Y173D02*
Y158D01*
Y165D02*
X1034D01*
Y173D02*
Y158D01*
X1005Y125D02*
X1019D01*
X1027Y121*
X1031Y117*
X1034Y110*
Y102*
X1031Y95*
X1027Y91*
X1019Y88*
X1005*
X997Y91*
X994Y95*
X990Y102*
Y110*
X994Y117*
X997Y121*
X1005Y125*
X995Y1588D02*
X1002Y1584D01*
X1013*
X1020Y1588*
X1024Y1596*
Y1599*
X1020Y1607*
X1013Y1610*
X995*
Y1629*
X1024*
X1022Y1667D02*
Y1711D01*
X1044*
X1052Y1708*
X1055Y1704*
X1059Y1697*
Y1682*
X1055Y1675*
X1052Y1671*
X1044Y1667*
X1022*
X1081D02*
Y1711D01*
X1103*
X1111Y1708*
X1114Y1704*
X1118Y1697*
Y1682*
X1114Y1675*
X1111Y1671*
X1103Y1667*
X1081*
X1166Y1689D02*
X1174Y1686D01*
X1177Y1678*
X1174Y1671*
X1166Y1667*
X1140*
Y1711*
X1166*
X1174Y1708*
X1177Y1700*
X1174Y1693*
X1166Y1689*
X1140*
X1199Y1711D02*
Y1678D01*
X1203Y1671*
X1210Y1667*
X1225*
X1233Y1671*
X1236Y1678*
Y1711*
X1258Y1678D02*
X1262Y1671D01*
X1269Y1667*
X1284*
X1292Y1671*
X1295Y1678*
X1292Y1686*
X1284Y1689*
X1269*
X1262Y1693*
X1258Y1700*
X1262Y1708*
X1269Y1711*
X1284*
X1292Y1708*
X1295Y1700*
X1097Y198D02*
X1104Y195D01*
X1112*
X1119Y198*
X1123Y206*
Y228*
X1119Y235*
X1112Y239*
X1104*
X1097Y235*
X1093Y228*
Y206*
X1097Y198*
X1119Y235*
X1112Y1584D02*
Y1629D01*
X1093Y1599*
X1123*
X1199Y195D02*
X1214D01*
X1206D02*
Y239D01*
X1199Y232*
X1199Y1588D02*
X1206Y1584D01*
X1214*
X1221Y1588*
X1225Y1596*
X1221Y1603*
X1214Y1607*
X1206*
X1214D02*
X1221Y1610D01*
X1225Y1618*
X1221Y1625*
X1214Y1629*
X1206*
X1199Y1625*
X1319Y195D02*
X1290D01*
X1316Y221*
X1319Y228*
X1316Y235*
X1308Y239*
X1297*
X1290Y235*
X1327Y1584D02*
X1298D01*
X1324Y1610*
X1327Y1618*
X1324Y1625*
X1316Y1629*
X1305*
X1298Y1625*
X1325Y112D02*
X1344Y156D01*
X1362Y112*
X1333Y130D02*
X1355D01*
X1384Y112D02*
Y156D01*
X1407*
X1414Y153*
X1418Y149*
X1421Y142*
Y127*
X1418Y119*
X1414Y116*
X1407Y112*
X1384*
X1469Y134D02*
X1477Y130D01*
X1480Y123*
X1477Y116*
X1469Y112*
X1443*
Y156*
X1469*
X1477Y153*
X1480Y145*
X1477Y138*
X1469Y134*
X1443*
X1503Y156D02*
Y123D01*
X1506Y116*
X1514Y112*
X1528*
X1536Y116*
X1539Y123*
Y156*
X1562Y123D02*
X1565Y116D01*
X1573Y112*
X1587*
X1595Y116*
X1598Y123*
X1595Y130*
X1587Y134*
X1573*
X1565Y138*
X1562Y145*
X1565Y153*
X1573Y156*
X1587*
X1595Y153*
X1598Y145*
X1396Y198D02*
X1403Y195D01*
X1411*
X1418Y198*
X1422Y206*
X1418Y213*
X1411Y217*
X1403*
X1411D02*
X1418Y221D01*
X1422Y228*
X1418Y235*
X1411Y239*
X1403*
X1396Y235*
X1404Y1584D02*
X1418D01*
X1411D02*
Y1629D01*
X1404Y1621*
X1509Y195D02*
Y239D01*
X1491Y209*
X1520*
X1498Y1588D02*
X1506Y1584D01*
X1513*
X1520Y1588*
X1524Y1596*
Y1618*
X1520Y1625*
X1513Y1629*
X1506*
X1498Y1625*
X1495Y1618*
Y1596*
X1498Y1588*
X1520Y1625*
X1593Y198D02*
X1600Y195D01*
X1612*
X1619Y198*
X1623Y206*
Y209*
X1619Y217*
X1612Y221*
X1593*
Y239*
X1623*
X1597Y1584D02*
X1627Y1629D01*
X1597*
X1691Y206D02*
X1695Y213D01*
X1703Y217*
X1710*
X1717Y213*
X1721Y206*
X1717Y198*
X1710Y195*
X1703*
X1695Y198*
X1691Y206*
Y217*
X1695Y228*
X1703Y235*
X1710Y239*
X1695Y1596D02*
X1699Y1603D01*
X1706Y1607*
X1714*
X1721Y1603*
X1725Y1596*
X1721Y1588*
X1714Y1584*
X1706*
X1699Y1588*
X1695Y1596*
Y1607*
X1699Y1618*
X1706Y1625*
X1714Y1629*
X1794Y195D02*
X1823Y239D01*
X1794*
Y1588D02*
X1801Y1584D01*
X1812*
X1820Y1588*
X1823Y1596*
Y1599*
X1820Y1607*
X1812Y1610*
X1794*
Y1629*
X1823*
X1858Y1675D02*
X1855Y1671D01*
X1847Y1667*
X1836*
X1829Y1671*
X1825Y1675*
X1821Y1682*
Y1697*
X1825Y1704*
X1829Y1708*
X1836Y1711*
X1847*
X1855Y1708*
X1858Y1704*
X1880Y1667D02*
Y1711D01*
X1903*
X1910Y1708*
X1914Y1704*
X1917Y1697*
Y1682*
X1914Y1675*
X1910Y1671*
X1903Y1667*
X1880*
X1965Y1689D02*
X1973Y1686D01*
X1976Y1678*
X1973Y1671*
X1965Y1667*
X1940*
Y1711*
X1965*
X1973Y1708*
X1976Y1700*
X1973Y1693*
X1965Y1689*
X1940*
X1999Y1711D02*
Y1678D01*
X2002Y1671*
X2010Y1667*
X2024*
X2032Y1671*
X2035Y1678*
Y1711*
X2058Y1678D02*
X2061Y1671D01*
X2069Y1667*
X2083*
X2091Y1671*
X2095Y1678*
X2091Y1686*
X2083Y1689*
X2069*
X2061Y1693*
X2058Y1700*
X2061Y1708*
X2069Y1711*
X2083*
X2091Y1708*
X2095Y1700*
X1896Y198D02*
X1903Y195D01*
X1911*
X1918Y198*
X1922Y206*
Y228*
X1918Y235*
X1911Y239*
X1903*
X1896Y235*
X1892Y228*
Y206*
X1896Y198*
X1918Y235*
X1911Y1584D02*
Y1629D01*
X1892Y1599*
X1922*
X1998Y195D02*
X2013D01*
X2005D02*
Y239D01*
X1998Y232*
X1998Y1588D02*
X2006Y1584D01*
X2013*
X2020Y1588*
X2024Y1596*
X2020Y1603*
X2013Y1607*
X2006*
X2013D02*
X2020Y1610D01*
X2024Y1618*
X2020Y1625*
X2013Y1629*
X2006*
X1998Y1625*
X2119Y195D02*
X2089D01*
X2115Y221*
X2119Y228*
X2115Y235*
X2108Y239*
X2096*
X2089Y235*
X2127Y1584D02*
X2097D01*
X2123Y1610*
X2127Y1618*
X2123Y1625*
X2115Y1629*
X2104*
X2097Y1625*
X2154Y134D02*
X2162Y130D01*
X2165Y123*
X2162Y116*
X2154Y112*
X2128*
Y156*
X2154*
X2162Y153*
X2165Y145*
X2162Y138*
X2154Y134*
X2128*
X2188Y112D02*
Y156D01*
X2210*
X2217Y153*
X2221Y149*
X2224Y142*
Y127*
X2221Y119*
X2217Y116*
X2210Y112*
X2188*
X2272Y134D02*
X2280Y130D01*
X2284Y123*
X2280Y116*
X2272Y112*
X2247*
Y156*
X2272*
X2280Y153*
X2284Y145*
X2280Y138*
X2272Y134*
X2247*
X2306Y156D02*
Y123D01*
X2309Y116*
X2317Y112*
X2331*
X2339Y116*
X2343Y123*
Y156*
X2365Y123D02*
X2368Y116D01*
X2376Y112*
X2391*
X2398Y116*
X2402Y123*
X2398Y130*
X2391Y134*
X2376*
X2368Y138*
X2365Y145*
X2368Y153*
X2376Y156*
X2391*
X2398Y153*
X2402Y145*
X2195Y198D02*
X2203Y195D01*
X2210*
X2217Y198*
X2221Y206*
X2217Y213*
X2210Y217*
X2203*
X2210D02*
X2217Y221D01*
X2221Y228*
X2217Y235*
X2210Y239*
X2203*
X2195Y235*
X2203Y1584D02*
X2218D01*
X2210D02*
Y1629D01*
X2203Y1621*
X2308Y195D02*
Y239D01*
X2290Y209*
X2319*
X2298Y1588D02*
X2305Y1584D01*
X2312*
X2320Y1588*
X2323Y1596*
Y1618*
X2320Y1625*
X2312Y1629*
X2305*
X2298Y1625*
X2294Y1618*
Y1596*
X2298Y1588*
X2320Y1625*
X2432Y1735D02*
X2388Y1716D01*
X2432Y1698*
X2388Y1665D02*
Y1650D01*
Y1657D02*
X2432D01*
Y1665D02*
Y1650D01*
X2402Y1617D02*
X2417D01*
X2425Y1613*
X2428Y1609*
X2432Y1602*
Y1595*
X2428Y1587*
X2425Y1583*
X2417Y1580*
X2402*
X2395Y1583*
X2391Y1587*
X2388Y1595*
Y1602*
X2391Y1609*
X2395Y1613*
X2402Y1617*
X2392Y198D02*
X2400Y195D01*
X2411*
X2418Y198*
X2422Y206*
Y209*
X2418Y217*
X2411Y221*
X2392*
Y239*
X2422*
X2490Y1735D02*
X2534D01*
Y1709*
X2531Y1702*
X2523Y1698*
X2516Y1702*
X2512Y1709*
Y1735*
X2534Y1676D02*
X2490Y1672D01*
X2512Y1657*
X2490Y1643*
X2534Y1639*
X2490Y1617D02*
X2534D01*
Y1591*
X2531Y1583*
X2523Y1580*
X2516Y1583*
X2512Y1591*
Y1617*
Y1591D02*
X2490Y1580D01*
X2491Y206D02*
X2494Y213D01*
X2502Y217*
X2509*
X2517Y213*
X2520Y206*
X2517Y198*
X2509Y195*
X2502*
X2494Y198*
X2491Y206*
Y217*
X2494Y228*
X2502Y235*
X2509Y239*
X2603Y1709D02*
Y1698D01*
X2599*
X2592Y1702*
X2588Y1705*
X2584Y1713*
Y1720*
X2588Y1727*
X2592Y1731*
X2599Y1735*
X2614*
X2621Y1731*
X2625Y1727*
X2629Y1720*
Y1713*
X2625Y1705*
X2621Y1702*
X2614Y1698*
X2584Y1676D02*
X2629D01*
X2584Y1639*
X2629*
X2584Y1617D02*
X2629D01*
Y1595*
X2625Y1587*
X2621Y1583*
X2614Y1580*
X2599*
X2592Y1583*
X2588Y1587*
X2584Y1595*
Y1617*
X2593Y195D02*
X2623Y239D01*
X2593*
D02*
D18*
X378Y849D03*
Y880D03*
Y912D03*
Y943D03*
Y975D03*
D02*
D19*
X162Y735D03*
Y1089D03*
X378Y739D03*
Y1089D03*
D02*
D71*
X1413Y860D03*
X1427Y847D03*
X1441Y833D03*
X1455Y819D03*
X1469Y805D03*
X1483Y791D03*
X1497Y777D03*
X1511Y763D03*
X1525Y749D03*
X1539Y735D03*
X1553Y721D03*
X1567Y707D03*
X1581Y693D03*
X1594Y679D03*
X1608Y666D03*
X1622Y652D03*
X1725Y1172D03*
X1739Y1158D03*
X1753Y1144D03*
X1767Y1130D03*
X1781Y1117D03*
X1795Y1103D03*
X1809Y1089D03*
X1823Y1075D03*
X1837Y1061D03*
X1851Y1047D03*
X1864Y1033D03*
X1878Y1019D03*
X1892Y1005D03*
X1906Y991D03*
X1920Y977D03*
X1934Y963D03*
D02*
D20*
X1413D03*
X1427Y977D03*
X1441Y991D03*
X1455Y1005D03*
X1469Y1019D03*
X1483Y1033D03*
X1497Y1047D03*
X1511Y1061D03*
X1525Y1075D03*
X1539Y1089D03*
X1553Y1103D03*
X1567Y1117D03*
X1581Y1130D03*
X1594Y1144D03*
X1608Y1158D03*
X1622Y1172D03*
X1725Y652D03*
X1739Y666D03*
X1753Y679D03*
X1767Y693D03*
X1781Y707D03*
X1795Y721D03*
X1809Y735D03*
X1823Y749D03*
X1837Y763D03*
X1851Y777D03*
X1864Y791D03*
X1878Y805D03*
X1892Y819D03*
X1906Y833D03*
X1920Y847D03*
X1934Y860D03*
D02*
D21*
X794Y1128D03*
Y1178D03*
Y1228D03*
Y1278D03*
X1022Y1128D03*
Y1178D03*
Y1228D03*
Y1278D03*
X2178Y766D03*
Y816D03*
Y866D03*
Y916D03*
Y966D03*
Y1016D03*
Y1066D03*
Y1116D03*
X2406Y766D03*
Y816D03*
Y866D03*
Y916D03*
Y966D03*
Y1016D03*
Y1066D03*
Y1116D03*
D02*
D22*
X857Y912D03*
X1211D03*
D02*
D23*
X278Y1333D03*
X396D03*
D02*
D24*
X337Y1396D03*
D02*
D25*
X117Y562D03*
Y647D03*
X506Y885D03*
Y970D03*
X597Y885D03*
Y970D03*
X1113Y1228D03*
Y1313D03*
D02*
D27*
X225Y341D03*
D02*
D28*
X203D03*
D02*
D27*
X225Y518D03*
D02*
D28*
X203D03*
D02*
D29*
X436Y341D03*
D02*
D28*
X458D03*
D02*
D29*
X436Y518D03*
D02*
D28*
X458D03*
D02*
D73*
X684Y294D03*
Y444D03*
D02*
D74*
X46Y660D02*
X502D01*
Y821*
X318*
X316Y811*
X311Y801*
X304Y794*
X295Y788*
X284Y786*
X274Y786*
X264Y789*
X255Y795*
X248Y803*
X244Y813*
X242Y823*
X243Y833*
X247Y842*
X253Y850*
X261Y856*
X270Y860*
X280Y861*
X290Y860*
X299Y856*
X307Y850*
X313Y842*
Y982*
X307Y974*
X299Y968*
X290Y964*
X280Y963*
X270Y964*
X261Y968*
X253Y974*
X247Y982*
X243Y991*
X242Y1001*
X244Y1011*
X248Y1021*
X255Y1029*
X264Y1035*
X274Y1038*
X284Y1038*
X295Y1036*
X304Y1030*
X311Y1022*
X316Y1013*
X318Y1002*
X502*
Y1164*
X46*
Y660*
X227Y679D02*
X96D01*
Y790*
X227*
Y679*
Y1033D02*
X96D01*
Y1145*
X227*
Y1033*
X444Y683D02*
X313D01*
Y794*
X444*
Y683*
Y1033D02*
X313D01*
Y1145*
X444*
Y1033*
X46Y660D02*
X502D01*
X46Y663D02*
X502D01*
X46Y666D02*
X502D01*
X46Y669D02*
X502D01*
X46Y672D02*
X502D01*
X46Y675D02*
X502D01*
X46Y678D02*
X502D01*
X46Y681D02*
X96D01*
X227D02*
X502D01*
X46Y684D02*
X96D01*
X227D02*
X313D01*
X444D02*
X502D01*
X46Y687D02*
X96D01*
X227D02*
X313D01*
X444D02*
X502D01*
X46Y690D02*
X96D01*
X227D02*
X313D01*
X444D02*
X502D01*
X46Y693D02*
X96D01*
X227D02*
X313D01*
X444D02*
X502D01*
X46Y696D02*
X96D01*
X227D02*
X313D01*
X444D02*
X502D01*
X46Y699D02*
X96D01*
X227D02*
X313D01*
X444D02*
X502D01*
X46Y702D02*
X96D01*
X227D02*
X313D01*
X444D02*
X502D01*
X46Y705D02*
X96D01*
X227D02*
X313D01*
X444D02*
X502D01*
X46Y708D02*
X96D01*
X227D02*
X313D01*
X444D02*
X502D01*
X46Y711D02*
X96D01*
X227D02*
X313D01*
X444D02*
X502D01*
X46Y714D02*
X96D01*
X227D02*
X313D01*
X444D02*
X502D01*
X46Y717D02*
X96D01*
X227D02*
X313D01*
X444D02*
X502D01*
X46Y720D02*
X96D01*
X227D02*
X313D01*
X444D02*
X502D01*
X46Y723D02*
X96D01*
X227D02*
X313D01*
X444D02*
X502D01*
X46Y726D02*
X96D01*
X227D02*
X313D01*
X444D02*
X502D01*
X46Y729D02*
X96D01*
X227D02*
X313D01*
X444D02*
X502D01*
X46Y732D02*
X96D01*
X227D02*
X313D01*
X444D02*
X502D01*
X46Y735D02*
X96D01*
X227D02*
X313D01*
X444D02*
X502D01*
X46Y738D02*
X96D01*
X227D02*
X313D01*
X444D02*
X502D01*
X46Y741D02*
X96D01*
X227D02*
X313D01*
X444D02*
X502D01*
X46Y744D02*
X96D01*
X227D02*
X313D01*
X444D02*
X502D01*
X46Y747D02*
X96D01*
X227D02*
X313D01*
X444D02*
X502D01*
X46Y750D02*
X96D01*
X227D02*
X313D01*
X444D02*
X502D01*
X46Y753D02*
X96D01*
X227D02*
X313D01*
X444D02*
X502D01*
X46Y756D02*
X96D01*
X227D02*
X313D01*
X444D02*
X502D01*
X46Y759D02*
X96D01*
X227D02*
X313D01*
X444D02*
X502D01*
X46Y762D02*
X96D01*
X227D02*
X313D01*
X444D02*
X502D01*
X46Y765D02*
X96D01*
X227D02*
X313D01*
X444D02*
X502D01*
X46Y768D02*
X96D01*
X227D02*
X313D01*
X444D02*
X502D01*
X46Y771D02*
X96D01*
X227D02*
X313D01*
X444D02*
X502D01*
X46Y774D02*
X96D01*
X227D02*
X313D01*
X444D02*
X502D01*
X46Y777D02*
X96D01*
X227D02*
X313D01*
X444D02*
X502D01*
X46Y780D02*
X96D01*
X227D02*
X313D01*
X444D02*
X502D01*
X46Y783D02*
X96D01*
X227D02*
X313D01*
X444D02*
X502D01*
X46Y786D02*
X96D01*
X227D02*
X273D01*
X287D02*
X313D01*
X444D02*
X502D01*
X46Y789D02*
X96D01*
X227D02*
X264D01*
X296D02*
X313D01*
X444D02*
X502D01*
X46Y792D02*
X259D01*
X301D02*
X313D01*
X444D02*
X502D01*
X46Y795D02*
X255D01*
X305D02*
X502D01*
X46Y798D02*
X252D01*
X308D02*
X502D01*
X46Y801D02*
X249D01*
X311D02*
X502D01*
X46Y804D02*
X247D01*
X313D02*
X502D01*
X46Y807D02*
X246D01*
X314D02*
X502D01*
X46Y810D02*
X245D01*
X316D02*
X502D01*
X46Y813D02*
X244D01*
X317D02*
X502D01*
X46Y816D02*
X243D01*
X317D02*
X502D01*
X46Y819D02*
X242D01*
X318D02*
X502D01*
X46Y822D02*
X242D01*
X46Y825D02*
X242D01*
X46Y828D02*
X242D01*
X46Y831D02*
X243D01*
X46Y834D02*
X244D01*
X46Y837D02*
X245D01*
X46Y840D02*
X246D01*
X46Y843D02*
X248D01*
X313D02*
X313D01*
X46Y846D02*
X250D01*
X311D02*
X313D01*
X46Y849D02*
X252D01*
X308D02*
X313D01*
X46Y852D02*
X255D01*
X305D02*
X313D01*
X46Y855D02*
X259D01*
X301D02*
X313D01*
X46Y858D02*
X264D01*
X296D02*
X313D01*
X46Y861D02*
X275D01*
X285D02*
X313D01*
X46Y864D02*
X313D01*
X46Y867D02*
X313D01*
X46Y870D02*
X313D01*
X46Y873D02*
X313D01*
X46Y876D02*
X313D01*
X46Y879D02*
X313D01*
X46Y882D02*
X313D01*
X46Y885D02*
X313D01*
X46Y888D02*
X313D01*
X46Y891D02*
X313D01*
X46Y894D02*
X313D01*
X46Y897D02*
X313D01*
X46Y900D02*
X313D01*
X46Y903D02*
X313D01*
X46Y906D02*
X313D01*
X46Y909D02*
X313D01*
X46Y912D02*
X313D01*
X46Y915D02*
X313D01*
X46Y918D02*
X313D01*
X46Y921D02*
X313D01*
X46Y924D02*
X313D01*
X46Y927D02*
X313D01*
X46Y930D02*
X313D01*
X46Y933D02*
X313D01*
X46Y936D02*
X313D01*
X46Y939D02*
X313D01*
X46Y942D02*
X313D01*
X46Y945D02*
X313D01*
X46Y948D02*
X313D01*
X46Y951D02*
X313D01*
X46Y954D02*
X313D01*
X46Y957D02*
X313D01*
X46Y960D02*
X313D01*
X46Y963D02*
X274D01*
X286D02*
X313D01*
X46Y966D02*
X264D01*
X296D02*
X313D01*
X46Y969D02*
X259D01*
X301D02*
X313D01*
X46Y972D02*
X255D01*
X305D02*
X313D01*
X46Y975D02*
X252D01*
X308D02*
X313D01*
X46Y978D02*
X249D01*
X311D02*
X313D01*
X46Y981D02*
X247D01*
X313D02*
X313D01*
X46Y984D02*
X246D01*
X46Y987D02*
X245D01*
X46Y990D02*
X244D01*
X46Y993D02*
X243D01*
X46Y996D02*
X242D01*
X46Y999D02*
X242D01*
X46Y1002D02*
X242D01*
X46Y1005D02*
X242D01*
X318D02*
X502D01*
X46Y1008D02*
X243D01*
X317D02*
X502D01*
X46Y1011D02*
X244D01*
X317D02*
X502D01*
X46Y1014D02*
X245D01*
X316D02*
X502D01*
X46Y1017D02*
X246D01*
X314D02*
X502D01*
X46Y1020D02*
X247D01*
X313D02*
X502D01*
X46Y1023D02*
X249D01*
X311D02*
X502D01*
X46Y1026D02*
X252D01*
X308D02*
X502D01*
X46Y1029D02*
X255D01*
X305D02*
X502D01*
X46Y1032D02*
X259D01*
X301D02*
X502D01*
X46Y1035D02*
X96D01*
X227D02*
X264D01*
X296D02*
X313D01*
X444D02*
X502D01*
X46Y1038D02*
X96D01*
X227D02*
X274D01*
X286D02*
X313D01*
X444D02*
X502D01*
X46Y1041D02*
X96D01*
X227D02*
X313D01*
X444D02*
X502D01*
X46Y1044D02*
X96D01*
X227D02*
X313D01*
X444D02*
X502D01*
X46Y1047D02*
X96D01*
X227D02*
X313D01*
X444D02*
X502D01*
X46Y1050D02*
X96D01*
X227D02*
X313D01*
X444D02*
X502D01*
X46Y1053D02*
X96D01*
X227D02*
X313D01*
X444D02*
X502D01*
X46Y1056D02*
X96D01*
X227D02*
X313D01*
X444D02*
X502D01*
X46Y1059D02*
X96D01*
X227D02*
X313D01*
X444D02*
X502D01*
X46Y1062D02*
X96D01*
X227D02*
X313D01*
X444D02*
X502D01*
X46Y1065D02*
X96D01*
X227D02*
X313D01*
X444D02*
X502D01*
X46Y1068D02*
X96D01*
X227D02*
X313D01*
X444D02*
X502D01*
X46Y1071D02*
X96D01*
X227D02*
X313D01*
X444D02*
X502D01*
X46Y1074D02*
X96D01*
X227D02*
X313D01*
X444D02*
X502D01*
X46Y1077D02*
X96D01*
X227D02*
X313D01*
X444D02*
X502D01*
X46Y1080D02*
X96D01*
X227D02*
X313D01*
X444D02*
X502D01*
X46Y1083D02*
X96D01*
X227D02*
X313D01*
X444D02*
X502D01*
X46Y1086D02*
X96D01*
X227D02*
X313D01*
X444D02*
X502D01*
X46Y1089D02*
X96D01*
X227D02*
X313D01*
X444D02*
X502D01*
X46Y1092D02*
X96D01*
X227D02*
X313D01*
X444D02*
X502D01*
X46Y1095D02*
X96D01*
X227D02*
X313D01*
X444D02*
X502D01*
X46Y1098D02*
X96D01*
X227D02*
X313D01*
X444D02*
X502D01*
X46Y1101D02*
X96D01*
X227D02*
X313D01*
X444D02*
X502D01*
X46Y1104D02*
X96D01*
X227D02*
X313D01*
X444D02*
X502D01*
X46Y1107D02*
X96D01*
X227D02*
X313D01*
X444D02*
X502D01*
X46Y1110D02*
X96D01*
X227D02*
X313D01*
X444D02*
X502D01*
X46Y1113D02*
X96D01*
X227D02*
X313D01*
X444D02*
X502D01*
X46Y1116D02*
X96D01*
X227D02*
X313D01*
X444D02*
X502D01*
X46Y1119D02*
X96D01*
X227D02*
X313D01*
X444D02*
X502D01*
X46Y1122D02*
X96D01*
X227D02*
X313D01*
X444D02*
X502D01*
X46Y1125D02*
X96D01*
X227D02*
X313D01*
X444D02*
X502D01*
X46Y1128D02*
X96D01*
X227D02*
X313D01*
X444D02*
X502D01*
X46Y1131D02*
X96D01*
X227D02*
X313D01*
X444D02*
X502D01*
X46Y1134D02*
X96D01*
X227D02*
X313D01*
X444D02*
X502D01*
X46Y1137D02*
X96D01*
X227D02*
X313D01*
X444D02*
X502D01*
X46Y1140D02*
X96D01*
X227D02*
X313D01*
X444D02*
X502D01*
X46Y1143D02*
X96D01*
X227D02*
X313D01*
X444D02*
X502D01*
X46Y1146D02*
X502D01*
X46Y1149D02*
X502D01*
X46Y1152D02*
X502D01*
X46Y1155D02*
X502D01*
X46Y1158D02*
X502D01*
X46Y1161D02*
X502D01*
X148Y219D02*
X135Y218D01*
X123Y213*
X111Y206*
X102Y197*
X95Y186*
X91Y173*
X89Y160*
X91Y147*
X95Y134*
X102Y123*
X111Y114*
X123Y107*
X135Y102*
X148Y101*
X161Y102*
X174Y107*
X185Y114*
X194Y123*
X201Y134*
X206Y147*
X207Y160*
X206Y173*
X201Y186*
X194Y197*
X185Y206*
X174Y213*
X161Y218*
X148Y219*
Y1723D02*
X135Y1721D01*
X123Y1717*
X111Y1710*
X102Y1701*
X95Y1690*
X91Y1677*
X89Y1664*
X91Y1651*
X95Y1638*
X102Y1627*
X111Y1618*
X123Y1611*
X135Y1606*
X148Y1605*
X161Y1606*
X174Y1611*
X185Y1618*
X194Y1627*
X201Y1638*
X206Y1651*
X207Y1664*
X206Y1677*
X201Y1690*
X194Y1701*
X185Y1710*
X174Y1717*
X161Y1721*
X148Y1723*
X219Y1550D02*
Y1443D01*
X266Y1396*
X443*
X487Y1440*
Y1589*
X486Y1595*
X483Y1600*
X478Y1603*
X379*
X373Y1605*
X270*
X269Y1605*
X259Y1589*
X248Y1574*
X234Y1561*
X219Y1550*
X266Y1397D02*
X444D01*
X263Y1400D02*
X447D01*
X260Y1403D02*
X450D01*
X257Y1406D02*
X453D01*
X254Y1409D02*
X456D01*
X251Y1412D02*
X459D01*
X248Y1415D02*
X462D01*
X245Y1418D02*
X465D01*
X242Y1421D02*
X468D01*
X239Y1424D02*
X471D01*
X236Y1427D02*
X474D01*
X233Y1430D02*
X477D01*
X230Y1433D02*
X480D01*
X227Y1436D02*
X483D01*
X224Y1439D02*
X486D01*
X221Y1442D02*
X487D01*
X219Y1445D02*
X487D01*
X219Y1448D02*
X487D01*
X219Y1451D02*
X487D01*
X219Y1454D02*
X487D01*
X219Y1457D02*
X487D01*
X219Y1460D02*
X487D01*
X219Y1463D02*
X487D01*
X219Y1466D02*
X487D01*
X219Y1469D02*
X487D01*
X219Y1472D02*
X487D01*
X219Y1475D02*
X487D01*
X219Y1478D02*
X487D01*
X219Y1481D02*
X487D01*
X219Y1484D02*
X487D01*
X219Y1487D02*
X487D01*
X219Y1490D02*
X487D01*
X219Y1493D02*
X487D01*
X219Y1496D02*
X487D01*
X219Y1499D02*
X487D01*
X219Y1502D02*
X487D01*
X219Y1505D02*
X487D01*
X219Y1508D02*
X487D01*
X219Y1511D02*
X487D01*
X219Y1514D02*
X487D01*
X219Y1517D02*
X487D01*
X219Y1520D02*
X487D01*
X219Y1523D02*
X487D01*
X219Y1526D02*
X487D01*
X219Y1529D02*
X487D01*
X219Y1532D02*
X487D01*
X219Y1535D02*
X487D01*
X219Y1538D02*
X487D01*
X219Y1541D02*
X487D01*
X219Y1544D02*
X487D01*
X219Y1547D02*
X487D01*
X219Y1550D02*
X487D01*
X224Y1553D02*
X487D01*
X228Y1556D02*
X487D01*
X232Y1559D02*
X487D01*
X235Y1562D02*
X487D01*
X239Y1565D02*
X487D01*
X242Y1568D02*
X487D01*
X245Y1571D02*
X487D01*
X248Y1574D02*
X487D01*
X250Y1577D02*
X487D01*
X253Y1580D02*
X487D01*
X255Y1583D02*
X487D01*
X257Y1586D02*
X487D01*
X260Y1589D02*
X487D01*
X262Y1592D02*
X487D01*
X263Y1595D02*
X486D01*
X265Y1598D02*
X484D01*
X267Y1601D02*
X482D01*
X268Y1604D02*
X376D01*
X2914Y219D02*
X2901Y218D01*
X2889Y213*
X2877Y206*
X2868Y197*
X2861Y186*
X2857Y173*
X2855Y160*
X2857Y147*
X2861Y134*
X2868Y123*
X2877Y114*
X2889Y107*
X2901Y102*
X2914Y101*
X2927Y102*
X2940Y107*
X2951Y114*
X2960Y123*
X2968Y134*
X2972Y147*
X2973Y160*
X2972Y173*
X2968Y186*
X2960Y197*
X2951Y206*
X2940Y213*
X2927Y218*
X2914Y219*
Y1723D02*
X2901Y1721D01*
X2889Y1717*
X2877Y1710*
X2868Y1701*
X2861Y1690*
X2857Y1677*
X2855Y1664*
X2857Y1651*
X2861Y1638*
X2868Y1627*
X2877Y1618*
X2889Y1611*
X2901Y1606*
X2914Y1605*
X2927Y1606*
X2940Y1611*
X2951Y1618*
X2960Y1627*
X2968Y1638*
X2972Y1651*
X2973Y1664*
X2972Y1677*
X2968Y1690*
X2960Y1701*
X2951Y1710*
X2940Y1717*
X2927Y1721*
X2914Y1723*
D02*
D91*
X108Y656D02*
X82Y682D01*
X120Y735D02*
X92D01*
X120Y1089D02*
X92D01*
X162Y767D02*
Y795D01*
Y1057D02*
Y1029D01*
Y1122D02*
Y1149D01*
X204Y735D02*
X232D01*
X204Y1089D02*
X232D01*
X336Y739D02*
X309D01*
X336Y1089D02*
X309D01*
X378Y706D02*
Y679D01*
Y771D02*
Y799D01*
Y1057D02*
Y1029D01*
Y1122D02*
Y1149D01*
X421Y739D02*
X448D01*
X421Y1089D02*
X448D01*
D02*
D92*
X121Y1274D02*
Y1235D01*
X128Y1227*
X178*
X121Y1408D02*
Y1477D01*
X207Y341D02*
X329D01*
X207Y518D02*
X453D01*
X278Y1333D02*
Y1232D01*
X282Y1228*
X213Y1227*
X329Y341D02*
X453D01*
X329Y410D02*
Y341D01*
X337Y1396D02*
Y1290D01*
X349Y1278*
X384*
X388Y1274*
Y1231*
X392Y1227*
X378Y849D02*
X436D01*
X467Y880*
X502*
X506Y885*
X378Y912D02*
X380D01*
Y916*
X648*
X676Y888*
Y719*
X774Y621*
X897*
X378Y943D02*
X380D01*
Y940*
X660*
X699Y900*
Y731*
X731Y699*
X897*
X396Y1333D02*
X459D01*
X475Y1349*
Y1384*
X495Y1404*
X536*
X453Y518D02*
X451D01*
Y575*
X502Y975D02*
X506Y970D01*
Y885D02*
Y853D01*
X518Y841*
X542*
X550Y833*
Y804*
X506Y970D02*
Y975D01*
X558Y1085D02*
X562Y1081D01*
X594Y621D02*
X475D01*
X463Y607*
X597Y885D02*
Y624D01*
X594Y621*
X597Y975D02*
Y970D01*
X657Y417D02*
X684Y444D01*
X672Y1086D02*
X672Y1086D01*
Y1081*
X679Y621D02*
X715D01*
X739Y597*
Y569*
X762Y546*
X1461*
X1594Y679*
X707Y317D02*
X684Y294D01*
X758Y1542D02*
Y1735D01*
X1558*
Y1546*
X794Y1128D02*
X845D01*
X853Y1136*
Y1219*
X844Y1228*
X794*
X733*
X794Y1278D02*
X672D01*
X628Y1235*
Y1198*
X808Y1485D02*
Y1460D01*
X904Y1365*
X1151*
X1483Y1033*
X857Y912D02*
Y821D01*
X880Y798*
X1406*
X1441Y833*
X908Y1485D02*
Y1455D01*
X979Y1384*
X1160*
X1497Y1047*
X982Y621D02*
X1042D01*
X1065Y644*
X1392*
X1511Y763*
X982Y699D02*
X1030D01*
X1065Y664*
X1384*
X1497Y777*
X1022Y1128D02*
X1093Y1128D01*
X1022Y1178D02*
X1170Y1178D01*
X1022Y1228D02*
X942D01*
X929Y1242*
X1022Y1228D02*
X1112D01*
X1113Y1228*
X1022Y1278D02*
X1066D01*
X1069Y1282*
Y1306*
X1073Y1310*
X1110*
X1113Y1313*
X1108Y338D02*
Y364D01*
X1270Y526*
X1497*
X1622Y652*
X1108Y1485D02*
Y1452D01*
X1125Y1436*
X1192*
X1539Y1089*
X1113Y1228D02*
X1233D01*
X1455Y1005*
X1129Y1128D02*
X1276Y1128D01*
X1427Y977*
X1131Y589D02*
X1188D01*
Y597*
X1207*
X1203Y731D02*
X1131D01*
X1205Y1178D02*
X1254Y1178D01*
X1441Y991*
X1205Y1270D02*
X1218D01*
X1469Y1019*
X1208Y338D02*
Y365D01*
X1349Y506*
X1731*
X1743Y518*
Y634*
X1725Y652*
X1208Y1485D02*
Y1447D01*
X1553Y1103*
X1211Y912D02*
Y833D01*
X1227Y817*
X1398*
X1427Y847*
X1300Y1062D02*
X1315D01*
X1413Y963*
X1308Y338D02*
Y367D01*
X1428Y487*
X1747*
X1762Y502*
Y642*
X1739Y666*
X1308Y1485D02*
Y1375D01*
X1567Y1117*
X1387Y912D02*
X1465D01*
X1470Y917*
X1408Y338D02*
Y364D01*
X1510Y467*
X1758*
X1782Y491*
Y651*
X1762Y671*
X1770Y662*
X1753Y679*
X1408Y1485D02*
Y1303D01*
X1581Y1130*
X1413Y860D02*
X1470Y917D01*
X1455Y819D02*
X1484Y848D01*
Y856*
X1455Y819D02*
X1366Y730D01*
X1313*
X1457Y682D02*
X1372Y596D01*
X1317*
X1457Y682D02*
X1457D01*
X1408Y632*
X1422Y620*
X1470Y917D02*
X1477Y924D01*
X1491*
X1534Y880*
Y870*
X1469Y805*
X1508Y338D02*
Y366D01*
X1573Y432*
X1774*
X1806Y463*
Y683*
X1781Y707*
X1508Y1485D02*
Y1457D01*
X1589Y1377*
X1723*
X1743Y1357*
Y1190*
X1725Y1172*
X1511Y1061D02*
X1172Y1400D01*
Y1400*
X1168Y1404*
X1058*
X1008Y1453*
Y1485*
X1518Y691D02*
X1523D01*
X1553Y721*
X1525Y749D02*
X1457Y682D01*
X1526Y1321D02*
X1526Y1213D01*
X1594Y1144*
X1539Y735D02*
X1510Y707D01*
Y699*
X1518Y691*
X1558Y1542D02*
Y1735D01*
X2357*
Y1546*
X1567Y707D02*
X1632Y773D01*
Y773*
X1645Y786*
Y912*
X1567Y1034D02*
X1566D01*
X1525Y1075*
X1569Y1233D02*
Y1197D01*
X1608Y1158*
X1581Y693D02*
X1555Y668D01*
X1542*
X1518Y691*
X1587Y810D02*
X1502D01*
X1483Y791*
X1593Y983D02*
X1644Y1034D01*
X1648Y1030*
Y941*
X1593Y983D02*
X1506D01*
X1463Y940*
X1437*
X1413Y963*
X1622Y1172D02*
X1593Y1201D01*
Y1215*
X1605Y1227*
X1624*
X1640Y1243*
X1640Y1290*
Y1317*
X1628Y1302*
Y1298*
X1636Y1320*
X1628Y1099D02*
Y1110D01*
X1594Y1144*
X1637Y722D02*
X1609D01*
X1581Y693*
X1637Y722D02*
X1636Y721D01*
Y694*
X1608Y666*
X1671Y756D02*
X1637Y722D01*
X1671Y756D02*
X1728Y813D01*
X1757Y842*
X1676Y627D02*
Y751D01*
X1671Y756*
X1676Y1189D02*
Y1156D01*
X1695Y1136*
X1717*
X1739Y1158*
X1678Y1067D02*
Y1117D01*
X1622Y1172*
X1678Y1067D02*
X1593Y983D01*
X1708Y1485D02*
Y1454D01*
X1723Y1440*
X1782*
X1806Y1416*
Y1169*
X1791Y1155*
X1802Y1165*
X1767Y1130*
X1742Y765D02*
X1731Y754D01*
Y730*
X1767Y693*
X1753Y1144D02*
X1782Y1173D01*
X1776Y1167*
X1784Y1175*
X1775Y1166*
X1785Y1177*
X1785Y1177*
Y1397*
X1782Y1399*
X1785Y1397*
X1784Y1399*
Y1399*
X1782Y1400*
X1782*
X1766Y1416*
X1648*
X1608Y1456*
Y1485*
X1757Y842D02*
X1797Y882D01*
X1795Y721D02*
X1829Y687D01*
Y451*
X1786Y408*
X1648*
X1608Y367*
Y338*
X1797Y882D02*
X1794Y879D01*
X1808Y338D02*
Y367D01*
X1873Y432*
Y699*
X1861Y711*
X1865Y707*
X1823Y749*
X1809Y735D02*
X1849Y695D01*
X1843Y700*
X1852Y692*
Y442*
X1846Y436*
X1851Y442*
X1849Y440*
Y440*
X1798Y388*
X1731*
X1708Y365*
Y338*
X1810Y1485D02*
Y1455D01*
X1827Y1438*
Y1162*
X1781Y1117*
X1837Y763D02*
X1794Y806D01*
X1794*
X1757Y842*
X1862Y281D02*
Y88D01*
X1059*
Y277*
X1878Y1019D02*
X1854Y995D01*
X1833*
X1810Y1018*
X1660*
X1644Y1034*
X1678Y1067*
X1906Y991D02*
X1797Y882D01*
X1908Y338D02*
Y720D01*
X1851Y777*
X1908Y1485D02*
Y1216D01*
X1795Y1103*
X1929Y1054D02*
X1913D01*
X1878Y1019*
X1947Y1248D02*
Y1227D01*
X1809Y1089*
X1957Y908D02*
X1912D01*
X1900Y896*
Y867*
X1920Y847*
X2006Y1107D02*
Y1144D01*
X2034Y1172*
X2109*
X2008Y338D02*
Y648D01*
X1864Y791*
X2008Y1485D02*
Y1261D01*
X1823Y1075*
X2108Y338D02*
Y576D01*
X1878Y805*
X2108Y1485D02*
Y1333D01*
X1837Y1061*
X2178Y766D02*
X2251D01*
X2278Y794*
Y1199*
X2279Y1200*
Y1219*
X2178Y816D02*
X2128D01*
X2113Y802*
Y766*
X2184Y695*
X2506*
X2526Y715*
Y769*
X2527Y770*
X2178Y866D02*
X2107D01*
X2106Y866*
X2178Y916D02*
X2109D01*
X2178Y966D02*
X2117D01*
X2066Y1017*
X2178Y1016D02*
X2142D01*
X2065Y1093*
Y1103*
X2178Y1066D02*
X2128D01*
X2109Y1085*
Y1172*
X2208Y338D02*
Y503D01*
X1892Y819*
X2208Y1485D02*
Y1405D01*
X1851Y1047*
X2232Y1306D02*
Y1269D01*
X2240Y1262*
Y929*
X2228Y916*
X2178*
X2279Y1219D02*
Y1267D01*
X2317Y1306*
X2308Y338D02*
Y431D01*
X1906Y833*
X2308Y1485D02*
Y1477D01*
X2279Y1447*
X2279*
X1864Y1033*
X2317Y1306D02*
Y1350D01*
X2306Y1361*
X2220*
X2188Y1329*
X2173Y1314*
X2109Y1250*
Y1172*
X2404Y1199D02*
Y1118D01*
X2406Y1116*
X2404Y1199D02*
Y1219D01*
X2364*
X2406Y766D02*
X2455D01*
X2467Y778*
Y790*
X2479Y802*
X2527*
X2406Y816D02*
X2462D01*
X2479Y833*
X2527*
X2406Y866D02*
X2525D01*
X2527Y865*
X2406Y916D02*
X2460D01*
X2471Y928*
Y951*
X2479Y959*
X2527*
X2406Y966D02*
X2455D01*
X2479Y991*
X2527*
X2406Y1016D02*
X2473D01*
X2479Y1022*
X2527*
X2406Y1066D02*
X2466D01*
X2479Y1054*
X2527*
X2408Y338D02*
Y387D01*
X1934Y860*
X2508Y338D02*
Y365D01*
X2472Y400*
X2424*
X2018Y806*
Y932*
X1967Y983*
X1953*
X1934Y963*
X2597Y770D02*
Y499D01*
X2664Y432*
X2715*
X2717Y430*
X2597Y802D02*
X2628D01*
X2640Y790*
Y593*
X2664Y569*
X2715*
X2717Y567*
X2597Y833D02*
X2628D01*
X2660Y802*
Y711*
X2664Y707*
X2715*
X2717Y705*
X2597Y865D02*
X2628D01*
X2648Y845*
X2715*
X2717Y843*
X2597Y959D02*
X2628D01*
X2648Y979*
X2715*
X2717Y981*
X2597Y991D02*
X2628D01*
X2660Y1022*
Y1113*
X2664Y1117*
X2715*
X2717Y1119*
X2597Y1022D02*
X2628D01*
X2640Y1034*
Y1231*
X2664Y1254*
X2715*
X2717Y1256*
X2597Y1054D02*
Y1325D01*
X2664Y1392*
X2715*
X2717Y1394*
X2608Y338D02*
Y370D01*
X2558Y420*
X2432*
X2038Y814*
Y943*
X1975Y1006*
X1949*
X1920Y977*
X2608Y1485D02*
Y1400D01*
X2569Y1361*
X2440*
X2404Y1325*
Y1199*
X2661Y281D02*
Y88D01*
X1861*
Y277*
D02*
D93*
X148Y160D03*
Y1664D03*
X2914Y160D03*
Y1664D03*
D02*
D94*
X280Y823D03*
Y1001D03*
D02*
D95*
X558Y417D03*
Y1406D03*
X558Y317D03*
Y517D03*
Y1306D03*
Y1506D03*
D02*
D96*
X594Y621D03*
X679D03*
X897D03*
Y699D03*
X982Y621D03*
Y699D03*
X2232Y1306D03*
X2279Y1219D03*
X2317Y1306D03*
X2364Y1219D03*
D02*
D97*
X282Y1228D03*
X392Y1227D03*
X1203Y731D03*
X1207Y597D03*
X1313Y730D03*
X1317Y596D03*
X1526Y1321D03*
X1636Y1320D03*
D02*
D98*
X121Y1274D03*
Y1408D03*
X2717Y430D03*
Y567D03*
Y705D03*
Y843D03*
Y981D03*
Y1119D03*
Y1256D03*
Y1394D03*
X2851Y430D03*
Y567D03*
Y705D03*
Y843D03*
Y981D03*
Y1119D03*
Y1256D03*
Y1394D03*
D02*
D99*
X121Y1495D03*
X195Y1227D03*
X286Y1471D03*
X337D03*
X388D03*
X451Y593D03*
X857Y912D03*
X908Y443D03*
X1211Y912D03*
X1754Y778D03*
D02*
D100*
X117Y487D03*
X329Y428D03*
X550Y786D03*
X628Y1180D03*
X715Y1227D03*
X916Y1254D03*
X1111Y1128D03*
X1113Y589D03*
Y731D03*
X1188Y1178D03*
Y1270D03*
X1282Y1062D03*
X1369Y912D03*
X1436Y609D03*
X1484Y874D03*
X1569Y1251D03*
X1585Y1034D03*
X1605Y810D03*
X1628Y1081D03*
X1636Y928D03*
X1676Y609D03*
Y1207D03*
X1947Y1054D03*
Y1266D03*
X1975Y908D03*
X2006Y1089D03*
X2054Y1030D03*
X2065Y1121D03*
X2093Y853D03*
Y924D03*
D02*
D101*
X117Y562D02*
Y509D01*
X378Y975D02*
X502D01*
X506D02*
X597D01*
X558Y1280D02*
Y1085D01*
X583Y417D02*
X657D01*
X597Y970D02*
Y975D01*
X651*
X672Y995*
Y1086*
X684Y444D02*
X886D01*
X782Y317D02*
X707D01*
X1008Y342D02*
Y470D01*
X963Y514*
X583*
X2851Y430D02*
Y567D01*
Y705D02*
Y843D01*
Y705D02*
Y567D01*
Y981D02*
Y843D01*
Y1119D02*
Y981D01*
Y1256D02*
Y1394D01*
Y1256D02*
Y1119D01*
Y1394D02*
Y1453D01*
X2798Y1506*
X2634*
D02*
D109*
X808Y317D03*
X808Y1506D03*
X908Y317D03*
X908Y1506D03*
X1008Y317D03*
X1008Y1506D03*
X1108Y317D03*
X1108Y1506D03*
X1208Y317D03*
X1208Y1506D03*
X1308Y317D03*
X1308Y1506D03*
X1408Y317D03*
X1408Y1506D03*
X1508Y317D03*
X1508Y1506D03*
X1608Y317D03*
X1608Y1506D03*
X1708Y317D03*
X1708Y1506D03*
X1808Y317D03*
X1808Y1506D03*
X1908Y317D03*
X1908Y1506D03*
X2008Y317D03*
X2008Y1506D03*
X2108Y317D03*
X2108Y1506D03*
X2208Y317D03*
X2208Y1506D03*
X2308Y317D03*
X2308Y1506D03*
X2408Y317D03*
X2408Y1506D03*
X2508Y317D03*
X2508Y1506D03*
X2608Y317D03*
X2608Y1506D03*
D02*
D111*
X2527Y802D03*
Y833D03*
Y865D03*
Y991D03*
Y1022D03*
Y1054D03*
X2527Y770D03*
Y959D03*
X2597Y770D03*
Y802D03*
Y833D03*
Y865D03*
Y959D03*
Y991D03*
Y1022D03*
Y1054D03*
D02*
D119*
X562Y1081D03*
X672D03*
X0Y0D02*
M02*
