%FSLAX23Y23*%
%MOIN*%
G04 EasyPC Gerber Version 15.0.4 Build 3016 *
%ADD112O,0.06506X0.12411*%
%ADD82R,0.03300X0.05600*%
%ADD83R,0.03300X0.18100*%
%ADD104R,0.03356X0.06112*%
%ADD113R,0.06900X0.11230*%
%AMT103*0 Octagon Pad at angle 0*4,1,8,-0.01673,-0.04040,0.01673,-0.04040,0.04040,-0.01673,0.04040,0.01673,0.01673,0.04040,-0.01673,0.04040,-0.04040,0.01673,-0.04040,-0.01673,-0.01673,-0.04040,0*%
%ADD103T103*%
%AMT79*0 Finger Pad at angle 45*1,1,0.01781,-0.01253,0.01253*1,1,0.01781,0.01253,-0.01253*21,1,0.01781,0.03543,0,0,45*%
%ADD79T79*%
%AMT86*0 Bullet Pad at angle 90*21,1,0.07600,0.04674,0,0,90*%
%ADD86T86*%
%ADD80O,0.07800X0.03100*%
%AMT78*0 Finger Pad at angle 135*1,1,0.01781,-0.01253,-0.01253*1,1,0.01781,0.01253,0.01253*21,1,0.01781,0.03543,0,0,135*%
%ADD78T78*%
%ADD114R,0.04537X0.02569*%
%ADD75R,0.10443X0.02569*%
%ADD106R,0.06900X0.06900*%
%ADD74C,0.00500*%
%ADD12C,0.00787*%
%ADD84R,0.06112X0.03356*%
%ADD105R,0.08600X0.06100*%
%ADD90R,0.08600X0.06900*%
%ADD76R,0.10443X0.08474*%
%ADD102C,0.04943*%
%ADD107C,0.05400*%
%ADD108C,0.05403*%
%ADD81R,0.18317X0.12411*%
%ADD87C,0.07600*%
%AMT88*0 Bullet Pad at angle 270*21,1,0.07600,0.04674,0,0,270*%
%ADD88T88*%
X0Y0D02*
D02*
D12*
X136Y26D02*
X2928D01*
X2946Y28*
X2964Y32*
X2981Y39*
X2997Y49*
X3011Y61*
X3023Y75*
X3033Y91*
X3040Y108*
X3044Y126*
X3046Y144*
Y1678*
X3044Y1696*
X3040Y1715*
X3033Y1732*
X3023Y1748*
X3011Y1763*
X2996Y1775*
X2980Y1785*
X2963Y1792*
X2945Y1796*
X2926Y1798*
X136*
X117Y1796*
X99Y1792*
X81Y1784*
X65Y1774*
X50Y1762*
X38Y1747*
X28Y1731*
X20Y1713*
X16Y1695*
X14Y1676*
Y148*
X16Y129*
X20Y110*
X28Y93*
X38Y76*
X50Y62*
X65Y49*
X81Y39*
X99Y32*
X117Y28*
X136Y26*
D02*
D74*
X148Y219D02*
X135Y218D01*
X123Y213*
X111Y206*
X102Y197*
X95Y186*
X91Y173*
X89Y160*
X91Y147*
X95Y134*
X102Y123*
X111Y114*
X123Y107*
X135Y102*
X148Y101*
X161Y102*
X174Y107*
X185Y114*
X194Y123*
X201Y134*
X206Y147*
X207Y160*
X206Y173*
X201Y186*
X194Y197*
X185Y206*
X174Y213*
X161Y218*
X148Y219*
Y1723D02*
X135Y1721D01*
X123Y1717*
X111Y1710*
X102Y1701*
X95Y1690*
X91Y1677*
X89Y1664*
X91Y1651*
X95Y1638*
X102Y1627*
X111Y1618*
X123Y1611*
X135Y1606*
X148Y1605*
X161Y1606*
X174Y1611*
X185Y1618*
X194Y1627*
X201Y1638*
X206Y1651*
X207Y1664*
X206Y1677*
X201Y1690*
X194Y1701*
X185Y1710*
X174Y1717*
X161Y1721*
X148Y1723*
X2914Y219D02*
X2901Y218D01*
X2889Y213*
X2877Y206*
X2868Y197*
X2861Y186*
X2857Y173*
X2855Y160*
X2857Y147*
X2861Y134*
X2868Y123*
X2877Y114*
X2889Y107*
X2901Y102*
X2914Y101*
X2927Y102*
X2940Y107*
X2951Y114*
X2960Y123*
X2968Y134*
X2972Y147*
X2973Y160*
X2972Y173*
X2968Y186*
X2960Y197*
X2951Y206*
X2940Y213*
X2927Y218*
X2914Y219*
Y1723D02*
X2901Y1721D01*
X2889Y1717*
X2877Y1710*
X2868Y1701*
X2861Y1690*
X2857Y1677*
X2855Y1664*
X2857Y1651*
X2861Y1638*
X2868Y1627*
X2877Y1618*
X2889Y1611*
X2901Y1606*
X2914Y1605*
X2927Y1606*
X2940Y1611*
X2951Y1618*
X2960Y1627*
X2968Y1638*
X2972Y1651*
X2973Y1664*
X2972Y1677*
X2968Y1690*
X2960Y1701*
X2951Y1710*
X2940Y1717*
X2927Y1721*
X2914Y1723*
D02*
D75*
X378Y849D03*
Y880D03*
Y912D03*
Y943D03*
Y975D03*
D02*
D76*
X162Y735D03*
Y1089D03*
X378Y739D03*
Y1089D03*
D02*
D78*
X1413Y860D03*
X1427Y847D03*
X1441Y833D03*
X1455Y819D03*
X1469Y805D03*
X1483Y791D03*
X1497Y777D03*
X1511Y763D03*
X1525Y749D03*
X1539Y735D03*
X1553Y721D03*
X1567Y707D03*
X1581Y693D03*
X1594Y679D03*
X1608Y666D03*
X1622Y652D03*
X1725Y1172D03*
X1739Y1158D03*
X1753Y1144D03*
X1767Y1130D03*
X1781Y1117D03*
X1795Y1103D03*
X1809Y1089D03*
X1823Y1075D03*
X1837Y1061D03*
X1851Y1047D03*
X1864Y1033D03*
X1878Y1019D03*
X1892Y1005D03*
X1906Y991D03*
X1920Y977D03*
X1934Y963D03*
D02*
D79*
X1413D03*
X1427Y977D03*
X1441Y991D03*
X1455Y1005D03*
X1469Y1019D03*
X1483Y1033D03*
X1497Y1047D03*
X1511Y1061D03*
X1525Y1075D03*
X1539Y1089D03*
X1553Y1103D03*
X1567Y1117D03*
X1581Y1130D03*
X1594Y1144D03*
X1608Y1158D03*
X1622Y1172D03*
X1725Y652D03*
X1739Y666D03*
X1753Y679D03*
X1767Y693D03*
X1781Y707D03*
X1795Y721D03*
X1809Y735D03*
X1823Y749D03*
X1837Y763D03*
X1851Y777D03*
X1864Y791D03*
X1878Y805D03*
X1892Y819D03*
X1906Y833D03*
X1920Y847D03*
X1934Y860D03*
D02*
D80*
X794Y1128D03*
Y1178D03*
Y1228D03*
Y1278D03*
X1022Y1128D03*
Y1178D03*
Y1228D03*
Y1278D03*
X2178Y766D03*
Y816D03*
Y866D03*
Y916D03*
Y966D03*
Y1016D03*
Y1066D03*
Y1116D03*
X2406Y766D03*
Y816D03*
Y866D03*
Y916D03*
Y966D03*
Y1016D03*
Y1066D03*
Y1116D03*
D02*
D81*
X857Y912D03*
X1211D03*
D02*
D82*
X278Y1333D03*
X396D03*
D02*
D83*
X337Y1396D03*
D02*
D84*
X117Y562D03*
Y647D03*
X506Y885D03*
Y970D03*
X597Y885D03*
Y970D03*
X1113Y1228D03*
Y1313D03*
D02*
D86*
X226Y341D03*
D02*
D87*
X203D03*
D02*
D86*
X226Y518D03*
D02*
D87*
X203D03*
D02*
D88*
X434Y341D03*
D02*
D87*
X458D03*
D02*
D88*
X434Y518D03*
D02*
D87*
X458D03*
D02*
D90*
X684Y294D03*
Y444D03*
D02*
D102*
X280Y823D03*
Y1001D03*
D02*
D103*
X558Y417D03*
Y1406D03*
X558Y317D03*
Y517D03*
Y1306D03*
Y1506D03*
D02*
D104*
X594Y621D03*
X679D03*
X897D03*
Y699D03*
X982Y621D03*
Y699D03*
X2232Y1306D03*
X2279Y1219D03*
X2317Y1306D03*
X2364Y1219D03*
D02*
D105*
X282Y1228D03*
X392Y1227D03*
X1203Y731D03*
X1207Y597D03*
X1313Y730D03*
X1317Y596D03*
X1526Y1321D03*
X1636Y1320D03*
D02*
D106*
X121Y1274D03*
Y1408D03*
X2717Y430D03*
Y567D03*
Y705D03*
Y843D03*
Y981D03*
Y1119D03*
Y1256D03*
Y1394D03*
X2851Y430D03*
Y567D03*
Y705D03*
Y843D03*
Y981D03*
Y1119D03*
Y1256D03*
Y1394D03*
D02*
D107*
X121Y1495D03*
X195Y1227D03*
X286Y1471D03*
X337D03*
X388D03*
X451Y593D03*
X857Y912D03*
X908Y443D03*
X1211Y912D03*
X1754Y778D03*
D02*
D108*
X117Y487D03*
X329Y428D03*
X550Y786D03*
X628Y1180D03*
X715Y1227D03*
X916Y1254D03*
X1111Y1128D03*
X1113Y589D03*
Y731D03*
X1188Y1178D03*
Y1270D03*
X1282Y1062D03*
X1369Y912D03*
X1436Y609D03*
X1484Y874D03*
X1569Y1251D03*
X1585Y1034D03*
X1605Y810D03*
X1628Y1081D03*
X1636Y928D03*
X1676Y609D03*
Y1207D03*
X1947Y1054D03*
Y1266D03*
X1975Y908D03*
X2006Y1089D03*
X2054Y1030D03*
X2065Y1121D03*
X2093Y853D03*
Y924D03*
D02*
D112*
X808Y317D03*
X808Y1506D03*
X908Y317D03*
X908Y1506D03*
X1008Y317D03*
X1008Y1506D03*
X1108Y317D03*
X1108Y1506D03*
X1208Y317D03*
X1208Y1506D03*
X1308Y317D03*
X1308Y1506D03*
X1408Y317D03*
X1408Y1506D03*
X1508Y317D03*
X1508Y1506D03*
X1608Y317D03*
X1608Y1506D03*
X1708Y317D03*
X1708Y1506D03*
X1808Y317D03*
X1808Y1506D03*
X1908Y317D03*
X1908Y1506D03*
X2008Y317D03*
X2008Y1506D03*
X2108Y317D03*
X2108Y1506D03*
X2208Y317D03*
X2208Y1506D03*
X2308Y317D03*
X2308Y1506D03*
X2408Y317D03*
X2408Y1506D03*
X2508Y317D03*
X2508Y1506D03*
X2608Y317D03*
X2608Y1506D03*
D02*
D113*
X562Y1081D03*
X672D03*
D02*
D114*
X2527Y802D03*
Y833D03*
Y865D03*
Y991D03*
Y1022D03*
Y1054D03*
X2527Y770D03*
Y959D03*
X2597Y770D03*
Y802D03*
Y833D03*
Y865D03*
Y959D03*
Y991D03*
Y1022D03*
Y1054D03*
X0Y0D02*
M02*
